<svg xmlns="http://www.w3.org/2000/svg" xmlns:xlink="http://www.w3.org/1999/xlink" viewBox="0 0 1360.34 1356.26"><defs><style>.cls-1,.cls-5,.cls-9{fill:none;}.cls-2{fill:#020202;}.cls-3{fill:#52acff;}.cls-4{fill:#efefef;}.cls-5{stroke:#d0d2d3;stroke-width:4px;}.cls-5,.cls-9{stroke-miterlimit:10;}.cls-6{fill:#cececd;}.cls-7{fill:#efb29a;}.cls-8{clip-path:url(#clip-path);}.cls-9{stroke:#52acff;stroke-width:6px;}.cls-10{fill:#dd8b6c;}.cls-11{fill:#e48f6d;}.cls-12{fill:#fac7b5;}.cls-13{clip-path:url(#clip-path-2);}</style><clipPath id="clip-path"><circle class="cls-1" cx="675.97" cy="674.75" r="658.41"/></clipPath><clipPath id="clip-path-2"><rect class="cls-1" x="757.65" y="548.36" width="260.06" height="496.42" rx="47.37"/></clipPath></defs><title>1</title><g id="Layer_1" data-name="Layer 1"><rect class="cls-2" x="185.15" y="332.77" width="1004.94" height="727.66"/><rect class="cls-3" x="179.15" y="326.77" width="1004.94" height="727.66"/><rect class="cls-4" x="198.89" y="351.17" width="966.04" height="678.85"/><line class="cls-5" x1="681.91" y1="351.17" x2="681.91" y2="1030.02"/><rect class="cls-6" x="236.2" y="387.53" width="203.72" height="222.43"/><rect class="cls-6" x="935.93" y="380.49" width="198.47" height="222.43"/><rect class="cls-6" x="236.32" y="631.21" width="203.72" height="16.56"/><rect class="cls-6" x="236.32" y="658.2" width="203.72" height="16.56"/><rect class="cls-6" x="236.83" y="685.18" width="127.7" height="16.56"/><rect class="cls-6" x="230.8" y="731.62" width="203.72" height="16.56"/><rect class="cls-6" x="230.8" y="758.6" width="203.72" height="16.56"/><rect class="cls-6" x="230.8" y="785.59" width="203.72" height="16.56"/><rect class="cls-6" x="230.8" y="812.57" width="203.72" height="16.56"/><rect class="cls-6" x="230.8" y="839.55" width="203.72" height="16.56"/><rect class="cls-6" x="230.8" y="866.54" width="203.72" height="16.56"/><rect class="cls-6" x="230.8" y="893.52" width="203.72" height="16.56"/><rect class="cls-6" x="230.8" y="920.51" width="203.72" height="16.56"/><rect class="cls-6" x="230.8" y="947.49" width="203.72" height="16.56"/><rect class="cls-6" x="713.74" y="378.22" width="203.72" height="222.43"/><rect class="cls-6" x="713.86" y="621.9" width="203.72" height="16.56"/><rect class="cls-6" x="713.86" y="648.88" width="203.72" height="16.56"/><rect class="cls-6" x="714.37" y="675.86" width="127.7" height="16.56"/><rect class="cls-6" x="708.34" y="722.31" width="203.72" height="16.56"/><rect class="cls-6" x="708.34" y="749.29" width="203.72" height="16.56"/><rect class="cls-6" x="708.34" y="776.27" width="203.72" height="16.56"/><rect class="cls-6" x="708.34" y="803.26" width="203.72" height="16.56"/><rect class="cls-6" x="708.34" y="830.24" width="203.72" height="16.56"/><rect class="cls-6" x="708.34" y="857.22" width="203.72" height="16.56"/><rect class="cls-6" x="708.34" y="911.19" width="203.72" height="16.56"/><rect class="cls-6" x="708.34" y="938.17" width="203.72" height="16.56"/><rect class="cls-6" x="457.71" y="387.06" width="203.49" height="16.56"/><rect class="cls-6" x="457.71" y="414.04" width="203.49" height="16.56"/><rect class="cls-6" x="457.71" y="441.02" width="203.49" height="16.56"/><rect class="cls-6" x="457.71" y="468.01" width="203.49" height="16.56"/><rect class="cls-6" x="457.71" y="494.99" width="203.49" height="16.56"/><rect class="cls-6" x="457.71" y="521.97" width="203.49" height="16.56"/><rect class="cls-6" x="457.71" y="548.96" width="203.49" height="16.56"/><rect class="cls-6" x="457.71" y="575.94" width="203.49" height="16.56"/><rect class="cls-6" x="933.42" y="623.69" width="203.49" height="16.56"/><rect class="cls-6" x="933.42" y="650.67" width="203.49" height="16.56"/><rect class="cls-6" x="933.42" y="677.65" width="203.49" height="16.56"/><rect class="cls-6" x="933.42" y="704.64" width="203.49" height="16.56"/><rect class="cls-6" x="933.42" y="731.62" width="203.49" height="16.56"/><rect class="cls-6" x="933.42" y="758.6" width="114.85" height="16.56"/><rect class="cls-6" x="933.42" y="812.57" width="203.49" height="16.56"/><rect class="cls-6" x="933.42" y="839.55" width="203.49" height="16.56"/><rect class="cls-6" x="933.42" y="866.54" width="203.49" height="16.56"/><rect class="cls-6" x="933.42" y="893.52" width="203.49" height="16.56"/><rect class="cls-6" x="933.42" y="920.51" width="203.49" height="16.56"/><rect class="cls-6" x="933.42" y="947.49" width="203.49" height="16.56"/><rect class="cls-6" x="933.42" y="974.47" width="157.75" height="16.56"/><rect class="cls-6" x="455.93" y="689.99" width="203.49" height="16.56"/><rect class="cls-6" x="455.93" y="716.97" width="203.49" height="16.56"/><rect class="cls-6" x="455.93" y="743.95" width="203.49" height="16.56"/><rect class="cls-6" x="455.93" y="770.94" width="203.49" height="16.56"/><rect class="cls-6" x="455.93" y="797.92" width="203.49" height="16.56"/><rect class="cls-6" x="455.93" y="824.9" width="203.49" height="16.56"/><rect class="cls-6" x="455.93" y="851.89" width="203.49" height="16.56"/><rect class="cls-6" x="455.93" y="905.86" width="203.49" height="16.56"/><rect class="cls-6" x="455.93" y="932.84" width="116.01" height="16.56"/></g><g id="Layer_7" data-name="Layer 7"><path class="cls-7" d="M1026.84,701.73s47-24.17,60.59,0-27.91,50.38-27.91,50.38L1029.9,772.2Z"/></g><g id="Layer_6" data-name="Layer 6"><g class="cls-8"><path class="cls-7" d="M601.05,1044.62l-99.49,174.22L400.34,1406.3s312.38,53.1,320.62,55.15,50.23-209.93,50.23-209.93l22.63-92.2Z"/></g><circle class="cls-9" cx="682.83" cy="674.75" r="658.41"/></g><g id="Layer_11" data-name="Layer 11"><path class="cls-7" d="M594.74,1055.68s13.55-42.37,15.08-106S727,848.63,727,848.63l66.81-43.41,133.87,254S849.15,1143,793.82,1159.32,568.17,1141.71,594.74,1055.68Z"/></g><g id="Layer_8" data-name="Layer 8"><path class="cls-10" d="M1065.4,800.75s-24.13-14.68-46.39-12.64l3.48,17.11Z"/><path class="cls-10" d="M1070.42,882.62s-10.75-14.91-54.81-12.45l9.67,18.29,45.14-5.84"/><polyline class="cls-10" points="889.29 1010.19 855.57 1037.62 849.96 1012.6 889.29 1010.19"/></g><g id="Layer_14" data-name="Layer 14"><rect class="cls-3" x="738.38" y="514.67" width="299.84" height="560.73" rx="77.08"/></g><g id="Layer_9" data-name="Layer 9"><polygon class="cls-11" points="1062.22 1014.33 1029.54 1037.31 1026.47 1014.33 1062.22 1014.33"/></g><g id="Layer_10" data-name="Layer 10"><path class="cls-7" d="M1041.05,792.46s39.58,2.8,36,34.46-27.57,32.17-27.57,32.17-26.39-4.34-22.64-35S1041.05,792.46,1041.05,792.46Z"/><path class="cls-7" d="M1071.69,884.63s-10-20.69-36.77,1.27-14.29,44.17-14.29,44.17,21.19,25,38,12.77a60.69,60.69,0,0,0,21.7-29.11S1083.18,899.43,1071.69,884.63Z"/><path class="cls-7" d="M1063.61,972.71s-17.71-24.68-33.88-7.49,0,44.09,0,44.09,14.64,12.93,27.92,7.66,12.76-25.2,12.76-25.2S1067.81,977.52,1063.61,972.71Z"/><path class="cls-12" d="M1037.73,899.86s15.66,10.55,14.64,35.06c0,0,10.64-11.74,8.6-23.23S1037.73,899.86,1037.73,899.86Z"/><path class="cls-12" d="M1045.65,973.31s12,14.55,1.79,31.23C1047.44,1004.54,1069.73,985.14,1045.65,973.31Z"/></g><g id="Layer_12" data-name="Layer 12"><path class="cls-7" d="M638.41,761.31,610.33,861.39s-8.27,28.72-.31,84.83-.2,3.51-.2,3.51,115.78-72.74,111-98.92c0,0-17.55,16.2-12.95-18s3.57-44.88,3.57-44.88S689,732.71,638.41,761.31Z"/></g><g id="Layer_13" data-name="Layer 13"><path class="cls-7" d="M753.14,680.28s-39.83,53.45-86.81,56.86c0,0-20.8-1.19-29.29,29.08,0,0,58.64,48.9,74.26,32.72,0,0,133.75-38.31,58.52-110.48C769.82,688.46,760.63,671.28,753.14,680.28Z"/><path class="cls-12" d="M753.14,680.28l16.51,18.22s-6.33,32-64.44,25.21h0s30.4-37.64,47.93-43.43"/></g><g id="Layer_2" data-name="Layer 2"><path class="cls-10" d="M711.41,796.57S687.78,782.75,668,772.2l43.27,26.74,2.23-.69-2.12-1.68"/><path class="cls-10" d="M708.37,851.22s-34.23,45.39-67.91,52.55c0,0,59.86-14.44,71-49.34Z"/><polygon class="cls-10" points="792.78 1157.43 703.75 1133.21 792.78 1162.93 792.78 1157.43"/></g><g id="Layer_16" data-name="Layer 16"><rect class="cls-4" x="757.65" y="548.36" width="260.06" height="496.42" rx="47.37"/><g class="cls-13"><rect class="cls-6" x="744.51" y="530.25" width="253.53" height="182.66"/><rect class="cls-6" x="752.17" y="743.95" width="245.87" height="35.26"/><rect class="cls-6" x="750.78" y="798.56" width="245.87" height="35.26"/><rect class="cls-6" x="749.39" y="853.17" width="245.87" height="35.26"/><rect class="cls-6" x="748" y="907.77" width="245.87" height="35.26"/><rect class="cls-6" x="746.61" y="962.38" width="245.87" height="35.26"/><rect class="cls-6" x="745.22" y="1016.99" width="245.87" height="35.26"/></g><rect class="cls-3" x="852.73" y="535.77" width="71.15" height="25.19" rx="12.44"/></g></svg>