<svg id="Layer_1" data-name="Layer 1" xmlns="http://www.w3.org/2000/svg" xmlns:xlink="http://www.w3.org/1999/xlink" viewBox="0 0 1920 1080"><defs><style>.cls-1,.cls-14,.cls-22,.cls-4{fill:none;}.cls-2{clip-path:url(#clip-path);}.cls-3{fill:#001b30;}.cls-11,.cls-13,.cls-14,.cls-22,.cls-3,.cls-6,.cls-7,.cls-8{stroke:#000;}.cls-10,.cls-11,.cls-13,.cls-14,.cls-17,.cls-22,.cls-3,.cls-4,.cls-6,.cls-7,.cls-8{stroke-miterlimit:10;}.cls-17,.cls-4{stroke:#0b5b96;}.cls-4{stroke-width:3px;}.cls-5{fill:#090909;}.cls-11,.cls-13,.cls-17,.cls-6,.cls-7{fill:#fff;}.cls-6{stroke-width:0.75px;}.cls-8{fill:#52acff;}.cls-9{fill:#d1d3d4;}.cls-10{fill:#d8b60f;stroke:#231f20;}.cls-11{opacity:0.62;}.cls-12{fill:#231f20;}.cls-13{stroke-width:0.5px;}.cls-15{fill:#0a0b0d;}.cls-16,.cls-18{fill:#0b5b96;}.cls-17{stroke-width:4px;}.cls-18,.cls-22{font-size:69.52px;font-family:Gilroy-ExtraBold, Gilroy;font-weight:800;}.cls-19{letter-spacing:-0.02em;}.cls-20{font-size:101.05px;}.cls-21{letter-spacing:0em;}.cls-22{stroke-width:2px;}.cls-23{fill:#aa8b0b;}</style><clipPath id="clip-path"><circle class="cls-1" cx="835.33" cy="586.71" r="437.12"/></clipPath></defs><title>coming soon</title><g class="cls-2"><polygon class="cls-3" points="684.42 826.7 684.42 1296.03 772.55 1296.03 804.42 933.33 791.21 1306.1 865.41 1306.1 909.11 827.54 684.42 826.7"/></g><circle class="cls-4" cx="835.33" cy="586.71" r="437.12"/><path class="cls-5" d="M775.62,448.62,772,425.56s.43-35.79-8.75-49.11-21.79-70.77,14.23-61.77c0,0,22-60.15,109.49-10.45,0,0,22.33,14.77,42.86,5.41,0,0-27.38,17.29-34.76,38.54s11.35,30.25-9.9,49c0,0,2.52-29.54-1.68-36.26s-40.28-27.49-75.76-8.22c0,0,1.44,23.23-9.36,36.19l-10.55,15.82Z"/><path class="cls-6" d="M771.77,506.29l4-60.15L777.47,430s-32.42-23.51-15.85-36.71,27.13,13.44,27.13,13.44l6.36-55.36,54.63-17.63,35.78,20.17L887,445.42s1,29.05-33.62,37.58l-1.68,26.53,2.1,23.77-57.08,27.85L765,535.24Z"/><path class="cls-7" d="M975.92,584.44c-1.32-6.36.48-10.08.48-10.08C1001,544.11,988,525.86,988,525.86L955.9,510.74c0-4.85-.33-20.83-4.39-24.83l-15.19,15.55,9.16-22.54s2.8-8.92-.54-13-8.64.45-8.64.45L924.05,485c-8.28,11.34-6.6,65.91-6.6,65.91v137c9.61,25.93,23.77,21.85,48.5,19.45S988,654.08,988,654.08Z"/><path class="cls-8" d="M654.65,553.14,628,644.59s-7.57,13.51,7.38,15.13,85,2.16,85,2.16L677.58,796l-2.22,26.72s-1.62,6.48,8.28,9.54,224.69.72,224.69.72,8.16-.24,9.12-8.4V553.14s-15-47.21-65.79-43.61c0,0,0,34.58-42.14,32.05s-37.75-35.29-37.75-35.29l-51.93-1.08S679.26,502.39,654.65,553.14Z"/><path class="cls-7" d="M639.83,660.08,637,748.68s0,81.76,76,45,106.25-81.76,127.5-90.76,47.66-15.73,46.46-31.33c0,0,19.09-8.65,5.4-18.91,0,0,13.15-7-2.7-18.19l26.83-17.65s6-4.08,4.56-8-18.13,0-18.13,0L841,632.71S858,619.38,855.8,614s-9.72-7.56-18-.54-28.63,28.63-28.63,28.63-44.3,29.54-87.16,49l-2.76,1.44,1.14-30.61Z"/><path d="M853.76,620.14,828.34,638l12.7-5.31S852.52,622.1,853.76,620.14Z"/><path d="M889.66,634.51s-6-.63-19.09,6.93C870.57,641.44,886.78,635.41,889.66,634.51Z"/><path d="M892.36,652.7S882,650.18,875.7,658A49.14,49.14,0,0,1,892.36,652.7Z"/><path class="cls-9" d="M956.57,528.45s-8.17,1.91,2.43,8.68,20.87-6.63,21-9.89S956.57,528.45,956.57,528.45Z"/><path d="M887,671.61s-9.64-.73-15.22,3.6Z"/><polygon points="719.83 676.54 684.42 709.9 719.24 692.5 719.83 676.54"/><path class="cls-10" d="M948.4,470.45l8.1,53.67s2.71,13.32,12.61,10.8,9.18-13.86,9.18-13.86l-9.18-53.67s5.4-5.58,6.3-11.34c0,0,12.19-7.87,44.6,0S1087.24,486,1087.24,486s8,7.08,12.25-7.56-1.92-79.36-1.92-79.36-5.28-40.82-24-68.67c0,0-8.65-13-16.57-.6s-45.86,49.94-59.79,53.9c0,0-35.29,12.37-64.11,16.93,0,0-27.91,5.34-20.71,37.22s29.9,17.83,32.24,21.25S948.4,470.45,948.4,470.45Z"/><path class="cls-7" d="M940.64,458.69s-.88,12.75,7.76,11.76,23.14-3.78,23.14-3.78,7.2-1,3.87-10.62C975.41,456.05,957.49,453.36,940.64,458.69Z"/><rect class="cls-6" x="979.1" y="519.92" width="26.12" height="16.5" rx="7.86" transform="translate(-116.7 344.4) rotate(-18.62)"/><rect class="cls-6" x="968.37" y="505.13" width="32.42" height="16.5" rx="7.81" transform="translate(-112.38 341.2) rotate(-18.62)"/><rect class="cls-6" x="958.05" y="489.85" width="40.48" height="16.5" rx="7.86" transform="translate(-107.83 338.39) rotate(-18.62)"/><rect class="cls-6" x="952.75" y="474.14" width="40.48" height="16.5" rx="7.57" transform="translate(-103.09 335.88) rotate(-18.62)"/><path class="cls-11" d="M1060.73,325.71s-15.78,16.68-3,83.69,33.84,78.31,33.84,78.31,13.72,17,5.24-93.53C1096.79,394.18,1081.4,314.78,1060.73,325.71Z"/><path class="cls-11" d="M1066.47,352.09s-10.64,11.25-2,56.42,22.81,52.78,22.81,52.78,9.24,11.43,3.53-63C1090.78,398.25,1080.41,344.72,1066.47,352.09Z"/><path class="cls-12" d="M1062,393s23.67-5.76,21.6,12.07-16.4,16.19-16.4,16.19S1062,399.05,1062,393Z"/><path class="cls-13" d="M840.49,433.23s8.94,4.88,15.21,2.39,10.7,2.31,5.89,6.72-23.09,13.92-27.36,1S840.49,433.23,840.49,433.23Z"/><path d="M839.53,461.87a10,10,0,0,1,2.09-2.62,10.45,10.45,0,0,1,2.83-1.84,9.35,9.35,0,0,1,3.28-.8,9.54,9.54,0,0,1,1.69,0,13.16,13.16,0,0,1,1.64.31,15.05,15.05,0,0,0-3.29.05,10.89,10.89,0,0,0-3.12.87,12.91,12.91,0,0,0-2.78,1.67A14.73,14.73,0,0,0,839.53,461.87Z"/><ellipse cx="831.25" cy="401.96" rx="4.08" ry="4.8"/><ellipse cx="868.71" cy="401.96" rx="4.08" ry="4.8"/><path d="M843.5,373.87a66.93,66.93,0,0,0-9.25,1.23,42.54,42.54,0,0,0-8.58,2.84,16.36,16.36,0,0,0-2,1c-.65.37-1.33.7-2,1.09a42.45,42.45,0,0,0-3.72,2.57,44.48,44.48,0,0,0-3.5,3,19.87,19.87,0,0,0-1.67,1.64c-.55.56-1.11,1.12-1.71,1.67.32-.73.68-1.44,1-2.16a16.81,16.81,0,0,1,1.21-2.1l1.43-2,.37-.49.42-.44.85-.88a25.44,25.44,0,0,1,3.73-3.22,27.85,27.85,0,0,1,4.3-2.41,27.4,27.4,0,0,1,9.49-2.42A24.76,24.76,0,0,1,843.5,373.87Z"/><path d="M861.63,372.67a11.89,11.89,0,0,0,1.49-.6c.49-.23,1-.42,1.5-.63a23.5,23.5,0,0,1,3.16-.93,16.82,16.82,0,0,1,6.75-.13,11.49,11.49,0,0,1,6.17,3.27,10.32,10.32,0,0,1,2.78,6.1,19.68,19.68,0,0,0-4.33-4.32,13.7,13.7,0,0,0-5.2-2.11,30,30,0,0,0-5.92-.47c-1,0-2.07,0-3.13,0-.54,0-1.07,0-1.62,0A5.16,5.16,0,0,1,861.63,372.67Z"/><path class="cls-14" d="M855.5,388.87l5,21.37s4.93,12.35-10.8,10"/><path class="cls-15" d="M803.64,467.51s18.13,19.69,49.7,15.49L852,503.65S810.72,495.48,803.64,467.51Z"/><path class="cls-13" d="M833.44,436.16s6.56,11.34,30.17,2.11"/><path class="cls-16" d="M1533.48,76.62c-104.28,4.57-321.89,22.79-356.65,13.68,0,0-34.76-12.89-35.51,64.94s-12.09,185.88,21.16,212.32,73.29,6.05,69.51,24.94c-1.09,5.47-7.21,13.74-15.33,22.72l-51.92,48.31,11.7,14.51,81.2-67.84c20.25-8.23,41-13.84,59-13.17,60.45,2.27,247.08,12.85,250.86-17.38S1637.75,72.05,1533.48,76.62Z"/><path class="cls-17" d="M1188.53,104.82s-34.75-12.89-35.51,64.94-12.09,185.87,21.16,212.32,73.29,6,69.51,24.93-67.25,71-67.25,71,91.43-68.76,151.88-66.49,247.08,12.84,250.86-17.38,70.27-307.6-34-303S1223.29,113.92,1188.53,104.82Z"/><text class="cls-18" transform="translate(1232.64 208.32)"><tspan class="cls-19">C</tspan><tspan x="48.6" y="0">OMING</tspan><tspan class="cls-20"><tspan class="cls-21" x="0" y="121.26">S</tspan><tspan x="58.61" y="121.26">OON</tspan></tspan></text><path class="cls-16" d="M1181.13,333.45s-.46,29.91,32.21,35.89C1213.34,369.34,1181.13,368.19,1181.13,333.45Z"/><path class="cls-16" d="M1524.5,392.13s29.91.46,35.89-32.22C1560.39,359.91,1559.24,392.13,1524.5,392.13Z"/><path class="cls-16" d="M1571.54,143.23s-3.13-29.75-36.28-31.77C1535.26,111.46,1567.38,108.74,1571.54,143.23Z"/><path class="cls-16" d="M1216.9,129.44s-29.67-3.86-39.32,27.93C1177.58,157.37,1182.38,125.49,1216.9,129.44Z"/><text class="cls-22" transform="translate(1229.01 204.78)"><tspan class="cls-19">C</tspan><tspan x="48.6" y="0">OMING</tspan><tspan class="cls-20"><tspan class="cls-21" x="0" y="121.26">S</tspan><tspan x="58.61" y="121.26">OON</tspan></tspan></text><path class="cls-23" d="M965.26,397.16s-1.2,33.2,9,48l-5.2,3.45S956.62,404,960,397.85Z"/><path d="M773.94,402.77a4.36,4.36,0,0,1,2,1.7,5.6,5.6,0,0,1,.85,2.54,8.18,8.18,0,0,1-.22,2.66c-.13.43-.25.85-.39,1.26s-.36.81-.55,1.2c.09-.43.21-.85.31-1.27l.26-1.26a10.83,10.83,0,0,0,.09-2.54A5.68,5.68,0,0,0,773.94,402.77Z"/><path class="cls-14" d="M962.74,394.16s-.4,41.71,12.67,61.89"/><path class="cls-15" d="M976.4,574.36s-18.29,2.71-23.4,1.69c0,0,13.46,4.67,22.5,2.33Z"/><path class="cls-23" d="M1085.26,483.72s-65.25-43.91-109-29.87l-.88-3.32S1040.32,432.23,1085.26,483.72Z"/><path class="cls-23" d="M973,453.85,971.47,451s-30-2-44.09,3.91c0,0-1.19,3.92,9.79,2.22S949.24,453.77,973,453.85Z"/><path class="cls-23" d="M957.77,519.38s1.53,13.62,15.91,6.9C973.68,526.28,963.55,544.61,957.77,519.38Z"/></svg>