<svg width="239" height="239" viewBox="0 0 239 239" fill="none" xmlns="http://www.w3.org/2000/svg">
<path d="M81.3378 74.0105C94.1989 74.0105 104.625 63.5846 104.625 50.7235C104.625 37.8625 94.1989 27.4365 81.3378 27.4365C68.4767 27.4365 58.0508 37.8625 58.0508 50.7235C58.0508 63.5846 68.4767 74.0105 81.3378 74.0105Z" fill="#F7D927"/>
<path d="M80.2211 36.9277H91.4121C91.3805 37.0036 91.3443 37.0775 91.3036 37.149C90.788 37.9656 90.2635 38.7756 89.7546 39.5833C89.7206 39.6471 89.6683 39.6993 89.6044 39.7333C89.5405 39.7672 89.468 39.7812 89.3961 39.7736C87.9112 39.7736 86.4263 39.7736 84.9414 39.7736C84.8573 39.7736 84.771 39.7736 84.667 39.7847C85.9217 41.3979 85.9416 41.4333 86.2492 42.7722H91.4165C90.8367 43.6728 90.2702 44.5625 89.6904 45.4454C89.6569 45.4775 89.6173 45.5025 89.574 45.5188C89.5306 45.5352 89.4844 45.5426 89.4381 45.5406C88.4489 45.5671 87.4597 45.5848 86.4705 45.6048C86.3731 45.6048 86.278 45.6048 86.1917 45.618C86.1799 45.6402 86.1696 45.6631 86.1607 45.6866L86.1408 45.784C85.8111 47.862 84.7223 49.4642 83.0294 50.6747C81.5179 51.7546 79.8029 52.341 77.9904 52.6663C77.6806 52.7217 77.3686 52.7681 77.0278 52.8212C77.1008 52.9208 77.1473 52.9872 77.196 53.0425C79.8648 56.4815 82.5322 59.9182 85.1981 63.3527C86.0478 64.4459 86.8954 65.5414 87.7408 66.639H82.9851C82.9165 66.5372 82.8545 66.4332 82.7793 66.338C79.3507 62.0213 75.9221 57.706 72.4935 53.3922C72.3877 53.2697 72.333 53.1112 72.3408 52.9496C72.3695 52.2149 72.3784 51.4824 72.3961 50.7477C72.3961 50.6769 72.4071 50.6061 72.4138 50.5264H72.5576C73.3897 50.5507 74.2218 50.5928 75.0561 50.595C76.0966 50.6073 77.1339 50.4762 78.1387 50.2055C79.5882 49.8028 80.7655 49.0304 81.5091 47.6827C81.8748 47.0062 82.1247 46.2731 82.2482 45.514H71.5308C72.0907 44.5713 72.6196 43.6972 73.1286 42.8098C73.1684 42.7285 73.2321 42.6614 73.3113 42.6175C73.3904 42.5735 73.4811 42.5549 73.5712 42.5642C76.2267 42.6084 78.8749 42.6475 81.5157 42.6814H81.8034C81.7348 42.5509 81.6927 42.4601 81.644 42.3783C81.0465 41.3625 80.126 40.7739 79.0372 40.4132C77.9118 40.0519 76.7381 39.8632 75.5562 39.8533C74.1554 39.8223 72.7524 39.8533 71.3516 39.8533V39.8024C71.4002 39.7382 71.4556 39.6762 71.4998 39.6098C72.0442 38.8021 72.5886 37.9988 73.1241 37.1867C73.1608 37.1152 73.2178 37.0561 73.2878 37.0167C73.3579 36.9774 73.4379 36.9595 73.5181 36.9654C75.1409 36.9654 76.7564 36.9654 78.3644 36.9654C78.9885 36.9565 79.6037 36.9388 80.2211 36.9277Z" fill="white"/>
<path d="M58.3828 80.6162H56.3336C54.9758 80.6162 53.875 81.717 53.875 83.0748V184.282C53.875 185.64 54.9758 186.741 56.3336 186.741H58.3828C59.7407 186.741 60.8414 185.64 60.8414 184.282V83.0748C60.8414 81.717 59.7407 80.6162 58.3828 80.6162Z" fill="#F7D927"/>
<path d="M73.8086 102.243H71.7594C70.4015 102.243 69.3008 103.344 69.3008 104.702V184.329C69.3008 185.686 70.4015 186.787 71.7594 186.787H73.8086C75.1664 186.787 76.2672 185.686 76.2672 184.329V104.702C76.2672 103.344 75.1664 102.243 73.8086 102.243Z" fill="#F7D927"/>
<path d="M89.4531 85.458H87.4039C86.0461 85.458 84.9453 86.5588 84.9453 87.9166V184.207C84.9453 185.565 86.0461 186.666 87.4039 186.666H89.4531C90.811 186.666 91.9117 185.565 91.9117 184.207V87.9166C91.9117 86.5588 90.811 85.458 89.4531 85.458Z" fill="#F7D927"/>
<path d="M104.129 91.269H102.08C100.722 91.269 99.6211 92.3698 99.6211 93.7276V184.282C99.6211 185.64 100.722 186.741 102.08 186.741H104.129C105.487 186.741 106.588 185.64 106.588 184.282V93.7276C106.588 92.3698 105.487 91.269 104.129 91.269Z" fill="#F7D927"/>
<path d="M186.333 92.4556H144.152C140.618 92.4556 137.754 95.3199 137.754 98.8532V179.919C137.754 183.452 140.618 186.316 144.152 186.316H186.333C189.866 186.316 192.731 183.452 192.731 179.919V98.8532C192.731 95.3199 189.866 92.4556 186.333 92.4556Z" fill="#F7D927"/>
<path d="M164.943 89.4212C176.38 89.4212 185.652 80.1495 185.652 68.7123C185.652 57.2751 176.38 48.0034 164.943 48.0034C153.506 48.0034 144.234 57.2751 144.234 68.7123C144.234 80.1495 153.506 89.4212 164.943 89.4212Z" fill="#F7D927"/>
</svg>
