<svg id="Layer_1" data-name="Layer 1" xmlns="http://www.w3.org/2000/svg" viewBox="0 0 1080 1080"><defs><style>.cls-1{fill:#fff;}</style></defs><title>Untitled-1</title><circle cx="367.55" cy="229.21" r="105.23"/><path class="cls-1" d="M362.51,166.87h50.57a9.1,9.1,0,0,1-.49,1c-2.33,3.69-4.7,7.35-7,11a1.64,1.64,0,0,1-1.62.86c-6.71,0-13.42,0-20.13,0-.38,0-.77,0-1.24.05,5.67,7.29,5.76,7.45,7.15,13.5H413.1c-2.62,4.07-5.18,8.09-7.8,12.08a1.55,1.55,0,0,1-1.14.43c-4.47.12-8.94.2-13.41.29-.44,0-.87,0-1.26.06a2.67,2.67,0,0,0-.14.31l-.09.44c-1.49,9.39-6.41,16.63-14.06,22.1-6.83,4.88-14.58,7.53-22.77,9-1.4.25-2.81.46-4.35.7.33.45.54.75.76,1Q366.93,263,385,286.28q5.76,7.41,11.49,14.85H375c-.31-.46-.59-.93-.93-1.36q-23.24-29.26-46.48-58.5a2.85,2.85,0,0,1-.69-2c.13-3.32.17-6.63.25-9.95,0-.32.05-.64.08-1h.65c3.76.11,7.52.3,11.29.31a51.23,51.23,0,0,0,13.93-1.76c6.55-1.82,11.87-5.31,15.23-11.4a31.11,31.11,0,0,0,3.34-9.8H323.24c2.53-4.26,4.92-8.21,7.22-12.22a2,2,0,0,1,2-1.11q18,.3,35.9.53h1.3c-.31-.59-.5-1-.72-1.37-2.7-4.59-6.86-7.25-11.78-8.88a52.92,52.92,0,0,0-15.73-2.53c-6.33-.14-12.67,0-19,0v-.23c.22-.29.47-.57.67-.87,2.46-3.65,4.92-7.28,7.34-10.95a1.85,1.85,0,0,1,1.78-1q11,0,21.9,0C356.94,167,359.72,166.92,362.51,166.87Z"/><rect x="243.46" y="364.29" width="31.48" height="479.56" rx="11.11"/><rect x="313.16" y="462.02" width="31.48" height="382.04" rx="11.11"/><rect x="383.86" y="386.17" width="31.48" height="457.34" rx="11.11"/><rect x="450.17" y="412.43" width="31.48" height="431.42" rx="11.11"/><rect x="622.49" y="417.79" width="248.43" height="424.14" rx="28.91"/><circle cx="745.35" cy="310.5" r="93.58"/></svg>