<svg width="299" height="299" viewBox="0 0 299 299" fill="none" xmlns="http://www.w3.org/2000/svg">
<path d="M55.5741 178.284H36.2499C31.8295 178.284 28.2461 181.868 28.2461 186.288V230.604C28.2461 235.024 31.8295 238.607 36.2499 238.607H55.5741C59.9945 238.607 63.5779 235.024 63.5779 230.604V186.288C63.5779 181.868 59.9945 178.284 55.5741 178.284Z" fill="#F7D927"/>
<path d="M45.7184 176.332C53.0684 176.332 59.0267 170.374 59.0267 163.024C59.0267 155.674 53.0684 149.716 45.7184 149.716C38.3685 149.716 32.4102 155.674 32.4102 163.024C32.4102 170.374 38.3685 176.332 45.7184 176.332Z" fill="#F7D927"/>
<path d="M45.7184 176.332C53.0684 176.332 59.0267 170.374 59.0267 163.024C59.0267 155.674 53.0684 149.716 45.7184 149.716C38.3685 149.716 32.4102 155.674 32.4102 163.024C32.4102 170.374 38.3685 176.332 45.7184 176.332Z" fill="#F7D927"/>
<path d="M87.2379 176.332C94.5879 176.332 100.546 170.374 100.546 163.024C100.546 155.674 94.5879 149.716 87.2379 149.716C79.888 149.716 73.9297 155.674 73.9297 163.024C73.9297 170.374 79.888 176.332 87.2379 176.332Z" fill="#F7D927"/>
<path d="M97.1757 177.31H77.8515C73.4311 177.31 69.8477 180.893 69.8477 185.313V229.629C69.8477 234.049 73.4311 237.633 77.8515 237.633H97.1757C101.596 237.633 105.18 234.049 105.18 229.629V185.313C105.18 180.893 101.596 177.31 97.1757 177.31Z" fill="#F7D927"/>
<path d="M138.422 177.31H119.098C114.677 177.31 111.094 180.893 111.094 185.313V229.629C111.094 234.049 114.677 237.633 119.098 237.633H138.422C142.842 237.633 146.426 234.049 146.426 229.629V185.313C146.426 180.893 142.842 177.31 138.422 177.31Z" fill="#F7D927"/>
<path d="M128.757 176.332C136.107 176.332 142.066 170.374 142.066 163.024C142.066 155.674 136.107 149.716 128.757 149.716C121.408 149.716 115.449 155.674 115.449 163.024C115.449 170.374 121.408 176.332 128.757 176.332Z" fill="#F7D927"/>
<path d="M170.277 176.332C177.627 176.332 183.585 170.374 183.585 163.024C183.585 155.674 177.627 149.716 170.277 149.716C162.927 149.716 156.969 155.674 156.969 163.024C156.969 170.374 162.927 176.332 170.277 176.332Z" fill="#F7D927"/>
<path d="M180.133 177.828H160.808C156.388 177.828 152.805 181.411 152.805 185.831V230.147C152.805 234.567 156.388 238.151 160.808 238.151H180.133C184.553 238.151 188.137 234.567 188.137 230.147V185.831C188.137 181.411 184.553 177.828 180.133 177.828Z" fill="#F7D927"/>
<path d="M242.215 139.766C253.921 139.766 263.411 130.276 263.411 118.57C263.411 106.864 253.921 97.3745 242.215 97.3745C230.509 97.3745 221.02 106.864 221.02 118.57C221.02 130.276 230.509 139.766 242.215 139.766Z" fill="#F7D927"/>
<path d="M262.65 142.144H222.39C217.97 142.144 214.387 145.727 214.387 150.148V230.208C214.387 234.628 217.97 238.212 222.39 238.212H262.65C267.071 238.212 270.654 234.628 270.654 230.208V150.148C270.654 145.727 267.071 142.144 262.65 142.144Z" fill="#F7D927"/>
</svg>
