<svg width="207" height="207" viewBox="0 0 207 207" fill="none" xmlns="http://www.w3.org/2000/svg">
<path d="M105.926 177.129C148.953 177.129 183.833 142.249 183.833 99.2222C183.833 56.1955 148.953 21.3154 105.926 21.3154C62.8996 21.3154 28.0195 56.1955 28.0195 99.2222C28.0195 142.249 62.8996 177.129 105.926 177.129Z" stroke="#F7D927" stroke-width="6" stroke-miterlimit="10"/>
<path d="M105.928 104.752C108.982 104.752 111.458 102.276 111.458 99.222C111.458 96.1681 108.982 93.6924 105.928 93.6924C102.874 93.6924 100.398 96.1681 100.398 99.222C100.398 102.276 102.874 104.752 105.928 104.752Z" fill="#F7D927"/>
<path d="M106.71 31.0713H103.773V44.3825H106.71V31.0713Z" fill="#F7D927"/>
<path d="M106.71 153.929H103.773V167.24H106.71V153.929Z" fill="#F7D927"/>
<path d="M173.324 100.623V97.6865H160.013V100.623H173.324Z" fill="#F7D927"/>
<path d="M50.4648 100.623V97.6865H37.1536V100.623H50.4648Z" fill="#F7D927"/>
<path d="M135.22 60.0548L135.218 60.0536C134.233 59.2986 132.822 59.4856 132.067 60.4714L103.605 97.6306C102.85 98.6164 103.037 100.028 104.022 100.783L104.024 100.784C105.01 101.539 106.421 101.352 107.176 100.366L135.638 63.2067C136.393 62.221 136.206 60.8098 135.22 60.0548Z" fill="#F7D927"/>
<path d="M108.373 106.252C108.745 106.897 109.569 107.118 110.213 106.746C110.857 106.374 111.077 105.55 110.705 104.906L81.9274 55.0613C81.5553 54.4168 80.7316 54.1958 80.0876 54.5676C79.4436 54.9394 79.2232 55.7633 79.5953 56.4077L108.373 106.252Z" fill="#F7D927"/>
<path d="M108.342 99.6283C108.646 98.1088 107.661 96.6301 106.142 96.3257C104.622 96.0212 103.144 97.0062 102.839 98.5257L98.198 121.69C97.8936 123.21 98.8786 124.688 100.398 124.993C101.918 125.297 103.396 124.312 103.701 122.793L108.342 99.6283Z" fill="#F7D927"/>
</svg>
