<svg width="430" height="73" viewBox="0 0 430 73" fill="none" xmlns="http://www.w3.org/2000/svg">
<rect width="430" height="73" fill="#F7D927"/>
<path d="M46.776 45V27.96H58.224V30.864H50.088V35.256H56.856V37.944H50.088V45H46.776ZM60.5573 45V27.96H63.8693V45H60.5573ZM67.4244 45V27.96H74.9604C75.7444 27.96 76.4644 28.12 77.1204 28.44C77.7924 28.76 78.3684 29.192 78.8484 29.736C79.3444 30.28 79.7204 30.888 79.9764 31.56C80.2484 32.232 80.3844 32.92 80.3844 33.624C80.3844 34.712 80.1044 35.712 79.5444 36.624C79.0004 37.536 78.2564 38.192 77.3124 38.592L81.2004 45H77.5524L74.0484 39.288H70.7364V45H67.4244ZM70.7364 36.384H74.8884C75.5124 36.384 76.0244 36.12 76.4244 35.592C76.8404 35.048 77.0484 34.392 77.0484 33.624C77.0484 33.096 76.9364 32.624 76.7124 32.208C76.4884 31.792 76.2004 31.464 75.8484 31.224C75.5124 30.984 75.1444 30.864 74.7444 30.864H70.7364V36.384ZM93.5374 32.424C93.3934 32.264 93.0894 32.056 92.6254 31.8C92.1614 31.528 91.6014 31.288 90.9454 31.08C90.3054 30.856 89.6414 30.744 88.9534 30.744C87.1454 30.744 86.2414 31.384 86.2414 32.664C86.2414 33.128 86.3854 33.496 86.6734 33.768C86.9614 34.04 87.3934 34.272 87.9694 34.464C88.5454 34.656 89.2654 34.864 90.1294 35.088C91.2494 35.376 92.2174 35.712 93.0334 36.096C93.8654 36.48 94.4974 36.992 94.9294 37.632C95.3774 38.256 95.6014 39.088 95.6014 40.128C95.6014 41.344 95.3054 42.328 94.7134 43.08C94.1374 43.816 93.3694 44.352 92.4094 44.688C91.4494 45.024 90.4094 45.192 89.2894 45.192C88.0094 45.192 86.7374 45 85.4734 44.616C84.2254 44.216 83.1134 43.672 82.1374 42.984L83.6014 40.128C83.7454 40.272 84.0014 40.464 84.3694 40.704C84.7374 40.928 85.1854 41.16 85.7134 41.4C86.2414 41.624 86.8174 41.816 87.4414 41.976C88.0654 42.136 88.6974 42.216 89.3374 42.216C91.1614 42.216 92.0734 41.632 92.0734 40.464C92.0734 39.968 91.8894 39.568 91.5214 39.264C91.1534 38.96 90.6334 38.704 89.9614 38.496C89.3054 38.288 88.5374 38.056 87.6574 37.8C86.5694 37.496 85.6654 37.16 84.9454 36.792C84.2414 36.408 83.7134 35.936 83.3614 35.376C83.0094 34.8 82.8334 34.072 82.8334 33.192C82.8334 32.024 83.1054 31.048 83.6494 30.264C84.2094 29.464 84.9614 28.864 85.9054 28.464C86.8494 28.048 87.8974 27.84 89.0494 27.84C90.2334 27.84 91.3374 28.032 92.3614 28.416C93.3854 28.8 94.2654 29.24 95.0014 29.736L93.5374 32.424ZM110.848 30.864H105.4V45H102.112V30.864H96.6641V27.96H110.848V30.864ZM128.178 32.424C128.034 32.264 127.73 32.056 127.266 31.8C126.802 31.528 126.242 31.288 125.586 31.08C124.946 30.856 124.282 30.744 123.594 30.744C121.786 30.744 120.882 31.384 120.882 32.664C120.882 33.128 121.026 33.496 121.314 33.768C121.602 34.04 122.034 34.272 122.61 34.464C123.186 34.656 123.906 34.864 124.77 35.088C125.89 35.376 126.858 35.712 127.674 36.096C128.506 36.48 129.138 36.992 129.57 37.632C130.018 38.256 130.242 39.088 130.242 40.128C130.242 41.344 129.946 42.328 129.354 43.08C128.778 43.816 128.01 44.352 127.05 44.688C126.09 45.024 125.05 45.192 123.93 45.192C122.65 45.192 121.378 45 120.114 44.616C118.866 44.216 117.754 43.672 116.778 42.984L118.242 40.128C118.386 40.272 118.642 40.464 119.01 40.704C119.378 40.928 119.826 41.16 120.354 41.4C120.882 41.624 121.458 41.816 122.082 41.976C122.706 42.136 123.338 42.216 123.978 42.216C125.802 42.216 126.714 41.632 126.714 40.464C126.714 39.968 126.53 39.568 126.162 39.264C125.794 38.96 125.274 38.704 124.602 38.496C123.946 38.288 123.178 38.056 122.298 37.8C121.21 37.496 120.306 37.16 119.586 36.792C118.882 36.408 118.354 35.936 118.002 35.376C117.65 34.8 117.474 34.072 117.474 33.192C117.474 32.024 117.746 31.048 118.29 30.264C118.85 29.464 119.602 28.864 120.546 28.464C121.49 28.048 122.538 27.84 123.69 27.84C124.874 27.84 125.978 28.032 127.002 28.416C128.026 28.8 128.906 29.24 129.642 29.736L128.178 32.424ZM144.577 42.096V45H132.745V27.96H144.361V30.864H136.057V34.968H143.233V37.656H136.057V42.096H144.577ZM157.311 32.424C157.167 32.264 156.863 32.056 156.399 31.8C155.935 31.528 155.375 31.288 154.719 31.08C154.079 30.856 153.415 30.744 152.727 30.744C150.919 30.744 150.015 31.384 150.015 32.664C150.015 33.128 150.159 33.496 150.447 33.768C150.735 34.04 151.167 34.272 151.743 34.464C152.319 34.656 153.039 34.864 153.903 35.088C155.023 35.376 155.991 35.712 156.807 36.096C157.639 36.48 158.271 36.992 158.703 37.632C159.151 38.256 159.375 39.088 159.375 40.128C159.375 41.344 159.079 42.328 158.487 43.08C157.911 43.816 157.143 44.352 156.183 44.688C155.223 45.024 154.183 45.192 153.063 45.192C151.783 45.192 150.511 45 149.247 44.616C147.999 44.216 146.887 43.672 145.911 42.984L147.375 40.128C147.519 40.272 147.775 40.464 148.143 40.704C148.511 40.928 148.959 41.16 149.487 41.4C150.015 41.624 150.591 41.816 151.215 41.976C151.839 42.136 152.471 42.216 153.111 42.216C154.935 42.216 155.847 41.632 155.847 40.464C155.847 39.968 155.663 39.568 155.295 39.264C154.927 38.96 154.407 38.704 153.735 38.496C153.079 38.288 152.311 38.056 151.431 37.8C150.343 37.496 149.439 37.16 148.719 36.792C148.015 36.408 147.487 35.936 147.135 35.376C146.783 34.8 146.607 34.072 146.607 33.192C146.607 32.024 146.879 31.048 147.423 30.264C147.983 29.464 148.735 28.864 149.679 28.464C150.623 28.048 151.671 27.84 152.823 27.84C154.007 27.84 155.111 28.032 156.135 28.416C157.159 28.8 158.039 29.24 158.775 29.736L157.311 32.424ZM172.03 32.424C171.886 32.264 171.582 32.056 171.118 31.8C170.654 31.528 170.094 31.288 169.438 31.08C168.798 30.856 168.134 30.744 167.446 30.744C165.638 30.744 164.734 31.384 164.734 32.664C164.734 33.128 164.878 33.496 165.166 33.768C165.454 34.04 165.886 34.272 166.462 34.464C167.038 34.656 167.758 34.864 168.622 35.088C169.742 35.376 170.71 35.712 171.526 36.096C172.358 36.48 172.99 36.992 173.422 37.632C173.87 38.256 174.094 39.088 174.094 40.128C174.094 41.344 173.798 42.328 173.206 43.08C172.63 43.816 171.862 44.352 170.902 44.688C169.942 45.024 168.902 45.192 167.782 45.192C166.502 45.192 165.23 45 163.966 44.616C162.718 44.216 161.606 43.672 160.63 42.984L162.094 40.128C162.238 40.272 162.494 40.464 162.862 40.704C163.23 40.928 163.678 41.16 164.206 41.4C164.734 41.624 165.31 41.816 165.934 41.976C166.558 42.136 167.19 42.216 167.83 42.216C169.654 42.216 170.566 41.632 170.566 40.464C170.566 39.968 170.382 39.568 170.014 39.264C169.646 38.96 169.126 38.704 168.454 38.496C167.798 38.288 167.03 38.056 166.15 37.8C165.062 37.496 164.158 37.16 163.438 36.792C162.734 36.408 162.206 35.936 161.854 35.376C161.502 34.8 161.326 34.072 161.326 33.192C161.326 32.024 161.598 31.048 162.142 30.264C162.702 29.464 163.454 28.864 164.398 28.464C165.342 28.048 166.39 27.84 167.542 27.84C168.726 27.84 169.83 28.032 170.854 28.416C171.878 28.8 172.758 29.24 173.494 29.736L172.03 32.424ZM176.596 45V27.96H179.908V45H176.596ZM190.736 45.12C189.488 45.12 188.352 44.88 187.328 44.4C186.32 43.92 185.448 43.272 184.712 42.456C183.992 41.624 183.432 40.696 183.032 39.672C182.632 38.632 182.432 37.568 182.432 36.48C182.432 35.344 182.64 34.264 183.056 33.24C183.472 32.2 184.056 31.28 184.808 30.48C185.56 29.664 186.44 29.024 187.448 28.56C188.472 28.08 189.592 27.84 190.808 27.84C192.04 27.84 193.16 28.088 194.168 28.584C195.192 29.08 196.064 29.744 196.784 30.576C197.52 31.408 198.08 32.344 198.464 33.384C198.864 34.408 199.064 35.456 199.064 36.528C199.064 37.648 198.856 38.728 198.44 39.768C198.024 40.792 197.44 41.712 196.688 42.528C195.952 43.328 195.072 43.96 194.048 44.424C193.04 44.888 191.936 45.12 190.736 45.12ZM185.792 36.48C185.792 37.472 185.984 38.4 186.368 39.264C186.768 40.128 187.336 40.832 188.072 41.376C188.824 41.92 189.72 42.192 190.76 42.192C191.832 42.192 192.736 41.912 193.472 41.352C194.208 40.792 194.768 40.072 195.152 39.192C195.536 38.312 195.728 37.408 195.728 36.48C195.728 35.488 195.528 34.56 195.128 33.696C194.728 32.832 194.152 32.136 193.4 31.608C192.664 31.064 191.784 30.792 190.76 30.792C189.688 30.792 188.784 31.072 188.048 31.632C187.312 32.192 186.752 32.912 186.368 33.792C185.984 34.656 185.792 35.552 185.792 36.48ZM204.916 34.056V45H201.604V27.96H204.244L213.052 39.192V27.984H216.364V45H213.604L204.916 34.056ZM225.674 45V27.96H237.122V30.864H228.986V35.256H235.754V37.944H228.986V45H225.674ZM239.456 45V27.96H246.992C247.776 27.96 248.496 28.12 249.152 28.44C249.824 28.76 250.4 29.192 250.88 29.736C251.376 30.28 251.752 30.888 252.008 31.56C252.28 32.232 252.416 32.92 252.416 33.624C252.416 34.712 252.136 35.712 251.576 36.624C251.032 37.536 250.288 38.192 249.344 38.592L253.232 45H249.584L246.08 39.288H242.768V45H239.456ZM242.768 36.384H246.92C247.544 36.384 248.056 36.12 248.456 35.592C248.872 35.048 249.08 34.392 249.08 33.624C249.08 33.096 248.968 32.624 248.744 32.208C248.52 31.792 248.232 31.464 247.88 31.224C247.544 30.984 247.176 30.864 246.776 30.864H242.768V36.384ZM267.249 42.096V45H255.417V27.96H267.033V30.864H258.729V34.968H265.905V37.656H258.729V42.096H267.249ZM281.663 42.096V45H269.831V27.96H281.447V30.864H273.143V34.968H280.319V37.656H273.143V42.096H281.663ZM290.01 45V27.96H301.458V30.864H293.322V35.256H300.09V37.944H293.322V45H290.01ZM310.806 45.12C309.558 45.12 308.422 44.88 307.398 44.4C306.39 43.92 305.518 43.272 304.782 42.456C304.062 41.624 303.502 40.696 303.102 39.672C302.702 38.632 302.502 37.568 302.502 36.48C302.502 35.344 302.71 34.264 303.126 33.24C303.542 32.2 304.126 31.28 304.878 30.48C305.63 29.664 306.51 29.024 307.518 28.56C308.542 28.08 309.662 27.84 310.878 27.84C312.11 27.84 313.23 28.088 314.238 28.584C315.262 29.08 316.134 29.744 316.854 30.576C317.59 31.408 318.15 32.344 318.534 33.384C318.934 34.408 319.134 35.456 319.134 36.528C319.134 37.648 318.926 38.728 318.51 39.768C318.094 40.792 317.51 41.712 316.758 42.528C316.022 43.328 315.142 43.96 314.118 44.424C313.11 44.888 312.006 45.12 310.806 45.12ZM305.862 36.48C305.862 37.472 306.054 38.4 306.438 39.264C306.838 40.128 307.406 40.832 308.142 41.376C308.894 41.92 309.79 42.192 310.83 42.192C311.902 42.192 312.806 41.912 313.542 41.352C314.278 40.792 314.838 40.072 315.222 39.192C315.606 38.312 315.798 37.408 315.798 36.48C315.798 35.488 315.598 34.56 315.198 33.696C314.798 32.832 314.222 32.136 313.47 31.608C312.734 31.064 311.854 30.792 310.83 30.792C309.758 30.792 308.854 31.072 308.118 31.632C307.382 32.192 306.822 32.912 306.438 33.792C306.054 34.656 305.862 35.552 305.862 36.48ZM321.674 45V27.96H329.21C329.994 27.96 330.714 28.12 331.37 28.44C332.042 28.76 332.618 29.192 333.098 29.736C333.594 30.28 333.97 30.888 334.226 31.56C334.498 32.232 334.634 32.92 334.634 33.624C334.634 34.712 334.354 35.712 333.794 36.624C333.25 37.536 332.506 38.192 331.562 38.592L335.45 45H331.802L328.298 39.288H324.986V45H321.674ZM324.986 36.384H329.138C329.762 36.384 330.274 36.12 330.674 35.592C331.09 35.048 331.298 34.392 331.298 33.624C331.298 33.096 331.186 32.624 330.962 32.208C330.738 31.792 330.45 31.464 330.098 31.224C329.762 30.984 329.394 30.864 328.994 30.864H324.986V36.384ZM347.283 27.96H350.643L356.907 45H353.499L351.915 40.752H345.963L344.403 45H340.995L347.283 27.96ZM351.315 38.424L348.963 31.392L346.515 38.424H351.315ZM358.776 45V27.96H362.088V42.096H370.776V45H358.776ZM372.792 45V27.96H376.104V42.096H384.792V45H372.792Z" fill="black"/>
</svg>
