<svg id="Layer_1" data-name="Layer 1" xmlns="http://www.w3.org/2000/svg" viewBox="0 0 895 259"><defs><style>.cls-1{fill:#52acff;}.cls-2,.cls-4{fill:#f7df32;}.cls-3,.cls-6,.cls-7,.cls-8{fill:#fff;}.cls-4{font-size:90.49px;font-family:Gilroy-ExtraBold, Gilroy;font-weight:800;}.cls-5{letter-spacing:-0.01em;}.cls-6{letter-spacing:0em;}.cls-7{letter-spacing:0em;}.cls-8{font-size:35.9px;stroke:#fff;stroke-miterlimit:10;font-family:Gilroy-Light, Gilroy;font-weight:300;}.cls-9{letter-spacing:-0.03em;}.cls-10{letter-spacing:-0.01em;}.cls-11{letter-spacing:-0.01em;}.cls-12{letter-spacing:-0.02em;}</style></defs><title>logocolor</title><rect class="cls-1" x="0.81" width="894.19" height="259"/><path class="cls-2" d="M121.29,178.75h-11.8c-2,0-2.81-.82-2.8-2.79,0-9.16-2.89-17.42-7.67-25.12a53.19,53.19,0,0,0-7.58-9.36,47.73,47.73,0,0,1-13.12-25.34,27.77,27.77,0,0,1-.47-5.14c0-4.61-.3-9.23.53-13.82A48.89,48.89,0,0,1,89,74.66a75.9,75.9,0,0,1,5.27-5.49c.61-.6,1-.55,1.59,0,3,3.06,6.08,6.06,9.07,9.14a1.19,1.19,0,0,0,1.74.21,43.09,43.09,0,0,1,9-4.1,35.12,35.12,0,0,1,12.46-1,40.7,40.7,0,0,1,12.86,3c6.24,2.65,11.57,6.45,15.1,12.41a30.66,30.66,0,0,1,4.08,14.4c.36,7.55-1.68,14.61-4.64,21.45a53.69,53.69,0,0,1-11.31,16.57,30.66,30.66,0,0,0-6.74,11.54,53.41,53.41,0,0,0-2.92,16c-.12,2.7.12,5.39,0,8.08-.05,1.73,0,1.73-1.69,1.73H121.29Z"/><path class="cls-3" d="M143,178.75c-1.89,0-3.78,0-5.66,0-.68,0-1-.23-1-1,0-5.81-.13-11.64,1-17.39,1.18-6.13,3.29-11.85,7.34-16.69,1.83-2.19,3.89-4.2,5.62-6.48a57.56,57.56,0,0,0,11.42-27.32,33.8,33.8,0,0,0-3-19.94,29.11,29.11,0,0,0-12.21-12.78A44.16,44.16,0,0,0,124,71.47,33.45,33.45,0,0,0,111,74,37.5,37.5,0,0,0,107,76.16a1.16,1.16,0,0,1-1.72-.26c-2.56-2.68-5.18-5.3-7.83-7.89-.7-.69-.58-1,.13-1.57a46.42,46.42,0,0,1,21-9.13,69.52,69.52,0,0,1,15-.36,41.19,41.19,0,0,1,17.29,5c14.16,7.75,23.23,19.36,26.33,35.35.89,4.59.58,9.26.45,13.91a37.33,37.33,0,0,1-1.78,10.73c-2.34,7.08-5.66,13.69-11.07,18.83-6.85,6.49-10.25,14.56-12.22,23.48A96,96,0,0,0,151,176.29c-.18,1.81-.95,2.44-2.76,2.46s-3.51,0-5.26,0Z"/><path class="cls-2" d="M121.83,181.49c3.84,0,7.67,0,11.5,0,.89,0,1.28.22,1.27,1.19q-.06,8.58,0,17.16a1.49,1.49,0,0,1-1.41,1.72c-6,1.07-11.66.39-16.56-3.41a19.92,19.92,0,0,1-8.1-14.95c-.07-1.24.36-1.67,1.7-1.68,3.87,0,7.74,0,11.6,0Z"/><path class="cls-3" d="M136.37,190.86c0-2.76,0-5.52,0-8.28,0-.9.15-1.2,1.18-1.16,2.72.13,5.45.06,8.18.07h1.17c1.44.05,1.87.5,1.73,1.94A20,20,0,0,1,137.4,200c-1,.45-1,.41-1-.65C136.36,196.5,136.37,193.68,136.37,190.86Z"/><text class="cls-4" transform="translate(204.76 144)">Dou<tspan class="cls-5" x="170.4" y="0">b</tspan><tspan x="225.87" y="0">t</tspan><tspan class="cls-6" x="260.98" y="0">C</tspan><tspan class="cls-3" x="325.59" y="0">onn</tspan><tspan class="cls-7" x="484.49" y="0">ec</tspan><tspan class="cls-3" x="584.13" y="0">t</tspan></text><text class="cls-8" transform="translate(422 185.72)"><tspan class="cls-9">R</tspan><tspan x="21.11" y="0">ed</tspan><tspan class="cls-10" x="65.41" y="0">e</tspan><tspan x="86.01" y="0">fined dou</tspan><tspan class="cls-11" x="243.78" y="0">b</tspan><tspan x="266.58" y="0">t </tspan><tspan class="cls-12" x="289.66" y="0">s</tspan><tspan x="305.56" y="0">olving</tspan></text></svg>