<svg id="Layer_1" data-name="Layer 1" xmlns="http://www.w3.org/2000/svg" viewBox="0 0 373.79 248.15"><title>multi</title><path d="M53.09,88.82,46.76,108H38.63L59.32,47.09H68.8L89.57,108H81.18L74.67,88.82Zm20-6.14-6-17.52c-1.36-4-2.26-7.59-3.17-11.11h-.18c-.9,3.61-1.89,7.31-3.07,11l-6,17.61Z"/><path d="M224.19,45.75h-8.32V79.41a2.26,2.26,0,0,0,0,.26c0,.17,0,.23-.22.23h-8.73c-.2,0-.23-.05-.22-.25.07-1,.15-2,.17-3a48.49,48.49,0,0,0-.57-8.25,29.61,29.61,0,0,0-3.2-9.64,19.89,19.89,0,0,0-9.41-8.91,27.85,27.85,0,0,0-15-1.84c-5.53,1.11-9.52,4.17-11.64,9.47a17.66,17.66,0,0,0-.55,10.85,11,11,0,0,0,3.26,5.71,10.79,10.79,0,0,0,4.84,2.52,17.56,17.56,0,0,0,7.83.32,11.35,11.35,0,0,0,7-4.25,13.93,13.93,0,0,0,2.72-11.14,12.91,12.91,0,0,0-2.27-6.06,8,8,0,0,1,1.58.78,13,13,0,0,1,5,5.9,28.7,28.7,0,0,1,2.29,10.57,48,48,0,0,1-.13,6.68c0,.5,0,.5-.53.5q-20.62,0-41.25,0a16.56,16.56,0,0,0-7.19,1.54,9.24,9.24,0,0,0-5.17,5.44,10.94,10.94,0,0,0,2,10.53,16.62,16.62,0,0,0,6.1,4.66,39.91,39.91,0,0,0,16,3.79,61.84,61.84,0,0,0,8.05-.2,46.45,46.45,0,0,0,9.78-1.81,30.13,30.13,0,0,0,10-5.08A26.2,26.2,0,0,0,204.73,87a.5.5,0,0,1,.57-.4q5.1,0,10.18,0c.32,0,.4.08.4.41q0,8.46,0,16.92c0,.31.07.38.38.38,2.49,0,5,0,7.46,0,.4,0,.48-.11.48-.48q0-28.83,0-57.64C224.17,46.07,224.18,45.91,224.19,45.75ZM185,64.64a11.13,11.13,0,0,1-.64,3.07,4,4,0,0,1-3.45,2.8,6.63,6.63,0,0,1-4.3-.77,6,6,0,0,1-2.72-4.27,10.18,10.18,0,0,1-.18-2.06,9,9,0,0,1,.76-3.86,5.36,5.36,0,0,1,6.1-2.88,4.76,4.76,0,0,1,2.75,2A8.35,8.35,0,0,1,185,64.64Zm8.39,26.69a19.48,19.48,0,0,1-7.2,5.58,24.76,24.76,0,0,1-6,1.7,46.59,46.59,0,0,1-9.51.51A42.41,42.41,0,0,1,158,96.79a12,12,0,0,1-4.19-2.38A4.66,4.66,0,0,1,152.54,89a3.53,3.53,0,0,1,3.4-2.36h40.53A26.54,26.54,0,0,1,193.42,91.33Z"/><path d="M304.91,51.09h2.26l22.93-.21a.67.67,0,0,1,.55.22l6.44,6.27.19.2H323.51c-.29,0-.36.07-.36.36q0,23.73,0,47.45v.36c-.12,0-.15-.08-.2-.13-2.11-2.09-4.21-4.18-6.33-6.26a.56.56,0,0,1-.14-.44c0-4.21,0-8.43-.05-12.64,0-1-.05-2-.13-2.93,0-.46,0-.47-.41-.22-2.5,1.77-4.95,3.61-7.29,5.6a4.89,4.89,0,0,0-.83.87,1.4,1.4,0,0,0-.29,1.16,8.76,8.76,0,0,1-.17,2.93,20.55,20.55,0,0,1-1.65,5.43,11.45,11.45,0,0,1-5.21,5.22,14.46,14.46,0,0,1-7.39,1.6,17.6,17.6,0,0,1-4.76-1A29.27,29.27,0,0,1,279,99.69a98.88,98.88,0,0,1-7.93-7.25c-1.27-1.27-2.55-2.53-3.75-3.88a1.25,1.25,0,0,1-.13-1.75c.31-.47.7-.88,1-1.33.15-.19.23,0,.3.06l3.91,3.86c1.89,1.85,3.76,3.73,5.76,5.46a21.24,21.24,0,0,0,4.59,3.23,11.87,11.87,0,0,0,4.07,1.12,17,17,0,0,0,3.77,0,8.84,8.84,0,0,0,4.62-2,16.19,16.19,0,0,0,4.39-5.07,11,11,0,0,0,1.19-4.35,14.85,14.85,0,0,0-.42-5,8.21,8.21,0,0,0-1.65-3.18c-.29-.33-.58-.66-.85-1-.15-.19-.25-.21-.46-.07a22.16,22.16,0,0,1-3.77,2.13c-.82.34-1.68.57-2.53.86a.22.22,0,0,1-.27-.06c-1.76-1.81-3.65-3.48-5.24-5.45-.13-.16-.23-.33-.35-.49s-.1-.35.14-.43a12.19,12.19,0,0,1,1.15-.42A10.14,10.14,0,0,0,290.26,73,19,19,0,0,0,294.21,69a8.3,8.3,0,0,0,1.44-3.88,11.63,11.63,0,0,0-.16-4.32,3.76,3.76,0,0,0-1.75-2.59,5.42,5.42,0,0,0-2.19-.59,14.26,14.26,0,0,0-11,3.78c-.66.57-1.31,1.14-1.95,1.72-.14.12-.22.13-.36,0l-5.81-5.91c-.07-.07-.21-.12-.06-.25A34.89,34.89,0,0,1,276,53.78a15.71,15.71,0,0,1,7.57-2.63,13.88,13.88,0,0,1,7.7,1.49,19.38,19.38,0,0,1,4,2.93A25.66,25.66,0,0,1,300,60.91a14.24,14.24,0,0,1,2.1,6.12,14.72,14.72,0,0,1-.42,5.83,10,10,0,0,1-1.69,3.2c-.3.39-.29.4,0,.77,1.22,1.33,2.45,2.66,3.67,4,.17.19.26.17.45,0l12.12-9.15a.41.41,0,0,0,.19-.37q0-6.75.05-13.5c0-.24-.08-.29-.3-.29H311a.46.46,0,0,1-.39-.15L305,51.21Z"/><path d="M147.15,170.05c0-.23,0-.45,0-.68s0-.36,0-.53,0-.24,0-.36,0-.28,0-.41c-.07-.47-.14-.94-.2-1.41a25.13,25.13,0,0,0-3.69-10.22,16.82,16.82,0,0,0-3.6-4.11A10.63,10.63,0,0,0,134,150c-.13,0-.28,0-.42-.05h-1.22c-.15.06-.31,0-.46,0l-.66.09a10.33,10.33,0,0,0-5.69,2.93A13.65,13.65,0,0,0,123.3,156a12.9,12.9,0,0,0-1.14,2.51,11.17,11.17,0,0,0-.55,2.64c0,.11,0,.23,0,.34l0,.36c-.06.29,0,.58-.05.87a.59.59,0,0,1,0,.37c.08.24,0,.5.05.74a8.58,8.58,0,0,0,.16,1.35,12.87,12.87,0,0,0,.7,2.18,10.25,10.25,0,0,0,2,3.11,9.81,9.81,0,0,0,.88.82c.06,0,.16.08.12.2a.65.65,0,0,1-.7.42l-.16,0-3.17-.46-.09,0h-9.75c-.22,0-.23.1-.23.27,0,1.76,0,3.52,0,5.27,0,.24.07.28.29.28H134c.24,0,.3-.06.3-.3,0-1.61,0-3.22,0-4.83,0-.09,0-.19,0-.27a13.63,13.63,0,0,1-5.79-4.67,7.52,7.52,0,0,1-1-7,6.2,6.2,0,0,1,3.33-3.92,4.27,4.27,0,0,1,5,.84,10.45,10.45,0,0,1,2,2.88,22.66,22.66,0,0,1,2.14,7.8,31.49,31.49,0,0,1-.4,9.64,21.68,21.68,0,0,1-4.54,9.59,22.94,22.94,0,0,1-10.58,7.13,29.87,29.87,0,0,1-7.73,1.42,37.59,37.59,0,0,1-10.26-.72,24.22,24.22,0,0,1-9.89-4.54,20.21,20.21,0,0,1-6.6-8.88,24,24,0,0,1-1.42-9.12,11.18,11.18,0,0,1,.68-3.43c.06-.18.16-.18.31-.19s.21.06.25.2a8.16,8.16,0,0,0,3.35,4.64,11.58,11.58,0,0,0,11.75,1.14,12.48,12.48,0,0,0,8-10.77c0-.25,0-.5,0-.74a1.46,1.46,0,0,1,0-.51c-.07-.24,0-.49,0-.73s-.06-.34-.08-.51a11.27,11.27,0,0,0-1.06-3.82,13.47,13.47,0,0,0-3.47-4.49,12.37,12.37,0,0,0-3.83-2.27,16.82,16.82,0,0,0-2.71-.69c-.1-.05-.22,0-.33-.05l-.31,0c-.15-.05-.32,0-.48,0H99.13c-.17.06-.36,0-.54,0l-.82.1a15.41,15.41,0,0,0-5.4,1.74,17.23,17.23,0,0,0-3.52,2.58,23,23,0,0,0-2.5,2.81,24,24,0,0,0-2.68,4.49,22.16,22.16,0,0,0-1.06,2.85,23.61,23.61,0,0,0-.91,4.31c-.06.11,0,.23,0,.33l0,.24c0,.11,0,.24,0,.35v.29c0,.14,0,.29,0,.42l0,.48c-.06.22,0,.45,0,.67v2.49c.08.26,0,.54,0,.8s0,.33,0,.49,0,.32,0,.47v.35c.06.12,0,.24,0,.35v.2c.15.95.26,1.91.45,2.87a26.65,26.65,0,0,0,4.11,10A28.67,28.67,0,0,0,100,200.42a36.61,36.61,0,0,0,10,2.19,45.47,45.47,0,0,0,13.32-.7,30.21,30.21,0,0,0,12.92-6,28,28,0,0,0,8.51-11.26c.46-1.11.82-2.25,1.19-3.39,0-.05,0-.11,0-.16a36.49,36.49,0,0,0,1-4.87c.05-.11,0-.23.05-.34l0-.23c0-.12,0-.24,0-.36s0-.19,0-.28,0-.32,0-.48l0-.42c0-.18,0-.37,0-.55l0-.73C147.18,171.92,147.18,171,147.15,170.05ZM99.91,155.77a7,7,0,0,1,7.19,7.08,6.94,6.94,0,0,1-7.18,7.1,6.87,6.87,0,0,1-7-7.08A7,7,0,0,1,99.91,155.77Z"/><path d="M288,169.46a20.47,20.47,0,0,0-12.65-14A26,26,0,0,0,262.73,154a21.21,21.21,0,0,0-11.59,4.93,33.2,33.2,0,0,0-2.75,2.69l-.44-.5a20.49,20.49,0,0,0-7.14-5.29,24.09,24.09,0,0,0-8.84-2,31.69,31.69,0,0,0-10.75,1.08,4.57,4.57,0,0,1-3,0,28.16,28.16,0,0,0-7.7-1.11,27,27,0,0,0-11.06,1.57c-6.2,2.41-11,6.41-13.61,12.63a29.18,29.18,0,0,0-1.91,14.53,29.88,29.88,0,0,0,7,16.06c.22.26.36.24.61.07.51-.36,1-.7,1.57-1,1-.63,1-.62.34-1.6-3.05-4.78-5.27-9.87-5.61-15.63a22.48,22.48,0,0,1,3.05-13.26,17.94,17.94,0,0,1,10.3-8.38,24,24,0,0,1,9.72-.8,18.14,18.14,0,0,1,3,.54c-.08.06-.1.09-.13.1-5.94,3.26-9.54,8.36-11.44,14.73A22.9,22.9,0,0,0,202,183a20.63,20.63,0,0,0,3.13,8.72,15,15,0,0,0,9,6.66,18.72,18.72,0,0,0,10.15-.33,11.94,11.94,0,0,0,6.63-4.85c2-3,2.78-7.74.31-11.18a16.1,16.1,0,0,0-5.47-4.81,21.39,21.39,0,0,0-2.57-1.07,17.66,17.66,0,0,0,4-1.74,7.87,7.87,0,0,0,4-7.22,9.71,9.71,0,0,0-3.92-7.59,24.62,24.62,0,0,0-2.66-1.78,19.48,19.48,0,0,1,8.9-.14,13.31,13.31,0,0,1,9.94,7.78,21.3,21.3,0,0,1,1.67,8.67q0,11.67,0,23.33c0,.52.14.63.63.62,1.9,0,3.8,0,5.69,0,.55,0,.7-.1.7-.67q0-12.77,0-25.51a21.41,21.41,0,0,1,1-6.79,10.44,10.44,0,0,1,7.43-7.3,18.18,18.18,0,0,1,7.12-.41,14,14,0,0,1,6.25,2.16l-.23.2a32.18,32.18,0,0,0-8.48,9.48A27.32,27.32,0,0,0,261,183.2a19.11,19.11,0,0,0,2.68,10.41,10.31,10.31,0,0,0,5,4.54,12.81,12.81,0,0,0,10.81-.87,16.07,16.07,0,0,0,7.22-8A28,28,0,0,0,288,169.46Zm-63.48,18.87a7.09,7.09,0,0,1-5.58,5.42A9.72,9.72,0,0,1,209,190.6a14,14,0,0,1-3.37-7.58,27.69,27.69,0,0,1-.22-4.64c0-.37.11-.48.49-.48,1.51,0,3,0,4.83,0a39.71,39.71,0,0,1,6,.23,11,11,0,0,1,5.6,2.58A7.07,7.07,0,0,1,224.49,188.33ZM224,168.59a5.27,5.27,0,0,1-2.67,3.94,12.87,12.87,0,0,1-5.92,1.8c-3.16.28-6.32.06-9.55.14A20,20,0,0,1,217.54,160a.5.5,0,0,1,.48-.07,10.61,10.61,0,0,1,5.14,4.23A7,7,0,0,1,224,168.59ZM280,188.32a11.11,11.11,0,0,1-2.7,4.79,6.52,6.52,0,0,1-9.57-.58,12.72,12.72,0,0,1-2.56-6.65c-.9-8.44,2.15-15.34,8.26-21,.91-.85,1.87-1.63,2.85-2.41.32-.26.46-.19.68.12a22.64,22.64,0,0,1,3.71,9,37.3,37.3,0,0,1,.58,6.9A36.37,36.37,0,0,1,280,188.32Z"/></svg>