<svg xmlns="http://www.w3.org/2000/svg" xmlns:xlink="http://www.w3.org/1999/xlink" viewBox="0 0 1080 1080"><defs><style>.cls-1{isolation:isolate;}.cls-2{fill:url(#linear-gradient);}.cls-3{fill:url(#linear-gradient-2);}.cls-4{fill:#ead77a;}.cls-5{fill:#f7eba4;}.cls-6{font-size:32.91px;}.cls-6,.cls-9{font-family:Gilroy-ExtraBold, Gilroy;font-weight:800;}.cls-7{letter-spacing:-0.03em;}.cls-8{fill:#f9efbd;}.cls-9{font-size:19.81px;}.cls-10{letter-spacing:-0.03em;}.cls-11{letter-spacing:0em;}.cls-12{letter-spacing:-0.02em;}.cls-13{fill:#110812;}.cls-14,.cls-21,.cls-32,.cls-34,.cls-46,.cls-65,.cls-75{mix-blend-mode:multiply;}.cls-14{fill:url(#linear-gradient-3);}.cls-15{fill:#352d00;}.cls-16{fill:#d1d3d4;}.cls-17{fill:#443701;}.cls-18,.cls-19,.cls-20,.cls-23,.cls-27,.cls-29,.cls-30,.cls-31,.cls-35,.cls-36,.cls-37,.cls-38,.cls-40,.cls-41,.cls-42,.cls-43,.cls-44,.cls-52,.cls-53,.cls-54,.cls-56,.cls-57,.cls-58,.cls-69,.cls-77,.cls-78,.cls-79{mix-blend-mode:color-burn;}.cls-18{fill:url(#linear-gradient-4);}.cls-19{fill:url(#linear-gradient-5);}.cls-20{fill:url(#linear-gradient-6);}.cls-21{opacity:0.25;}.cls-22{fill:#cf3838;}.cls-23{fill:url(#linear-gradient-7);}.cls-24{fill:#ddc11d;}.cls-25{fill:url(#linear-gradient-8);}.cls-26{fill:#fec9c9;}.cls-27{fill:url(#linear-gradient-9);}.cls-28{fill:#ceae13;}.cls-29{fill:url(#linear-gradient-10);}.cls-30{fill:url(#linear-gradient-11);}.cls-31{fill:url(#linear-gradient-12);}.cls-32{opacity:0.15;}.cls-33{fill:#4c4005;}.cls-34{fill:url(#linear-gradient-13);}.cls-35{fill:url(#linear-gradient-14);}.cls-36{fill:url(#linear-gradient-15);}.cls-37,.cls-40,.cls-41,.cls-44,.cls-46,.cls-69,.cls-77,.cls-79{opacity:0.5;}.cls-37{fill:url(#linear-gradient-16);}.cls-38{fill:url(#linear-gradient-17);}.cls-39{fill:#a0870b;}.cls-40{fill:url(#linear-gradient-18);}.cls-41{fill:url(#linear-gradient-19);}.cls-42{fill:url(#linear-gradient-20);}.cls-43{fill:url(#linear-gradient-21);}.cls-44{fill:url(#linear-gradient-22);}.cls-45{fill:#2b2301;}.cls-47{fill:#582f5c;}.cls-48{fill:url(#linear-gradient-23);}.cls-49{fill:url(#linear-gradient-24);}.cls-50{fill:url(#linear-gradient-25);}.cls-51{fill:url(#linear-gradient-26);}.cls-52{fill:url(#linear-gradient-27);}.cls-53{fill:url(#linear-gradient-28);}.cls-54{fill:url(#linear-gradient-29);}.cls-55{fill:#f4b8b8;}.cls-56{fill:url(#linear-gradient-30);}.cls-57{fill:url(#linear-gradient-31);}.cls-58{fill:url(#linear-gradient-32);}.cls-59{fill:#aa8b09;}.cls-60{fill:url(#linear-gradient-33);}.cls-61{fill:url(#linear-gradient-34);}.cls-62{fill:url(#linear-gradient-35);}.cls-63{fill:url(#linear-gradient-36);}.cls-64{fill:#fa4f47;}.cls-65{fill:url(#linear-gradient-37);}.cls-66{fill:#f7df32;}.cls-67{fill:#e5c928;}.cls-68{fill:url(#linear-gradient-38);}.cls-69{fill:url(#linear-gradient-39);}.cls-70{fill:#ccb00d;}.cls-71{fill:url(#linear-gradient-40);}.cls-72{fill:url(#linear-gradient-41);}.cls-73{fill:#f1f2f2;}.cls-74{fill:#fff;}.cls-75{fill:url(#linear-gradient-42);}.cls-76{fill:#a08305;}.cls-77{fill:url(#linear-gradient-43);}.cls-78{fill:url(#linear-gradient-44);}.cls-79{fill:url(#linear-gradient-45);}.cls-80{fill:url(#linear-gradient-46);}</style><linearGradient id="linear-gradient" x1="100.33" y1="589.96" x2="1027.55" y2="589.96" gradientUnits="userSpaceOnUse"><stop offset="0" stop-color="#e6e7e8"/><stop offset="1" stop-color="#d1d3d4"/></linearGradient><linearGradient id="linear-gradient-2" x1="101.48" y1="571.8" x2="1027.18" y2="571.8" gradientUnits="userSpaceOnUse"><stop offset="0" stop-color="#fff"/><stop offset="1" stop-color="#d1d3d4"/></linearGradient><linearGradient id="linear-gradient-3" x1="-3561.85" y1="572.49" x2="-3533.71" y2="572.49" gradientTransform="matrix(-1, 0, 0, 1, -3006.19, 0)" gradientUnits="userSpaceOnUse"><stop offset="0.01" stop-color="#ebeaf0"/><stop offset="0.99" stop-color="#e5e4ec"/></linearGradient><linearGradient id="linear-gradient-4" x1="432.98" y1="516.05" x2="467.4" y2="516.05" gradientTransform="matrix(1, 0, 0, 1, 0, 0)" xlink:href="#linear-gradient-3"/><linearGradient id="linear-gradient-5" x1="459.35" y1="500.63" x2="489.88" y2="500.63" gradientTransform="matrix(1, 0, 0, 1, 0, 0)" xlink:href="#linear-gradient-3"/><linearGradient id="linear-gradient-6" x1="467.03" y1="454.56" x2="458.46" y2="454.72" gradientTransform="matrix(1, 0, 0, 1, 0, 0)" xlink:href="#linear-gradient-3"/><linearGradient id="linear-gradient-7" x1="443.73" y1="449.07" x2="431.77" y2="449.31" gradientTransform="matrix(1, 0, 0, 1, 0, 0)" xlink:href="#linear-gradient-3"/><linearGradient id="linear-gradient-8" x1="477.43" y1="353" x2="458.37" y2="353.79" gradientUnits="userSpaceOnUse"><stop offset="0" stop-color="#fdb569"/><stop offset="1" stop-color="#ff645f"/></linearGradient><linearGradient id="linear-gradient-9" x1="451.03" y1="353.98" x2="433.44" y2="352.92" gradientTransform="matrix(1, 0, 0, 1, 0, 0)" xlink:href="#linear-gradient-3"/><linearGradient id="linear-gradient-10" x1="432.02" y1="354.57" x2="481.37" y2="355.07" gradientTransform="matrix(1, 0, 0, 1, 0, 0)" xlink:href="#linear-gradient-3"/><linearGradient id="linear-gradient-11" x1="429.9" y1="370.4" x2="464.69" y2="363.6" gradientTransform="matrix(1, 0, 0, 1, 0, 0)" xlink:href="#linear-gradient-3"/><linearGradient id="linear-gradient-12" x1="476.36" y1="354.14" x2="437.81" y2="352.97" gradientTransform="matrix(1, 0, 0, 1, 0, 0)" xlink:href="#linear-gradient-3"/><linearGradient id="linear-gradient-13" x1="-3528.2" y1="548.19" x2="-3497.73" y2="548.19" xlink:href="#linear-gradient-3"/><linearGradient id="linear-gradient-14" x1="377.76" y1="538.26" x2="399.08" y2="538.26" gradientTransform="matrix(1, 0, 0, 1, 0, 0)" xlink:href="#linear-gradient-3"/><linearGradient id="linear-gradient-15" x1="400.58" y1="527.22" x2="422.21" y2="527.22" gradientTransform="matrix(1, 0, 0, 1, 0, 0)" xlink:href="#linear-gradient-3"/><linearGradient id="linear-gradient-16" x1="419.19" y1="384.37" x2="406.21" y2="388.48" gradientTransform="matrix(1, 0, 0, 1, 0, 0)" xlink:href="#linear-gradient-3"/><linearGradient id="linear-gradient-17" x1="429.62" y1="388.02" x2="428.11" y2="385.91" gradientTransform="matrix(1, 0, 0, 1, 0, 0)" xlink:href="#linear-gradient-3"/><linearGradient id="linear-gradient-18" x1="418.76" y1="421.96" x2="373.93" y2="427.45" gradientTransform="matrix(1, 0, 0, 1, 0, 0)" xlink:href="#linear-gradient-3"/><linearGradient id="linear-gradient-19" x1="397.51" y1="352.16" x2="411.35" y2="352.16" gradientTransform="matrix(1, 0, 0, 1, 0, 0)" xlink:href="#linear-gradient-3"/><linearGradient id="linear-gradient-20" x1="437.6" y1="370.4" x2="444.04" y2="370.4" gradientTransform="matrix(1, 0, 0, 1, 0, 0)" xlink:href="#linear-gradient-3"/><linearGradient id="linear-gradient-21" x1="383.85" y1="407.37" x2="364.17" y2="407.13" gradientTransform="matrix(1, 0, 0, 1, 0, 0)" xlink:href="#linear-gradient-3"/><linearGradient id="linear-gradient-22" x1="379.2" y1="349.29" x2="406.2" y2="349.29" gradientTransform="matrix(1, 0, 0, 1, 0, 0)" xlink:href="#linear-gradient-3"/><linearGradient id="linear-gradient-23" x1="387.65" y1="543.35" x2="397.26" y2="543.35" xlink:href="#linear-gradient"/><linearGradient id="linear-gradient-24" x1="397.26" y1="546.34" x2="403.7" y2="546.34" xlink:href="#linear-gradient"/><linearGradient id="linear-gradient-25" x1="526.7" y1="615.93" x2="536.31" y2="615.93" xlink:href="#linear-gradient"/><linearGradient id="linear-gradient-26" x1="536.31" y1="619.68" x2="542.75" y2="619.68" xlink:href="#linear-gradient"/><linearGradient id="linear-gradient-27" x1="628.4" y1="482.23" x2="639.13" y2="482.23" gradientTransform="matrix(1, 0, 0, 1, 0, 0)" xlink:href="#linear-gradient-3"/><linearGradient id="linear-gradient-28" x1="647.46" y1="501.41" x2="662.88" y2="501.41" gradientTransform="matrix(1, 0, 0, 1, 0, 0)" xlink:href="#linear-gradient-3"/><linearGradient id="linear-gradient-29" x1="631.31" y1="387.49" x2="666.17" y2="387.49" gradientTransform="matrix(1, 0, 0, 1, 0, 0)" xlink:href="#linear-gradient-3"/><linearGradient id="linear-gradient-30" x1="630.95" y1="412.85" x2="664.68" y2="412.85" gradientTransform="matrix(1, 0, 0, 1, 0, 0)" xlink:href="#linear-gradient-3"/><linearGradient id="linear-gradient-31" x1="663.13" y1="385.07" x2="680.47" y2="385.07" gradientTransform="matrix(1, 0, 0, 1, 0, 0)" xlink:href="#linear-gradient-3"/><linearGradient id="linear-gradient-32" x1="623.68" y1="378.29" x2="637.79" y2="378.29" gradientTransform="matrix(1, 0, 0, 1, 0, 0)" xlink:href="#linear-gradient-3"/><linearGradient id="linear-gradient-33" x1="631.8" y1="559.29" x2="641.41" y2="559.29" xlink:href="#linear-gradient"/><linearGradient id="linear-gradient-34" x1="641.41" y1="562.28" x2="647.85" y2="562.28" xlink:href="#linear-gradient"/><linearGradient id="linear-gradient-35" x1="360.34" y1="507.87" x2="671.05" y2="507.87" gradientUnits="userSpaceOnUse"><stop offset="0" stop-color="#bcbec0"/><stop offset="1" stop-color="#6d6e71"/></linearGradient><linearGradient id="linear-gradient-36" x1="360.79" y1="500.99" x2="670.6" y2="500.99" gradientUnits="userSpaceOnUse"><stop offset="0" stop-color="#d1d3d4"/><stop offset="1" stop-color="#939598"/></linearGradient><linearGradient id="linear-gradient-37" x1="-3528.45" y1="463.2" x2="-3541.75" y2="462.1" xlink:href="#linear-gradient-3"/><linearGradient id="linear-gradient-38" x1="440.7" y1="486.26" x2="491.15" y2="486.26" xlink:href="#linear-gradient"/><linearGradient id="linear-gradient-39" x1="-3557.32" y1="396.64" x2="-3604.93" y2="392.71" xlink:href="#linear-gradient-3"/><linearGradient id="linear-gradient-40" x1="516.41" y1="486.5" x2="504.03" y2="465.06" gradientUnits="userSpaceOnUse"><stop offset="0" stop-color="#bcbec0"/><stop offset="1" stop-color="#f1f2f2"/></linearGradient><linearGradient id="linear-gradient-41" x1="539.51" y1="500.41" x2="527.13" y2="478.97" gradientUnits="userSpaceOnUse"><stop offset="0" stop-color="#f1f2f2"/><stop offset="1" stop-color="#a7a9ac"/></linearGradient><linearGradient id="linear-gradient-42" x1="-3555.68" y1="475.3" x2="-3568.97" y2="474.2" xlink:href="#linear-gradient-3"/><linearGradient id="linear-gradient-43" x1="664.06" y1="513.58" x2="650.1" y2="515.53" gradientTransform="matrix(1, 0, 0, 1, 0, 0)" xlink:href="#linear-gradient-3"/><linearGradient id="linear-gradient-44" x1="613.25" y1="605.73" x2="602.23" y2="607.18" gradientTransform="matrix(1, 0, 0, 1, 0, 0)" xlink:href="#linear-gradient-3"/><linearGradient id="linear-gradient-45" x1="618.83" y1="536.82" x2="601.53" y2="537.2" gradientTransform="matrix(1, 0, 0, 1, 0, 0)" xlink:href="#linear-gradient-3"/><linearGradient id="linear-gradient-46" x1="543.92" y1="522.74" x2="579.23" y2="522.74" xlink:href="#linear-gradient"/></defs><title>our</title><g class="cls-1"><g id="Layer_1" data-name="Layer 1"><path class="cls-2" d="M103.78,565.12,557.12,320.93,1026.73,572c2.76,1.6-2.14,22.8-4.9,24.39L566.91,858.08a6.9,6.9,0,0,1-6.88,0L103.78,594.63C99.18,592,99.18,567.77,103.78,565.12Z"/><path class="cls-3" d="M104.54,564.66l451-260.44a6.89,6.89,0,0,1,6.89,0l463.32,267.53a2.77,2.77,0,0,1,0,4.8l-457,262.83a6.9,6.9,0,0,1-6.88,0l-457.4-264.1A6.13,6.13,0,0,1,104.54,564.66Z"/><path class="cls-4" d="M674.39,290.3l-7-128.21c0-2.75,10-8.53,12.39-7.16l224,129.34a11,11,0,0,1,5.5,9.49l.46,130.42c0,3.42-9.82,11.23-12.78,9.53L679.66,299.41A10.52,10.52,0,0,1,674.39,290.3Z"/><path class="cls-5" d="M667.21,295.37V163.09a3.57,3.57,0,0,1,5.36-3.09l224,129.34a11,11,0,0,1,5.5,9.49l.46,130.41a4.45,4.45,0,0,1-6.66,3.87L672.48,304.48A10.52,10.52,0,0,1,667.21,295.37Z"/><text class="cls-6" transform="matrix(0.65, 0.38, -0.08, 1, 719.11, 270.18)">X2+2x<tspan class="cls-7" x="85.71" y="0">y</tspan><tspan x="102.17" y="0">+4 = ?</tspan></text><path class="cls-4" d="M109.34,320.43l2.16,111.14c.08,4.6,7.18,9.83,11.17,7.52L269,350.86a6.07,6.07,0,0,0,3-5.37l.66-110.39c-.09-4.61-8-8.23-12-5.92l-148.29,85.9A6.06,6.06,0,0,0,109.34,320.43Z"/><path class="cls-8" d="M112.39,322.39l2.15,111.14a6.06,6.06,0,0,0,9.09,5.12L272,352.82a6.07,6.07,0,0,0,3-5.36l-2.25-111.2a6,6,0,0,0-9.08-5.11L115.41,317A6.06,6.06,0,0,0,112.39,322.39Z"/><path class="cls-4" d="M305.88,205.54l2.24,115.83c.06,3,5.8,7.24,8.44,5.72l150-90.52a4,4,0,0,0,2-3.54L469,118.14c-.06-3-6.16-5.9-8.8-4.38L307.88,202A4,4,0,0,0,305.88,205.54Z"/><path class="cls-8" d="M308.85,207.62l2.24,115.83a4,4,0,0,0,6,3.38l152.45-88.18a4,4,0,0,0,2-3.54l-2.34-115.89a4,4,0,0,0-6-3.38L310.84,204.08A4,4,0,0,0,308.85,207.62Z"/><text class="cls-9" transform="matrix(0.69, -0.41, 0.06, 1, 154.06, 354.72)">a2+b3<tspan class="cls-10" x="49.78" y="0">+</tspan><tspan class="cls-11" x="60.27" y="0">c4 = ?</tspan><tspan x="0" y="23.77">x2+y2</tspan><tspan class="cls-12" x="46.39" y="23.77">+x</tspan><tspan x="67.19" y="23.77">+2</tspan><tspan class="cls-12" x="88.84" y="23.77">x</tspan><tspan x="98.94" y="23.77">=? </tspan></text><text class="cls-9" transform="matrix(0.7, -0.39, 0.03, 1, 364.43, 234.44)">C4H10 = ?<tspan x="0" y="23.77">C3H4O2 = ? </tspan></text><path class="cls-13" d="M518.31,583.46c.51,1.19,4.83,1.37,9.22,1.14a55.42,55.42,0,0,0,9.37-1.14c2.51-.78,18-15.1,18.63-16.26s-1.2-6-1.2-6l-8.17-.82-7.26-.72s-8,9.48-10,11.23S517.34,581.16,518.31,583.46Z"/><path class="cls-13" d="M491.54,559c.48,1.37,1.09,2.38,1.62,2.57,1.52.51,16.75-11.84,18.25-14s10-3.21,10.51-4.58-1.18-5.53-1.18-5.53a46.85,46.85,0,0,0-6.75-2.55c-3.67-1.06-7.62-1.52-8.47,1-1.7,4.9-12.53,12.85-14.22,15.4C490.19,552.85,490.67,556.48,491.54,559Z"/><path class="cls-14" d="M527.53,584.6a55.42,55.42,0,0,0,9.37-1.14c2.51-.78,18-15.1,18.63-16.26s-1.2-6-1.2-6l-8.17-.82c-1.88,4.5-6.24,14.2-10.42,17.91A84.36,84.36,0,0,1,527.53,584.6Z"/><polygon class="cls-15" points="563.01 514.06 518.33 488.3 518.33 478.99 563.15 505.1 563.01 514.06"/><ellipse class="cls-16" cx="402.06" cy="532.17" rx="44.58" ry="22.41" transform="translate(-174.33 196.57) rotate(-22.72)"/><polygon class="cls-17" points="559.22 387.24 559.22 454.57 515.56 478.69 512.28 480.45 563.15 505.1 608.14 479.39 608.14 408.53 575 387.82 560.21 387.82 559.22 387.24"/><polygon class="cls-15" points="614.17 405.19 614.17 475.67 614.17 484.58 563.01 514.06 563.15 505.1 608.14 479.39 608.14 408.53 614.17 405.19"/><polygon class="cls-15" points="614.17 484.58 614.17 547.98 609.58 550.63 609.58 486.77 614.17 484.58"/><polygon class="cls-15" points="604.3 548.29 609.58 550.63 609.58 484.58 604.3 487.07 604.3 548.29"/><polygon class="cls-15" points="574.35 506.43 574.35 569.84 569.76 572.49 569.76 508.62 574.35 506.43"/><polygon class="cls-15" points="564.48 570.15 569.76 572.49 569.76 506.43 564.48 508.92 564.48 570.15"/><ellipse class="cls-16" cx="652.36" cy="556.34" rx="37.9" ry="16.88"/><path class="cls-13" d="M467.4,525.2l-.62.21a25.41,25.41,0,0,1-7.34.74c-8.28-.17-20.51-8.51-24.91-11.72A3.76,3.76,0,0,1,433,510.9a29.59,29.59,0,0,1,1.09-5h15.36s18.93,14.21,20.3,15.57C470.63,522.37,470.36,524.09,467.4,525.2Z"/><path class="cls-18" d="M467.4,525.2l-.62.21a25.41,25.41,0,0,1-7.34.74c-8.28-.17-20.51-8.51-24.91-11.72A3.76,3.76,0,0,1,433,510.9a29.59,29.59,0,0,1,1.09-5h5.35l-.19,5.78S452,525.11,467.4,525.2Z"/><path class="cls-13" d="M489.88,510.36a2.36,2.36,0,0,1-.44.32c-2.27,1.07-14.54-6.75-18.2-8.73s-11.26-4-11.8-5.15,1.81-6.32,1.81-6.32h13s15.25,9.68,16.61,11.89C492.18,504.42,491.63,508.79,489.88,510.36Z"/><path class="cls-19" d="M489.88,510.36a2.36,2.36,0,0,1-.44.32c-2.27,1.07-14.54-6.75-18.2-8.73s-11.26-4-11.8-5.15,1.81-6.32,1.81-6.32h2.68l5,3.43S485.52,505.28,489.88,510.36Z"/><path class="cls-15" d="M475.45,387.56l-6.25.06-17.84.17s0,.18,0,.49l-12.48-1.12-5-.46s-3,10.14-2.46,19.47c.35,5.95,2,19.51,3.42,30.17a116.45,116.45,0,0,1,.47,26.91c-1.22,12.39-2.71,30.71-2.37,43.62,0,1.3.82,2.58,2.52,3.56a10.74,10.74,0,0,0,3.85,1.29,13.84,13.84,0,0,0,7.26-.75,7.15,7.15,0,0,0,1.07-.54c1.7-1,2.53-2.24,2.53-3.51,0,0,4.7-49.76,6.61-57.56.47-1.91,1-5.26,1.47-9.24.9,3.93,1.52,6.59,1.52,6.59l-.28,44.47c0,1.26.83,2.54,2.53,3.51a11.07,11.07,0,0,0,4,1.3,15.09,15.09,0,0,0,4.5,0,10.76,10.76,0,0,0,3.72-1.26c1.7-1,2.53-2.25,2.53-3.51,0,0,2-46.13,2.71-57.89S475.45,387.56,475.45,387.56Z"/><path class="cls-20" d="M465.93,496a11.07,11.07,0,0,1-4-1.3c-1.7-1-2.53-2.25-2.53-3.51l.28-44.47s-.62-2.66-1.52-6.59c-1.24-5.46,2.71-26.85,2.71-26.85l4.46,33.6Z"/><g class="cls-21"><path class="cls-22" d="M445.22,372.11l-.1-.25A1,1,0,0,0,445.22,372.11Z"/></g><path class="cls-23" d="M439.26,511.72a10.74,10.74,0,0,1-3.85-1.29c-1.7-1-2.53-2.26-2.52-3.56-.34-12.91,1.15-31.23,2.37-43.62a116.45,116.45,0,0,0-.47-26.91c-1.43-10.66-3.07-24.22-3.42-30.17-.54-9.33,2.46-19.47,2.46-19.47l5,.46,2.64,2a559.5,559.5,0,0,0,1.86,57.61C445.33,468.08,441.4,497.85,439.26,511.72Z"/><path class="cls-24" d="M464.3,337.8l-6.31.9s12.37,24,14.64,28a7.31,7.31,0,0,0,2.49,2.68c.1,9.28.33,18.21.33,18.21l-4.07,1.6L466.65,391c-5.6,2.17-14.17,1.93-21.38,1.14A127.24,127.24,0,0,1,432,389.94l-6-63.59a40.73,40.73,0,0,1,14.73-10.14c1.06-.43,2.16-.82,3.33-1.17.37-.11.74-.22,1.13-.32,8.3-2.2,17.17-1.36,21.92-.64,2.16.33,3.46.64,3.46.64.81,1.94,1.53,3.76,2.15,5.5,5.37,14.93,4.17,23.09,3.22,27.23l-6.51-10.36-4,.56Z"/><path class="cls-25" d="M475.86,347.45c-.15.67-.29,1.23-.41,1.7-.43,1.83-.44,11.19-.33,20.2a7.31,7.31,0,0,1-2.49-2.68c-2.27-3.95-14.64-28-14.64-28l6.31-.9,1.07-.15,4-.56Z"/><path class="cls-26" d="M460.67,309.93v13.7l-1.47,9.84a24,24,0,0,1-5.95-4.33,83.37,83.37,0,0,1-9.63-11.35c-.94-1.32-1.49-2.15-1.49-2.15l5.12-6.8,3.08.17,9,.5Z"/><path class="cls-27" d="M451.17,350.61c-2.2.46-4.39,1.27-4.73,2.61-.61,2.33-1,29-1.17,38.93A127.24,127.24,0,0,1,432,389.94l-6-63.59a40.73,40.73,0,0,1,14.73-10.14c1.06-.43,2.16-.82,3.33-1.17l1.14,1.28-1.5,1.47s-10.12,5-12.92,8.59c0,0,9.89,9.57,12.37,17.77C444.82,349.88,447.59,350.82,451.17,350.61Z"/><path class="cls-28" d="M476.68,370.07c-1.41,2.39-14.65,8.92-24.75,12a38.62,38.62,0,0,1-7.13,1.59,9.28,9.28,0,0,1-2.67,0c-7.18-1.3-18.5-29.75-19.43-41.43s1.3-15.86,5.27-16.69a2.59,2.59,0,0,1,.35.09c.19.05.46.12.77.22a.47.47,0,0,1,.19.06,2.13,2.13,0,0,1,.33.11c.57.19,1.11.39,1.7.65,4.48,2,11.76,6.91,10.82,18.21l4.14,24.48,25-9.43a31.13,31.13,0,0,1,3,3.24,14.5,14.5,0,0,1,2.49,4.17A3.3,3.3,0,0,1,476.68,370.07Z"/><path class="cls-29" d="M451.93,382.06a38.62,38.62,0,0,1-7.13,1.59,9.28,9.28,0,0,1-2.67,0c-7.18-1.3-18.5-29.75-19.43-41.43s1.3-15.86,5.27-16.69a2.59,2.59,0,0,1,.35.09c.19.05.46.12.77.22a.47.47,0,0,1,.19.06,2.13,2.13,0,0,1,.33.11c.57.19,1.11.39,1.7.65,0,0,5.09,48.24,10.82,53C444.1,381.22,447.86,381.89,451.93,382.06Z"/><path class="cls-30" d="M474.28,363.12c-9.94,3.72-28,6.19-28,6.19l25-9.43A31.13,31.13,0,0,1,474.28,363.12Z"/><path class="cls-28" d="M481.29,368.92a5.67,5.67,0,0,1-1.84,1,4.73,4.73,0,0,1-1.61.27,5.32,5.32,0,0,1-2.72-.82,7.31,7.31,0,0,1-2.49-2.68c-2.27-3.95-14.64-28-14.64-28l6.31-.9,1.07-.15,4-.56,6.51,10.36c.95-4.14,2.15-12.3-3.22-27.23-.62-1.74-1.34-3.56-2.15-5.5,0,0,9.68,8.81,12.12,28.4S483.93,366.85,481.29,368.92Z"/><path class="cls-31" d="M479.45,369.9a4.73,4.73,0,0,1-1.61.27c-1.9,0-3.83-1.1-5.21-3.5-2.27-3.95-14.64-28-14.64-28l6.31-.9C466.74,344.26,474.33,362.71,479.45,369.9Z"/><g class="cls-32"><path class="cls-22" d="M450.33,309l-6.71,8.78c-.94-1.32-1.49-2.15-1.49-2.15l5.12-6.8Z"/></g><path class="cls-26" d="M471.19,307.71c-.14.37-.26.76-.4,1.13-2,5.62-4.91,12-8.24,13.66,0,0-.71-.07-1.82-.27-.76-.15-1.71-.36-2.76-.64-3-.79-6.81-2.2-8.9-4.64a1.42,1.42,0,0,1-.13-.12,18.23,18.23,0,0,1-1-5.45s-2.49.51-2.64-.22c0-.16.57-2.9.55-3a.91.91,0,0,1-.08-.36c-.17-1.47-1.5-10.1.62-10.31,2.32-.23,5.81.31,7.65-.94a9.37,9.37,0,0,1,2.3-1.44,16.73,16.73,0,0,1,2.37-.79c3.14.34,7.16,4.92,9.39,5.94.18.06.35.12.51.19a5.21,5.21,0,0,0,2.51-.07,1.76,1.76,0,0,0,.27-.07,1.51,1.51,0,0,1,.4-.05C474.65,300.25,471.19,307.71,471.19,307.71Z"/><g class="cls-32"><path class="cls-22" d="M462.55,322.5s-.71-.07-1.82-.27c-.76-.15-1.71-.36-2.76-.64-3-.79-6.81-2.2-8.9-4.64a1.42,1.42,0,0,1-.13-.12,18.23,18.23,0,0,1-1-5.45s-2.49.51-2.64-.22c0-.16.57-2.9.55-3a.91.91,0,0,1-.08-.36c-.17-1.47-1.5-10.1.62-10.31,2.32-.23,5.81.31,7.65-.94a9.37,9.37,0,0,1,2.3-1.44c-1,6.2-3.43,20.47-2.63,22.64C454.77,320.58,462.55,322.5,462.55,322.5Z"/></g><path class="cls-33" d="M459.31,339.7a5.11,5.11,0,0,0,.8.31,11.06,11.06,0,0,0,7.62-.31,3.51,3.51,0,0,0,1.47-1.17c.54-.85.28-1.78-.8-2.51a4.72,4.72,0,0,0-.67-.39,11,11,0,0,0-8.42,0c-1,.51-1.61,1.14-1.72,1.8C457.45,338.25,458,339.08,459.31,339.7Z"/><path class="cls-26" d="M469.19,338.53a3.57,3.57,0,0,1-1.45,1.17l-.18.06a7.82,7.82,0,0,1-1.39.47,11.37,11.37,0,0,1-6.05-.22l-1.05-1.64a6.37,6.37,0,0,0-3-2.51,3.77,3.77,0,0,1-1-2.57v-2a6.58,6.58,0,0,1,1.61-4.31l2.42-2.74s-2.79-7.21-1.06-6.4,5.79,7.54,6,7.95c0,0-.5-3.95-.5-3.95l.85-.94,1.46-1.62c1.17,3.31,2.52,11.42,2.23,13.46a9.41,9.41,0,0,0,.32,3.27A16,16,0,0,0,469.19,338.53Z"/><g class="cls-32"><path class="cls-22" d="M464,325.82l-.51-4,.85-.94A11.69,11.69,0,0,1,464,325.82Z"/></g><g class="cls-32"><path class="cls-22" d="M466.17,340.23a11.37,11.37,0,0,1-6.05-.22l-1.05-1.64a6.37,6.37,0,0,0-3-2.51,3.77,3.77,0,0,1-1-2.57v-2a6.58,6.58,0,0,1,1.61-4.31l2.42-2.74s-2.79-7.21-1.06-6.4C458.17,318.41,463.23,333.23,466.17,340.23Z"/></g><path d="M445.41,312.35s.77-8.66.82-10.41,3.27-2.37,3.27-2.37,1.9-.48,1.44,2.37-.61,4.89-.61,4.89l1.59.51s3.49-3.35,5.65-10.42c0,0,9.23,6.44,15,5l-1.77,6.9a61.87,61.87,0,0,0,4-9s4.86-7.12.28-11.84-16.16-.73-16.76-4.72-11.71-1.13-13.09.8-5.07,6.39-3.68,12.73,3.18,15.37,3.18,15.37Z"/><path class="cls-34" d="M491.54,559c.48,1.37,1.09,2.38,1.62,2.57,1.52.51,16.75-11.84,18.25-14s10-3.21,10.51-4.58-1.18-5.53-1.18-5.53a46.85,46.85,0,0,0-6.75-2.55,26.5,26.5,0,0,1-6.19,10.46C503.33,549.81,494.38,556.79,491.54,559Z"/><path class="cls-13" d="M401.59,545.48a3.64,3.64,0,0,1-2.51,1,41.72,41.72,0,0,1-9.81.06c-2.25-.35-11.34-7.87-11.5-9.91s1.83-7,1.83-7h7.58s3.82,4,6.07,7S402.6,543.76,401.59,545.48Z"/><path class="cls-35" d="M399.08,546.51a41.72,41.72,0,0,1-9.81.06c-2.25-.35-11.34-7.87-11.5-9.91s1.83-7,1.83-7h2.31l.42,2.12s4.48,12.16,7.39,13.27C391.42,545.75,395.74,546.22,399.08,546.51Z"/><path class="cls-13" d="M422.21,535.54c-1.91,1.17-7.61-.39-8.11-.74s-3.89-5.4-7.71-7.28-5.38-2.23-5.78-3.71,2.92-5.33,2.92-5.33h7.58s5.64,6,8.21,8.06S424.12,534.4,422.21,535.54Z"/><path class="cls-36" d="M422.21,535.54c-1.91,1.17-7.61-.39-8.11-.74s-3.89-5.4-7.71-7.28-5.38-2.23-5.78-3.71,2.92-5.33,2.92-5.33h1l1.43,2.07s6.52,6.57,7.79,9.14S416.56,535.73,422.21,535.54Z"/><path class="cls-26" d="M392.24,495.56c-1.43,3.63-5.7,24.17-5.06,34.13a1.9,1.9,0,0,1-1.11,1.56,6,6,0,0,1-3.74.56,5.09,5.09,0,0,1-1.62-.56,1.9,1.9,0,0,1-1.11-1.56s.93-23.37,0-30.34S384.5,478,384.5,478l4.69,2.41,5.86,3S393.65,491.93,392.24,495.56Z"/><path class="cls-26" d="M416.17,484.35c-1.43,3.63-5.7,24.19-5.06,34.13A1.88,1.88,0,0,1,410,520a6,6,0,0,1-4,.51,4.77,4.77,0,0,1-1.35-.51,1.87,1.87,0,0,1-1.11-1.56s.93-23.37,0-30.34,4.9-21.33,4.9-21.33l4.08,2.1,6.47,3.33S417.57,480.72,416.17,484.35Z"/><g class="cls-32"><path class="cls-22" d="M407.58,492.7c.35,8.37-1.06,22.6-1.59,27.85a4.77,4.77,0,0,1-1.35-.51,1.87,1.87,0,0,1-1.11-1.56s.93-23.37,0-30.34,4.9-21.33,4.9-21.33l4.08,2.1C410.52,474.76,407.29,485.47,407.58,492.7Z"/></g><g class="cls-32"><path class="cls-22" d="M383.79,505.52c.29,7.66-.85,20.17-1.46,26.29a5.09,5.09,0,0,1-1.62-.56,1.9,1.9,0,0,1-1.11-1.56s.93-23.37,0-30.34S384.5,478,384.5,478l4.69,2.41C387.26,485.86,383.47,497.71,383.79,505.52Z"/></g><path class="cls-28" d="M439.64,388.2s-10.25,11.68-16.95,14.07a4.82,4.82,0,0,1-3.26.29c-5.83-2-12.64-29-12.64-29V360s2.94-1.72,9.06,12.46,6.36,18.41,6.36,18.41L433.73,381l2,2.38Z"/><path class="cls-37" d="M422.69,402.27a4.82,4.82,0,0,1-3.26.29c-5.83-2-12.64-29-12.64-29v-4.29c2.49,7.47,9.8,28.77,13.06,31.05C421,401.13,421.94,401.76,422.69,402.27Z"/><path class="cls-38" d="M435.7,383.37c-3.18,2.28-12.78,7.13-13.47,7.48l11.5-9.86Z"/><path class="cls-39" d="M440.16,386.66a1.81,1.81,0,0,1-2.54,1.91,4.51,4.51,0,0,1-1-.43,7.67,7.67,0,0,1-3.27-4.13,4.42,4.42,0,0,1-.24-1.39c0-1.19.6-1.91,1.52-2a3.2,3.2,0,0,1,2,.52,7.61,7.61,0,0,1,3.42,4.66A5.13,5.13,0,0,1,440.16,386.66Z"/><path class="cls-26" d="M445.87,372.88c-.08,2.49-2.76,11-4.19,11.74a8.11,8.11,0,0,0-1.61,1.17,13.76,13.76,0,0,0-1.59,1.72c-.08.08-.45.53-.85,1.06a5.86,5.86,0,0,1-1-.43,7.6,7.6,0,0,1-2.62-2.72,7.39,7.39,0,0,1-.64-1.41,7,7,0,0,0,1.38-1.75,5.45,5.45,0,0,0-.11-1.64,17.83,17.83,0,0,1,0-4.37c.43-2.81,1.36-5.12,1.94-5,.13,0,.24.16.34.45a18.85,18.85,0,0,1,.61,2.36s1.8-1.88,2-3.1a6.49,6.49,0,0,1,2-3.63,2.81,2.81,0,0,1,2.41-.56A12.69,12.69,0,0,1,445.87,372.88Z"/><path class="cls-24" d="M422.18,471.93l0,3.12c0,3.82-2.49,7.5-7.37,10.31-6.65,3.82-16,5.06-24.51,3.71a31.91,31.91,0,0,1-11.1-3.71c-5.19-3-7.63-7-7.31-10.92-.08-5.48-.45-40.14,2.65-51.43,2.81-10.25,2.28-40.35,2-49.92-.05-1.88-.08-3-.08-3s.72-.45,2-1.17c4.61-2.62,16.62-8.77,28.33-9,0,0,.55,1,1.35,2.63,2.54,5,7.74,15.82,7.55,20.72,0,0-6.25,12.5-6.25,19.71S423.08,443.81,422.18,471.93Z"/><path class="cls-40" d="M389,387c-3.45-9.15-5.69-12.63-7.3-14.41,2.31-1.29,5.47-3,8.54-4.51,4.67-2.31,14.39-4.64,17.89-5.43-.8-1.62-1.35-2.63-1.35-2.63-11.71.19-23.72,6.34-28.33,9-1.24.72-2,1.17-2,1.17s0,1.08.08,3c.26,9.58.8,39.66-2,49.92-3.1,11.29-2.73,45.95-2.65,51.43-.32,3.92,2.12,7.93,7.31,10.92a31.91,31.91,0,0,0,11.1,3.71c1.57-30.84-6-80.15-6-80.15S390.51,391,389,387Z"/><path class="cls-26" d="M388.24,458.49c-.05.19-.69.32-1.51.43a15,15,0,0,1-3.68.08c-.4-.27-4.72-3.74-5.57-5.57s-1.43-7.15-.55-9.4a6.81,6.81,0,0,0,.26-.83,22.19,22.19,0,0,0,.69-3.39,7.28,7.28,0,0,1,4.21-.77,6.45,6.45,0,0,1,1,.16l.53,2.31,1.19,2.17,1.88,3.47a3.26,3.26,0,0,1,.4,1.59l-.05,2.6a3.55,3.55,0,0,1-.4,1.48,5.85,5.85,0,0,1-1.27,1.72s-.56-.15-.72-1.32-.53-2.23-.5-.4S388.35,458,388.24,458.49Z"/><g class="cls-32"><path class="cls-22" d="M386.73,458.92a15,15,0,0,1-3.68.08c-.4-.27-4.72-3.74-5.57-5.57s-1.43-7.15-.55-9.4a6.81,6.81,0,0,0,.26-.83,22.19,22.19,0,0,0,.69-3.39,7.28,7.28,0,0,1,4.21-.77c.72,2.31,1.91,6.47,1.78,8-.16,2.18-2.44,4.22-.66,6.92C384.45,455.87,386,457.88,386.73,458.92Z"/></g><path class="cls-28" d="M386.15,441.75a2.45,2.45,0,0,1-1.33,1.93,7.13,7.13,0,0,1-3.47.88,6.92,6.92,0,0,1-3.44-.83,3.94,3.94,0,0,1-.72-.53,2.09,2.09,0,0,1-.66-1.16s-6.28-25-6.55-29.6.27-41.36,6.52-42.31a4.57,4.57,0,0,1,2.52.26c4.32,1.72,5.91,9.81,6.12,13.91.24,4.8-5.54,29.33-5.54,29.33,1.11,2.63,5.59,23.64,6.41,27.53A1.46,1.46,0,0,1,386.15,441.75Z"/><path class="cls-13" d="M411.93,350.7c-1,7.66-3.5,18.58-3.5,18.58s-.32-.45-.87-1.11c-1.46-1.65-4.56-4.64-8.8-5.46l-1.25-13.62,10.81-10.81a2.22,2.22,0,0,0,.27-.27l1.19-1.19,1.54-1.54a.9.9,0,0,1,0,.22A54.87,54.87,0,0,1,411.93,350.7Z"/><path class="cls-41" d="M411.34,346c.14,6.1-2.64,17.63-3.78,22.16-1.46-1.65-4.56-4.64-8.8-5.46l-1.25-13.62,10.81-10.81a2.22,2.22,0,0,0,.27-.27,5.16,5.16,0,0,0,.85-1.85,2.28,2.28,0,0,1,.34.66,11.07,11.07,0,0,1,.88,2.6A32.86,32.86,0,0,1,411.34,346Z"/><g class="cls-32"><path class="cls-22" d="M436.65,371.29s-2.31,6.73-1.25,9.3c.72,1.7-.47,3.66-1.37,4.83a7.39,7.39,0,0,1-.64-1.41,7,7,0,0,0,1.38-1.75,5.45,5.45,0,0,0-.11-1.64,17.83,17.83,0,0,1,0-4.37C435.14,373.44,436.07,371.13,436.65,371.29Z"/></g><path class="cls-42" d="M444,366.81a4,4,0,0,0-2.75,2.65c-.53,2.1-3,4.54-3.69,4.64,0,0,1.8-1.88,2-3.1a6.49,6.49,0,0,1,2-3.63A2.81,2.81,0,0,1,444,366.81Z"/><path class="cls-43" d="M381.35,444.56a6.92,6.92,0,0,1-3.44-.83,3.94,3.94,0,0,1-.72-.53,2.09,2.09,0,0,1-.66-1.16s-6.28-25-6.55-29.6.27-41.36,6.52-42.31a4.57,4.57,0,0,1,2.52.26s-6.31,35.85-5.62,41.44C374,416.79,380,439.47,381.35,444.56Z"/><path class="cls-26" d="M401,360v11.05l-2.28.67a11.16,11.16,0,0,1-3.26-1.3,37.64,37.64,0,0,1-7.66-6l.69-4s5-4.5,5.8-5.32C394.57,354.68,401,357.49,401,360Z"/><path class="cls-26" d="M409.91,347.6c-.5,6.66-5,14.31-5,14.31a9.09,9.09,0,0,1-2.31.4,5,5,0,0,1-.66,0c-1.8,0-7.26-4.51-7.55-4.67,0,0-5-2-6.28-2.57l-.32-.16s-.08-.47-.16-1.08c-.13-1-.34-2.49-.34-2.49l1.43-7.93s4.77-7.86,4.88-8.1a5.71,5.71,0,0,1,1.43-.06c3.81.06,13.88.59,13.88.59A34.63,34.63,0,0,1,409.91,347.6Z"/><g class="cls-32"><path class="cls-22" d="M401.91,362.34a4.57,4.57,0,0,0,.64,0c-2.2-.85-3.69-2.68-5.51-4.58-1.41-1.46-1.88-15.56-2-22.45-.06-2.27-.06-3.76-.06-3.76l-1.75-.87s-1.93,1.24-1.61,1.64-4.32,4.66-4.32,4.66l-1.62,11.87,2,5,.48,1.24c.75.33,2.73,1.13,4.27,1.76-1.71,1.57-3.9,3.54-3.9,3.54l-.69,4a37.64,37.64,0,0,0,7.66,6,96.7,96.7,0,0,1-1.19-12.8C394.65,357.83,400.11,362.34,401.91,362.34Z"/></g><path class="cls-13" d="M410,340.79c-.93-.34-1.54-2.64-1.54-2.64a47,47,0,0,1-7.52,2.17,13.52,13.52,0,0,1-3.58.21,3.67,3.67,0,0,0-3.63,2c-.24.5-.48,1.06-.71,1.62-.85,2.22.18,15.26.68,21.09a15,15,0,0,1-3.39,10.23c-1.37.15-6.12-7.71-7.34-8.14s-3.79,1.17-3.79,1.17c1.28-2.28.45-21.44,0-29.89s5.38-13.12,13.65-15.24c4.74-1.22,9.75,1,13.32,3.9,2.68,2.12,4.54,4.61,4.91,6.28A10.51,10.51,0,0,1,410,340.79Z"/><path class="cls-44" d="M406.2,327.31c-5.85-1-14.94-1-17.19,8-3.37,13.52,5.27,28.78,1.32,40.23-1.37.15-6.12-7.71-7.34-8.14s-3.79,1.17-3.79,1.17c1.28-2.28.45-21.44,0-29.89s5.38-13.12,13.65-15.24C397.62,322.19,402.63,324.42,406.2,327.31Z"/><path class="cls-45" d="M596.84,478.39c-5.36,8.33-36.38,31-37.71,32s-2.7,47.26-2.59,49.92c.06,1.55-.92,3.1-3,4.3a14.67,14.67,0,0,1-6.31,1.71,9.86,9.86,0,0,1-1.63,0,14.79,14.79,0,0,1-6.47-1.68c-2-1.14-3-2.67-3-4.19,0,0,.73-57.65,2.15-62.46,1.38-4.62,12.29-19.33,13-20.26-1,.33-13.25,4.68-20.64,8.16-2.83,1.36-5,2.56-5.47,3.37-1.87,3-2.2,48.1-2.2,48.1,0,1.5-1,3-3,4.17a14.33,14.33,0,0,1-3.84,1.38,16.57,16.57,0,0,1-5.49.19,13.86,13.86,0,0,1-5.11-1.57c-2-1.15-3-2.67-3-4.17,0,0,0-2.06,0-5.46,0-13.11.3-45.85,3-52,3.43-7.77,48.43-29.5,48.43-29.5l28.63,7.15.57.14,5.77-1.69,2.74-.79a45.84,45.84,0,0,1,2.4,3.94,41.46,41.46,0,0,1,2.8,6.12C598.45,469.64,599.21,474.67,596.84,478.39Z"/><g class="cls-46"><path class="cls-47" d="M599.89,462.65l-3,2.58-8.32,7.15-37.23,37.18-5.68,56.77a14.79,14.79,0,0,1-6.47-1.68c-2-1.14-3-2.67-3-4.19,0,0,.73-57.65,2.15-62.46,1.38-4.62,12.29-19.33,13-20.26-1,.33-13.25,4.68-20.64,8.16l-14,1.63-5.95,55.58a13.86,13.86,0,0,1-5.11-1.57c-2-1.15-3-2.67-3-4.17,0,0,0-2.06,0-5.46,0-13.11.3-45.85,3-52,3.43-7.77,48.43-29.5,48.43-29.5l28.63,7.15.57.14,5.77-1.69,5.14,3.15Z"/></g><ellipse class="cls-16" cx="395.05" cy="581.86" rx="15.38" ry="7.47"/><ellipse class="cls-16" cx="534.16" cy="664.44" rx="13.23" ry="7.47"/><ellipse class="cls-16" cx="623.9" cy="659.88" rx="44.58" ry="22.41" transform="translate(-206.45 292.15) rotate(-22.72)"/><polygon class="cls-48" points="387.65 501.02 387.65 580.74 397.26 585.69 397.26 506.99 387.65 501.02"/><path class="cls-49" d="M397.26,585.69a75,75,0,0,1,6.44-4.87V509.36L397.26,507Z"/><polygon class="cls-50" points="526.7 562.7 526.7 662.93 536.31 669.16 536.31 570.2 526.7 562.7"/><path class="cls-51" d="M536.31,669.16c1.06-1.45,6.44-6.12,6.44-6.12V573.19l-6.44-3Z"/><path class="cls-13" d="M649.36,539.84c-.58,1.21-8.51,3.26-12.35,5.38s-16.68,10.26-19,9.17-3-6.41-1.59-8.72,17.39-12.45,17.39-12.45h13.64S649.94,538.62,649.36,539.84Z"/><g class="cls-46"><path class="cls-47" d="M618,554.39c-2.26-1.23-3-6.41-1.59-8.72s17.39-12.45,17.39-12.45h2.76l1.28,5.73s-18.47,8.54-19.53,10.46C617.7,550.55,617.39,551.8,618,554.39Z"/></g><path class="cls-13" d="M677,554.6a3.92,3.92,0,0,1-1.59,3.69c-4.6,3.36-17.41,12.08-26.06,12.26a26.31,26.31,0,0,1-7.7-.77c-3.69-1.13-4.08-3.11-3.11-4.07,1.43-1.44,21.25-16.3,21.25-16.3h16.07A29.91,29.91,0,0,1,677,554.6Z"/><g class="cls-46"><path class="cls-47" d="M641.66,569.78c-3.69-1.13-4.08-3.11-3.11-4.07,1.43-1.44,21.25-16.3,21.25-16.3h1.87l1.21,5.26S642.21,565.33,641,567C640.36,567.74,640.92,568.87,641.66,569.78Z"/></g><path class="cls-15" d="M656.8,450.66c-1.5,10.18-7.74,36.75-7.74,36.75l.3,46.54c0,1.32-.88,2.66-2.65,3.67a14,14,0,0,1-8.85,1.33,11.51,11.51,0,0,1-3.91-1.33c-1.77-1-2.65-2.35-2.65-3.67,0,0-2.11-48.27-2.83-60.59s4.12-47.85,4.12-47.85l6.54.06,18.68.18S658.29,440.48,656.8,450.66Z"/><path class="cls-15" d="M675.16,476.56a121.14,121.14,0,0,0-.5,28.16c1.28,13,2.83,32.14,2.48,45.66,0,1.36-.86,2.7-2.63,3.73a14.34,14.34,0,0,1-11.63.56,9.14,9.14,0,0,1-1.13-.56c-1.77-1-2.64-2.35-2.64-3.68,0,0-4.92-52.08-6.92-60.25s-4.73-42-4.73-42V427.19l28.69-2.58s3.14,10.61,2.58,20.37C678.37,451.22,676.65,465.4,675.16,476.56Z"/><path class="cls-52" d="M635.24,478.69c.23,8.67,2,46.6,2.62,60.26a11.51,11.51,0,0,1-3.91-1.33c-1.77-1-2.65-2.35-2.65-3.67,0,0-2.11-48.27-2.83-60.59s4.12-47.85,4.12-47.85l6.54.06C639,427.53,634.94,468.3,635.24,478.69Z"/><path class="cls-53" d="M662.88,554.67a9.14,9.14,0,0,1-1.13-.56c-1.77-1-2.64-2.35-2.64-3.68,0,0-4.92-52.08-6.92-60.25s-4.73-42-4.73-42,7,33,8.88,43.68C658,501.05,661.87,543.43,662.88,554.67Z"/><path class="cls-24" d="M684.44,361.45,678.12,428s-24.48,5.71-36.31,1.11l-5-1.93-4.26-1.67s.93-36.31,0-40.2c-.84-3.56-3.57-12.15,2.95-30.28.65-1.82,1.41-3.73,2.25-5.75,0,0,1.36-.33,3.61-.68,5-.76,14.26-1.62,23,.68a36,36,0,0,1,4.67,1.56A42.67,42.67,0,0,1,684.44,361.45Z"/><path class="cls-54" d="M664.35,349.28c-8.7-2.29-18-1.43-22.94-.67-2.26.34-3.62.67-3.62.67-.84,2-1.6,3.93-2.25,5.75-6.52,18.13-3.79,26.72-2.95,30.28.93,3.89,0,40.2,0,40.2l4.26,1.67c1.26-12.17-1.31-41.51-1.31-41.51,6.26,2.68,25.93,3.68,25.93,3.68s-22.09-3-25.93-7.88c-2.81-3.58,1.64-19.51,4.23-27.81,10.55-2.59,26.4-2.52,26.4-2.52A2.32,2.32,0,0,0,664.35,349.28Z"/><path class="cls-55" d="M667.46,350.24a92.7,92.7,0,0,1-11.63,14.12,24.84,24.84,0,0,1-6.22,4.53l-1.54-10.29V344.27l1.44-.45,12.59-.69Z"/><g class="cls-32"><path class="cls-22" d="M655.83,364.36a24.84,24.84,0,0,1-6.22,4.53l-1.54-10.29V344.27l1.44-.45C651,348.42,654.44,359.56,655.83,364.36Z"/></g><path class="cls-28" d="M687.8,378c-1,12.23-12.81,42-20.34,43.38a10.52,10.52,0,0,1-2.78,0c-9.78-.94-31.51-11-33.38-14.22a3.48,3.48,0,0,1-.08-2.91c1.16-3.56,5.71-7.74,5.71-7.74l26.2,9.86,4.33-25.62c-1.11-13.39,8.79-18.25,13-19.71l.45-.15a.66.66,0,0,1,.2-.06l.81-.23a2.9,2.9,0,0,1,.36-.09C686.44,361.41,688.79,365.78,687.8,378Z"/><path class="cls-56" d="M664.68,421.42c-9.78-.94-31.51-11-33.38-14.22a3.48,3.48,0,0,1-.08-2.91C636.52,408.21,646.51,414.2,664.68,421.42Z"/><g class="cls-21"><path class="cls-22" d="M664.24,409.34a2.66,2.66,0,0,1,.09-.27A.81.81,0,0,1,664.24,409.34Z"/></g><path class="cls-57" d="M680.47,361.08c-3.51,1.33-10.87,5.61-11,18.37a95.4,95.4,0,0,1-5.13,29.61c.07-.4,0-1.26-1.2-2.65l4.33-25.62C666.35,367.4,676.25,362.54,680.47,361.08Z"/><path class="cls-28" d="M650.88,374.37s-13,25.14-15.32,29.28c-1.46,2.51-3.48,3.64-5.46,3.65a5.67,5.67,0,0,1-3.61-1.29c-2.77-2.17-4-6.5-1.39-27s12.69-29.72,12.69-29.72l-.84,5.1-4.79,29.16L639,372.68l4.17.6Z"/><polygon class="cls-28" points="643.15 373.28 630.74 392.48 632.16 383.54 638.98 372.68 643.15 373.28"/><path class="cls-58" d="M628.11,389.71c-1,4.65-2,12.81,2,17.59a5.67,5.67,0,0,1-3.61-1.29c-2.77-2.17-4-6.5-1.39-27s12.69-29.72,12.69-29.72l-.84,5.1c-1.29,3.33-6.06,16.09-7.52,27.47C629.09,384.48,628.67,387.11,628.11,389.71Z"/><path class="cls-59" d="M649.49,375.42a5.24,5.24,0,0,1-.84.33,11.67,11.67,0,0,1-8-.33,3.53,3.53,0,0,1-1.53-1.23c-.57-.88-.29-1.86.84-2.62a5.47,5.47,0,0,1,.69-.41,11.43,11.43,0,0,1,8.82,0c1.09.54,1.68,1.2,1.79,1.89C651.43,373.9,650.83,374.77,649.49,375.42Z"/><path class="cls-55" d="M663.62,342.06a1.16,1.16,0,0,1-.07.37c0,.09.56,3,.57,3.12-.16.77-2.77.24-2.77.24a19,19,0,0,1-1,5.7l-.11.13c-2.2,2.54-6.16,4-9.34,4.85-1.09.29-2.08.51-2.87.66-1.17.21-1.91.29-1.91.29-3.48-1.78-6.52-8.42-8.62-14.3l-.42-1.18s-3.62-7.81-.66-7.77a1.63,1.63,0,0,1,.41.05l.28.08a5.87,5.87,0,0,0,2.63.06l.53-.19c2.34-1.07,6.54-5.86,9.83-6.23a21.81,21.81,0,0,1,2.48.84,10.21,10.21,0,0,1,2.42,1.5c1.92,1.31,5.57.74,8,1C665.19,331.48,663.81,340.51,663.62,342.06Z"/><g class="cls-32"><path class="cls-22" d="M660.22,351.62c-2.2,2.54-6.16,4-9.34,4.85-1.09.29-2.08.51-2.87.66-1.17.21-1.91.29-1.91.29-3.48-1.78-6.52-8.42-8.62-14.3l-.42-1.18s-3.62-7.81-.66-7.77c2,5.8,6.15,20.44,9.55,21.44C649,356.51,656.13,353.23,660.22,351.62Z"/></g><path class="cls-13" d="M666.62,337.17a19.27,19.27,0,0,0-1.24,9.18l-1.34.45a23.19,23.19,0,0,1-.55-4,.77.77,0,0,1,.07-.35,2.34,2.34,0,0,0,.06-.38c.17-6.5-1.64-8.4-3.87-8.62-3,0-.51,5.73-.89,7.2s-1.38,1.07-1.64.93a19.85,19.85,0,0,1-1.49-4.9c-.4-2.09-3.28-7.37-5.43-6.74-1.44.42-2,1.24-4.09,2.27a31,31,0,0,1-6.5,2.17,4.94,4.94,0,0,1-2.61-.07l-.29-.07c-2.83-.34.25,7.72.25,7.72l.42,1.19c-1.26,0-1.58-2.47-2.17-4.14-.48-1.31-1-2.6-1.59-3.86-1.24-2.59-4.4-5.41-1-12.36,3-6.09,13.24-8.65,13.24-8.65a16.75,16.75,0,0,1,6.85-1.13,17.79,17.79,0,0,1,7.55,2,20.06,20.06,0,0,1,5.26,4.24c1.09,1.26,1.85,4,2.25,6.88A21.83,21.83,0,0,1,666.62,337.17Z"/><g class="cls-21"><path class="cls-22" d="M646.2,332.19a30.62,30.62,0,0,1-6.49,2.17,4.94,4.94,0,0,1-2.61-.07l-.29-.07c-2.83-.34.25,7.72.25,7.72l.42,1.19c-1.26,0-1.58-2.47-2.17-4.14-.48-1.31-1-2.6-1.59-3.86-1.24-2.59-4.4-5.41-1-12.36,3-6.09,13.24-8.65,13.24-8.65a16.75,16.75,0,0,1,6.85-1.13c-7.05,3.2-19.1,9.27-18.19,13C636,331.36,636.28,334.31,646.2,332.19Z"/></g><path class="cls-55" d="M654,366.63v2.08a3.9,3.9,0,0,1-1.1,2.7,6.63,6.63,0,0,0-3.14,2.61l-1.09,1.72a11.52,11.52,0,0,1-7.8-.26.83.83,0,0,1-.18-.07,3.48,3.48,0,0,1-1.52-1.22,16.09,16.09,0,0,0,.83-2.62,9.82,9.82,0,0,0,.34-3.42c-.3-2.14,1.11-10.63,2.34-14.1l2.41,2.7-.53,4.15s4.5-7.45,6.32-8.34-1.1,6.69-1.1,6.69l2.53,2.88A6.83,6.83,0,0,1,654,366.63Z"/><g class="cls-32"><path class="cls-22" d="M650.86,352.56c-.31.5-5.27,8.22-5.61,10.09-.28,1.56-3.24,9.69-4.4,12.83a.83.83,0,0,1-.18-.07,3.48,3.48,0,0,1-1.52-1.22,16.09,16.09,0,0,0,.83-2.62,9.82,9.82,0,0,0,.34-3.42c-.3-2.14,1.11-10.63,2.34-14.1l2.41,2.7-.53,4.15S649,353.45,650.86,352.56Z"/></g><polygon class="cls-60" points="631.8 516.96 631.8 596.68 641.41 601.63 641.41 522.93 631.8 516.96"/><path class="cls-61" d="M641.41,601.63a76.12,76.12,0,0,1,6.44-4.86V525.3l-6.44-2.37Z"/><path class="cls-62" d="M496.71,427.4l159.55,92.12,13.4.56c2.14,1.24,1.67,11.24-.47,12.48L557.29,597a9.43,9.43,0,0,1-9.42,0L362.2,489.79c-2.14-1.23-2.61-11.24-.46-12.47l115.32-59.41a3.18,3.18,0,0,1,3.21,0Z"/><path class="cls-63" d="M496.71,420.07l159.55,92.12,12.63,7.29a3.42,3.42,0,0,1,0,5.92L556.42,590.17a7.69,7.69,0,0,1-7.68,0L362.5,482.63a3.41,3.41,0,0,1,0-5.91l112.51-65a7.29,7.29,0,0,1,7.31,0Z"/><path class="cls-24" d="M555.54,438.61c-1.61,1.61-20.1,30.35-20.1,30.35l-4.13-4.38-3.7-3.92L523,455.72l18.44-27s-2-25.91.16-33.42,5.82-12.29,10.36-12.56c0,0,.16,0,.41.3a5.68,5.68,0,0,1,.68,1.47c.84,2.36,1.9,7.86,2.53,20.69C556.62,427.92,557.14,437,555.54,438.61Z"/><path class="cls-64" d="M521.92,458.62c0,3.86,3.13,8.81,7,11s7,.91,7-3-3.13-8.81-7-11S521.92,454.75,521.92,458.62Z"/><path class="cls-65" d="M521.91,458.61a8.65,8.65,0,0,0,.29,2.14,15.18,15.18,0,0,0,6.73,8.9,7.85,7.85,0,0,0,2.43,1c2.66.55,4.56-.91,4.56-3.92a11.59,11.59,0,0,0-1.75-5.64,15.22,15.22,0,0,0-5.23-5.4C525.05,453.42,521.91,454.75,521.91,458.61Z"/><path class="cls-66" d="M603.5,433.5A60.47,60.47,0,0,1,593,463.19a55.71,55.71,0,0,1-13.9,1.06c-8.37-.4-14.19-3-18.08-5.84a21.9,21.9,0,0,1-7.07-8.05s-.52-14.71-1.06-19-6.69-15-6.69-15c-3.29-19.63,1.22-28.52,3.91-31.92a8.89,8.89,0,0,1,1.8-1.77,51.1,51.1,0,0,1,5.52,1.06c21.62,5.06,42,21.4,42,21.4.17.41.3.84.47,1.28A66.63,66.63,0,0,1,603.56,424c.05.77.11,1.47.13,2.21A63,63,0,0,1,603.5,433.5Z"/><path class="cls-67" d="M561,458.41a21.9,21.9,0,0,1-7.07-8.05s-.52-14.71-1.06-19-6.69-15-6.69-15c-3.29-19.63,1.22-28.52,3.91-31.92a8.89,8.89,0,0,1,1.8-1.77,51.1,51.1,0,0,1,5.52,1.06l-1.31,1.52s-8.37,27.52-5.68,32,8,13.27,8,13.27Z"/><polygon class="cls-16" points="491.95 476.29 443.8 474.62 441.49 500.98 490.51 502.87 491.95 476.29"/><polygon class="cls-68" points="491.15 473.8 443.01 472.14 440.7 498.5 489.71 500.38 491.15 473.8"/><path class="cls-69" d="M550.13,384.5c15.23,1.81,46.63,21.45,46.63,21.45l3.12.51-.46-1.27s-24-19.24-47.5-22.46A9.1,9.1,0,0,0,550.13,384.5Z"/><path class="cls-24" d="M605.57,468.28c-1.6,1.6-44.13,14.11-44.13,14.11l-2.86-4.4-6.12-9.3L551.32,467l40.35-11.78s-4.29-29.94-2.14-37.42c1.71-5.92,4.05-10.17,7.23-11.8a6.23,6.23,0,0,1,2.66-.76s8.24,3.21,9.33,25.92S607.17,466.67,605.57,468.28Z"/><polygon class="cls-70" points="475.83 482.34 473.59 483.69 523.24 513.32 570.21 486.77 566.88 484.56 495.26 475.82 475.83 482.34"/><polygon class="cls-71" points="476.82 481.75 520 455.83 543.77 470.1 500.27 495.81 476.82 481.75"/><polygon class="cls-72" points="499.93 495.65 543.11 469.74 566.88 484 523.38 509.72 499.93 495.65"/><path class="cls-73" d="M476.83,481.75l-2.11,1.94,48.52,28.82s45.72-26.28,45.51-26.42-1.87-2.09-1.87-2.09l-43.5,25.72Z"/><polygon class="cls-74" points="506.96 494.39 509.11 493.03 527.37 503.85 524.74 505.36 506.96 494.39"/><polygon class="cls-74" points="510.3 492.32 512.45 490.96 530.71 501.79 528.09 503.29 510.3 492.32"/><polygon class="cls-74" points="514.29 490.11 516.44 488.75 534.7 499.57 532.08 501.08 514.29 490.11"/><polygon class="cls-74" points="518.34 487.84 520.49 486.48 538.75 497.3 536.13 498.81 518.34 487.84"/><polygon class="cls-74" points="522.81 485.4 524.97 484.04 543.22 494.87 540.6 496.37 522.81 485.4"/><polygon class="cls-74" points="526.91 483.11 529.07 481.75 547.32 492.57 544.7 494.08 526.91 483.11"/><polygon class="cls-74" points="530.71 480.78 532.86 479.42 551.12 490.25 548.5 491.75 530.71 480.78"/><polygon class="cls-74" points="535.02 478.29 537.17 476.93 555.43 487.76 552.81 489.26 535.02 478.29"/><polygon class="cls-74" points="539.44 475.86 541.59 474.5 559.85 485.32 557.23 486.83 539.44 475.86"/><polygon class="cls-74" points="484.66 478.95 486.81 477.59 505.07 488.42 502.45 489.93 484.66 478.95"/><polygon class="cls-74" points="488 476.89 490.15 475.53 508.41 486.36 505.79 487.86 488 476.89"/><polygon class="cls-74" points="492 474.68 494.15 473.31 512.4 484.14 509.78 485.65 492 474.68"/><polygon class="cls-74" points="496.04 472.41 498.19 471.05 516.45 481.87 513.83 483.38 496.04 472.41"/><polygon class="cls-74" points="500.52 469.97 502.67 468.61 520.92 479.44 518.3 480.94 500.52 469.97"/><polygon class="cls-74" points="504.62 467.68 506.77 466.31 525.03 477.14 522.4 478.65 504.62 467.68"/><polygon class="cls-74" points="508.41 465.35 510.56 463.99 528.82 474.82 526.2 476.32 508.41 465.35"/><polygon class="cls-74" points="512.72 462.86 514.88 461.5 533.13 472.32 530.51 473.83 512.72 462.86"/><polygon class="cls-74" points="517.14 460.42 519.3 459.06 537.55 469.89 534.93 471.4 517.14 460.42"/><path class="cls-64" d="M549.13,470.71c0,3.87,3.14,8.82,7,11.05s7,.91,7-3-3.14-8.81-7-11.05S549.13,466.85,549.13,470.71Z"/><path class="cls-75" d="M549.13,470.72a3,3,0,0,0,0,.59c.27,3.74,3.29,8.32,7,10.45,3.93,2.21,7,.88,7-3a9.83,9.83,0,0,0-.13-1.51,15.18,15.18,0,0,0-4.72-7.94,12.06,12.06,0,0,0-2.16-1.6C552.27,465.53,549.13,466.84,549.13,470.72Z"/><path class="cls-76" d="M535.93,466.7c0,3-1.9,4.46-4.57,3.92a7.69,7.69,0,0,1-2.45-1,15.19,15.19,0,0,1-6.71-8.89,8.76,8.76,0,0,1-.3-2.15,4,4,0,0,1,1.39-3.35c1.27-1,3.31-.92,5.62.41a12.69,12.69,0,0,1,2.34,1.74,15.8,15.8,0,0,1,2.91,3.67A11.53,11.53,0,0,1,535.93,466.7Z"/><path class="cls-76" d="M563.15,478.8c0,3.84-3.1,5.17-6.91,3s-6.8-6.77-7.07-10.52a5.43,5.43,0,0,1,0-.57c0-2,.86-3.27,2.18-3.77,0,0,.81-.26.81-.26a6.62,6.62,0,0,1,4,1.06,11.44,11.44,0,0,1,1,.63c.38.3.76.6,1.14.95a15.17,15.17,0,0,1,4.73,8A8.35,8.35,0,0,1,563.15,478.8Z"/><path class="cls-26" d="M563,477.31c-2,1.3-4.75,3.21-6.77,4.51a18.17,18.17,0,0,1-2.5,1.47c-1,0-4.24.27-6.72.46a7.91,7.91,0,0,0-5,2.39,2.88,2.88,0,0,1-1.55.87,3.07,3.07,0,0,1-1.17,0,3.45,3.45,0,0,1-1.55-.62,3.82,3.82,0,0,1-1.22-1.52l-.68-1.69a4.71,4.71,0,0,1,1-5l6.77-7a2.36,2.36,0,0,1,2.2-.68l3.21.76h.16c3.27.7,6-.74,9.11-2a15.67,15.67,0,0,1,3.43,4.4c.08.17.16.33.24.52A13.18,13.18,0,0,1,563,477.31Z"/><g class="cls-32"><path class="cls-22" d="M562,474.26c-2.77,1.93-6.9,4.6-8.18,4.43-2-.21-8.16,1-9.49,2.31-.84.82-3.29,3.87-5,6a3.45,3.45,0,0,1-1.55-.62,3.82,3.82,0,0,1-1.22-1.52l-.68-1.69a4.71,4.71,0,0,1,1-5l6.77-7a2.36,2.36,0,0,1,2.2-.68l3.21.76h.16c3.27.7,6-.74,9.11-2a15.67,15.67,0,0,1,3.43,4.4C561.79,473.91,561.87,474.07,562,474.26Z"/></g><path class="cls-26" d="M534.16,461.07a6.27,6.27,0,0,0-1.57,4.16,13,13,0,0,1-1.23,5.39,14.44,14.44,0,0,1-2.34,3.31c-1.14,1.39-4.84,1.85-4.84,1.85a30,30,0,0,0,1.44-3.8c.63-2.12.9-4.33-.62-4.46-2.94-.25-9.44,11.17-9.44,11.17l-1.87-1.3s-.25-.19-.25-.19l-1.87-1.31,2.14-9.84a4.05,4.05,0,0,1,2.26-2.83,59.84,59.84,0,0,1,6.23-2.47l.65-.19c1.9-.44,4.43-3,6.09-4.9a14.19,14.19,0,0,1,3.56,3c.17.19.3.38.44.57A13.16,13.16,0,0,1,534.16,461.07Z"/><polygon class="cls-15" points="580.85 385.59 614.17 405.19 608.14 408.53 577.34 389.13 580.85 385.59"/><g class="cls-32"><path class="cls-22" d="M532.94,459.28a11.7,11.7,0,0,1-4.84,2.45c-3.37.81-8.08,2.63-10.17,6.66-1.69,3.31-3.29,6.47-4.49,8.81l-1.87-1.31,2.14-9.84a4.05,4.05,0,0,1,2.26-2.83,59.84,59.84,0,0,1,6.23-2.47l.65-.19c1.9-.44,4.43-3,6.09-4.9a14.19,14.19,0,0,1,3.56,3C532.67,458.9,532.8,459.09,532.94,459.28Z"/></g><path class="cls-26" d="M580.15,392.74s-.6,1.14-1.66,2.8c-.82,1.25-1.85,2.8-3.1,4.38-2.72,3.48-6.29,7.15-10.06,8.4,0,0-5.2-6.61-3.92-13.71.9-4.75,7.18-7.34,11.26-8.48a1,1,0,0,1,.16-.05,32.87,32.87,0,0,1,3.34-.77l2.94,2.51Z"/><g class="cls-32"><path class="cls-22" d="M575.39,399.92c-2.72,3.48-6.29,7.15-10.06,8.4,0,0-5.2-6.61-3.92-13.71.9-4.75,7.18-7.34,11.26-8.48Z"/></g><path class="cls-26" d="M579.73,359.75c0,7.68.83,15.72,1.22,20.15-1.73,3.73-2.46,3.43-2.46,3.43l.67,4.86s-7,9.63-13,11c-.05,0-.09.05-.15,0a2.77,2.77,0,0,1-.48.11c-4.78.59-13.81-19.56-14.43-23.93-.47-3.28-1.21-8.69,1.47-13.14a12.24,12.24,0,0,1,4.23-4.17C562.72,354.41,573.68,351.7,579.73,359.75Z"/><g class="cls-32"><path class="cls-22" d="M569,361l-.13,7.65s5.65,26.55-2.79,30.51c-.05,0-.09.05-.15,0a2.77,2.77,0,0,1-.48.11c-4.78.59-13.81-19.56-14.43-23.93-.47-3.28-1.21-8.69,1.47-13.14Z"/></g><path class="cls-28" d="M550.12,384.5s-7.58,10.33-4.24,29.83l1.25,17.54L531.25,457.4a13.58,13.58,0,0,0-2.31-1.74c-2.34-1.33-4.38-1.41-5.65-.41l18.11-26.54s-2-25.91.16-33.42,5.82-12.29,10.36-12.56c0,0,.16,0,.41.3Z"/><path class="cls-28" d="M596.57,457.4l-39.43,11a11.44,11.44,0,0,0-1-.63,6.62,6.62,0,0,0-4-1.06l39.53-11.53s-4.29-29.94-2.14-37.42Z"/><path class="cls-13" d="M583.54,365.49h0c-1.8-12.14-6.65-8.76-6.65-8.76s-.18-2.37-5-3.37-17.71,5.72-17.71,5.72h0c-5.21,2.71-7.05,6.95-6.26,9.4l-.08-.14c-.25,2.11,5,14.31,5,14.31,2-1.2.1-9.23.1-9.23l2.41.95c3.12,1.84,12.59-3.62,13.75-3.26s4.49,10.09,4.49,10.09h1.07l-.65-4.67s-.49-4.85,3-2.81c1.18.69,1.83,2.33,2.19,4.19.52,4.58-.72,5.43-.72,5.43l.62,4.49,1.74-2.23a47.38,47.38,0,0,0,3.22-16.11A11.25,11.25,0,0,0,583.54,365.49Z"/><path class="cls-24" d="M653.94,477.47s8.16,2.21,9,15.15-.21,40.59-2.19,45.3-8.22,22.53-8.22,22.53h-9.28s1.77-28.44,4.5-40C647.75,520.49,634.71,474.49,653.94,477.47Z"/><path class="cls-77" d="M658.3,489.29s-1.13,21.95-2.25,28,0,22.51,0,22.51l-11.33-4.5.64-27.16L647.75,497Z"/><path class="cls-13" d="M656.28,646.74c.28.28,1.45,8,1.45,8s1.74,4.69-4.82,4.6S645.78,655,645,653s-8.91-8.4-9-11.79l1-2.46,9.58,1.87Z"/><path class="cls-13" d="M623.6,660a38.66,38.66,0,0,1,2,5.51c.35,1.77.4,7.06-1.06,7.47a27.33,27.33,0,0,1-9,.28,25.26,25.26,0,0,0-10.28.08,31.89,31.89,0,0,1-8.7.34s-5.32-3.52-6.09-6.91l1.72-2.73s10.55-1.69,13.22-1.89,6.46-2.33,6.46-2.33Z"/><path class="cls-15" d="M655.83,588.57a97.5,97.5,0,0,0,.09,20.28,231.2,231.2,0,0,1,1.31,39.29,3.37,3.37,0,0,1-2,2.85,10.87,10.87,0,0,1-8.35.61,6.09,6.09,0,0,1-1.46-.61,3.47,3.47,0,0,1-2-2.83s-2-35.55-4.07-42.73c-1.33-4.73-2.73-18.46-3.49-27.22A72.45,72.45,0,0,0,630,588.59a74,74,0,0,0-4.71,14.16,85.71,85.71,0,0,0-.56,12.81c.29,10.15-.9,29.63-.45,44.51a3.47,3.47,0,0,1-2,2.83,10.82,10.82,0,0,1-6.87,1,8,8,0,0,1-2.94-1,3.45,3.45,0,0,1-2-2.83s-2.39-42.84-3.51-50.93.94-42.91,8.26-57.38l2.9-5.09h19.68l0-.47,18.08-5.74a49.85,49.85,0,0,1,1.78,17C657,564.93,657.3,573.78,655.83,588.57Z"/><path class="cls-78" d="M615.69,611.47c1,17.25-.94,40.38-.36,52.42a8,8,0,0,1-2.94-1,3.45,3.45,0,0,1-2-2.83s-2.39-42.84-3.51-50.93.94-42.91,8.26-57.38l2.9-5.09,8.13,4.77C623.71,558.65,614.41,589.68,615.69,611.47Z"/><path class="cls-66" d="M653.65,522.94c2,13.22,2.82,17.88,2.82,17.88s-7.23,13.15-30.33,10.62a61.29,61.29,0,0,1-6.75-1.1l-6.8-18.28V494.28s8.13-4.59,17.54-9.07c6.93-3.28,14.56-6.48,20.17-7.72,0,0,7.29-.95,9,9.73S651.69,509.73,653.65,522.94Z"/><path class="cls-26" d="M614.46,588.59l-1,5.38s-1.69,1.37-5.06.81-6.78-5.22-6.78-5.22-.36-8.58,0-9.86a19.29,19.29,0,0,1,1.15-2.86l3.17.25,4.62.36s1.84,3.69,2,5.69a20,20,0,0,1-.76,5.22l.6-1.28Z"/><path class="cls-24" d="M619.39,554.73c-2,4.71-7.81,22.54-7.81,22.54a2.47,2.47,0,0,1-1.47,2,7.93,7.93,0,0,1-5.81.52,5.47,5.47,0,0,1-1.26-.52,2.46,2.46,0,0,1-1.46-2c0-.09,2.09-28.46,4.82-40,0,0-4.44-41.88,6.19-43a9.77,9.77,0,0,1,3.1,1.76c2.41,1.94,5.39,5.83,5.88,13.4C622.43,522.38,621.37,550,619.39,554.73Z"/><path class="cls-79" d="M615.69,496s-5.26,11.46-5.26,41.18c0,23.54-4.35,37.73-6.13,42.59a5.47,5.47,0,0,1-1.26-.52,2.46,2.46,0,0,1-1.46-2c0-.09,2.09-28.46,4.82-40,0,0-4.44-41.88,6.19-43A9.77,9.77,0,0,1,615.69,496Z"/><path class="cls-26" d="M642.85,480.89c0,1.11-.06,2.41-.07,3.62,0,1.51,0,1.17,0,.84a3.15,3.15,0,0,1-1.8,2.62c-3.11,1.72-7.09,2.09-10.38,2a9.29,9.29,0,0,1-1.95-.24,14.86,14.86,0,0,1-4.08-1.67c.05-.32.19-2.3.37-6.22a1.07,1.07,0,0,0-.73-1.08,9.17,9.17,0,0,1-5.86-5c-1.19-2.47-1.89-15-1.9-15.17s.22-.15.68.07a25,25,0,0,1,2.73,1.73l.62.45C627.84,468.16,642.85,480.48,642.85,480.89Z"/><path class="cls-13" d="M649,465.12c-.47,1.92-2.38,6.24-2.74,8.2-.31,1.7-3.38,7.57-3.38,7.57-2.83,1.73-7.56,2.33-10,2.19a4.62,4.62,0,0,1-1.23-.21,7.25,7.25,0,0,1-.72-.32,9.19,9.19,0,0,1-5.11-6.2l-.15-.64a9.19,9.19,0,0,1-.21-2.91,15.67,15.67,0,0,0,0-1.71c-.17-3.35-1.71-3.84-2.87-4.06s-1.39,3.39-1.39,3.39l-1.6-.51-.24-5.21a2.28,2.28,0,0,0-.54-1.47c-1.26-1.44-5.69-2.36-5.68-7.93,0-2.54,2.7-11.38,16.17-11.52a37.17,37.17,0,0,1,5.95.44C649.88,446.39,650.13,460.26,649,465.12Z"/><path class="cls-80" d="M546.11,510.08s-3.35,36.82-1.76,36.59,34.88-1.93,34.88-1.93l-2.14-45.93-30.31,4.48Z"/><path class="cls-16" d="M549,512.35s-3.35,36.82-1.76,36.6S582.14,547,582.14,547L580,501.09l-30.3,4.48Z"/></g></g></svg>