<svg width="39" height="63" viewBox="0 0 39 63" fill="none" xmlns="http://www.w3.org/2000/svg">
<path d="M30.4253 3.9375C31.434 3.9375 32.4013 4.35234 33.1146 5.09077C33.8278 5.82919 34.2285 6.83071 34.2285 7.875V55.125C34.2285 56.1693 33.8278 57.1708 33.1146 57.9092C32.4013 58.6477 31.434 59.0625 30.4253 59.0625H7.60633C6.59767 59.0625 5.63032 58.6477 4.91709 57.9092C4.20385 57.1708 3.80316 56.1693 3.80316 55.125V7.875C3.80316 6.83071 4.20385 5.82919 4.91709 5.09077C5.63032 4.35234 6.59767 3.9375 7.60633 3.9375H30.4253ZM7.60633 0C5.589 0 3.6543 0.829685 2.22784 2.30653C0.801378 3.78338 0 5.78642 0 7.875V55.125C0 57.2136 0.801378 59.2166 2.22784 60.6935C3.6543 62.1703 5.589 63 7.60633 63H30.4253C32.4426 63 34.3773 62.1703 35.8038 60.6935C37.2303 59.2166 38.0316 57.2136 38.0316 55.125V7.875C38.0316 5.78642 37.2303 3.78338 35.8038 2.30653C34.3773 0.829685 32.4426 0 30.4253 0L7.60633 0Z" fill="#52ACFF"/>
</svg>
