<svg id="Layer_1" data-name="Layer 1" xmlns="http://www.w3.org/2000/svg" viewBox="0 0 373.79 248.15"><defs><style>.cls-1{fill:#fff;}</style></defs><title>features-03</title><rect x="228.77" y="117.5" width="66.08" height="112.83" rx="12.51"/><circle cx="261.46" cy="88.96" r="24.89"/><rect x="173.4" y="121.26" width="81.84" height="16.91" rx="8.04" transform="translate(154.5 -113.56) rotate(45)"/><path d="M348.85,25.56H26a13.7,13.7,0,0,0-13.7,13.7V208.5A13.7,13.7,0,0,0,26,222.2h200.5V156.36L183.08,113a9.29,9.29,0,0,1,0-13.11l1.73-1.74a9.31,9.31,0,0,1,13.11,0l28.69,28.7a13.16,13.16,0,0,1,13-11.27h43.85a13.16,13.16,0,0,1,13.16,13.16V222.2h52.22a13.7,13.7,0,0,0,13.7-13.7V39.26A13.7,13.7,0,0,0,348.85,25.56Zm-87.66,89.91A26.51,26.51,0,1,1,287.69,89,26.51,26.51,0,0,1,261.19,115.47Z"/><path class="cls-1" d="M55.33,77.43l-4-6.9-4,6.9H41.07L48.2,65.18,41.41,53.54h6.21l3.69,6.32L55,53.54H61.2L54.41,65.18l7.13,12.25Z"/><path class="cls-1" d="M62.6,59.11l4.94-5c.72-.72,1.1-1.26,1.1-1.81s-.41-.92-1.06-.92c-.85,0-1.4.61-1.81,1.6l-3.38-1.91a5.46,5.46,0,0,1,5.26-3.44c2.9,0,5.18,1.74,5.18,4.33,0,1.81-1.09,3.14-2.39,4.44L68.84,58H73v3.75H62.6Z"/><path class="cls-1" d="M91.6,67.87H86.14v5.46H81.36V67.87H75.9V63.1h5.46V57.64h4.78V63.1H91.6Z"/><path class="cls-1" d="M105.07,68.25v9.18H99.61V68.25l-8-14.71h6.21l4.53,9.22,4.54-9.22h6.21Z"/><path class="cls-1" d="M113.81,59.11l4.94-5c.72-.72,1.09-1.26,1.09-1.81s-.41-.92-1-.92c-.86,0-1.4.61-1.81,1.6l-3.38-1.91a5.44,5.44,0,0,1,5.25-3.44c2.9,0,5.19,1.74,5.19,4.33,0,1.81-1.09,3.14-2.39,4.44l-1.6,1.6h4.2v3.75H113.81Z"/><path class="cls-1" d="M126.77,59.51h15v4.78h-15Zm0,7.17h15v4.78h-15Z"/><path class="cls-1" d="M163.62,60.37c0-1.2-.79-2-2.53-2s-3,1.26-3.68,2.86l-4.71-2.69a9,9,0,0,1,8.59-5.49c3.89,0,7.78,2.38,7.78,6.82,0,5.08-5.45,6.65-5.45,9h-5.46C158.16,64.9,163.62,63.37,163.62,60.37Zm-6,14.29a3.25,3.25,0,1,1,3.25,3.24A3.27,3.27,0,0,1,157.64,74.66Z"/></svg>