<svg width="225" height="225" viewBox="0 0 225 225" fill="none" xmlns="http://www.w3.org/2000/svg">
<path d="M10.8812 77.5312H26.5208V123.958H10.5625L10.8812 77.5312Z" fill="#F7D927"/>
<path d="M161.636 100.819C161.156 97.6021 155.834 95.3334 155.834 95.3334L120.248 82.0001C120.248 82.0001 91.6836 72.4167 77.8023 73.7021C68.9628 74.5146 45.7023 78.5167 29.9648 81.3188V120.869C39.0982 119.742 49.4815 118.677 52.7482 119.179C58.9711 120.138 108.279 128.596 108.279 128.596C108.279 128.596 120.194 130.617 122.004 122.638C123.815 114.658 111.25 111.148 111.25 111.148C111.25 111.148 98.2648 108.698 89.8378 106.267C89.2128 105.973 88.6982 105.723 88.6982 105.723C88.6982 105.723 84.2711 102.002 90.6878 97.7146C92.4044 96.8271 94.2607 95.9334 96.1044 95.1042C97.5982 94.7001 107.734 92.0667 113.488 93.5417C119.713 95.1376 152.265 104.925 152.532 104.977C152.798 105.029 159.713 106.627 161.415 102.531C161.473 102.389 161.523 102.243 161.563 102.094C161.593 102.04 161.62 101.985 161.644 101.929C161.777 101.57 161.774 101.176 161.636 100.819Z" fill="#F7D927"/>
<path d="M142.318 28.7939L120.297 77.3044L161.131 94.2835C162.158 94.8565 163.687 95.9773 164.516 97.8544C164.943 99.4565 165.104 101.725 164.133 104.54C162.112 110.39 149.341 107.944 149.341 107.944L110.833 97.0835L107.641 104.744C107.641 104.744 113.737 106.652 117.097 107.771C119.481 108.826 121.578 110.436 123.212 112.467C125.809 115.98 127.031 120.321 126.647 124.673C125.797 134.531 110.052 132.546 110.052 132.546L98.7057 130.488L86.7891 162.402L165.083 186.667L216.572 54.3273L142.318 28.7939Z" fill="#F7D927"/>
<path d="M154.254 60.9231C155.865 56.9551 157.474 52.9849 159.081 49.0127C159.144 49.0835 159.214 49.1481 159.269 49.221C159.912 50.1231 160.55 51.0294 161.202 51.9294C161.255 51.9932 161.288 52.0715 161.297 52.1543C161.306 52.2371 161.289 52.3206 161.25 52.3939C160.604 53.9717 159.962 55.5516 159.325 57.1335C159.289 57.2231 159.26 57.319 159.219 57.4315C161.477 56.7919 161.523 56.7856 163.081 57.0356L165.31 51.5356C166.019 52.5419 166.721 53.5294 167.41 54.5252C167.431 54.5744 167.441 54.6271 167.441 54.6804C167.441 54.7337 167.431 54.7865 167.41 54.8356C167.012 55.9002 166.604 56.9606 166.198 58.0231C166.158 58.1252 166.125 58.2315 166.091 58.3231C166.11 58.3454 166.13 58.3663 166.152 58.3856C166.182 58.4084 166.213 58.4292 166.246 58.4481C168.316 59.6981 169.55 61.5481 170.108 63.8648C170.608 65.9481 170.491 68.0169 170.06 70.0877C169.987 70.444 169.9 70.794 169.81 71.1794C169.946 71.146 170.037 71.1252 170.127 71.1002L184.533 67.0148C186.062 66.5815 187.596 66.1565 189.116 65.7273L187.066 70.7856C186.931 70.8148 186.791 70.8356 186.65 70.8752C180.586 72.6613 174.519 74.453 168.448 76.2502C168.27 76.311 168.076 76.2997 167.906 76.219C167.137 75.8731 166.36 75.546 165.587 75.2106C165.512 75.1773 165.439 75.1377 165.358 75.096C165.385 75.0294 165.4 74.9856 165.419 74.944C165.804 74.069 166.208 73.2002 166.569 72.3148C167.03 71.212 167.339 70.0512 167.485 68.8648C167.679 67.1481 167.364 65.5627 166.252 64.1898C165.691 63.5084 165.019 62.9266 164.264 62.469L159.637 73.8835C158.875 72.8815 158.179 71.9398 157.45 71.0169C157.378 70.9397 157.332 70.8414 157.32 70.7365C157.307 70.6315 157.329 70.5254 157.381 70.4335C158.571 67.6335 159.752 64.8315 160.923 62.0273C160.962 61.9377 160.998 61.846 161.048 61.721C160.879 61.7377 160.769 61.744 160.656 61.7606C159.319 61.969 158.296 62.6856 157.439 63.6877C156.57 64.7302 155.863 65.8974 155.341 67.1502C154.716 68.6294 154.133 70.1335 153.533 71.6273L153.481 71.6065C153.433 71.5252 153.389 71.4419 153.337 71.3627C152.712 70.4377 152.087 69.5106 151.462 68.5919C151.403 68.5212 151.366 68.4351 151.355 68.3438C151.344 68.2525 151.359 68.16 151.4 68.0773C152.104 66.3606 152.798 64.6405 153.483 62.9169C153.752 62.2502 154 61.5856 154.254 60.9231Z" fill="white"/>
</svg>
