<svg id="Layer_1" data-name="Layer 1" xmlns="http://www.w3.org/2000/svg" viewBox="0 0 1080 1080"><defs><style>.cls-1{fill:#fff;}</style></defs><title>Untitled-1</title><path d="M52.23,372.15H127.3V595H50.7Z"/><path d="M775.85,483.93C773.55,468.49,748,457.6,748,457.6h0l-170.81-64s-137.11-46-203.74-39.83c-42.43,3.9-154.08,23.11-229.62,36.56V580.17c43.84-5.41,93.68-10.52,109.36-8.11,29.87,4.6,266.55,45.2,266.55,45.2s57.19,9.7,65.88-28.6S534,533.51,534,533.51s-62.33-11.76-102.78-23.43c-3-1.41-5.47-2.61-5.47-2.61s-21.25-17.86,9.55-38.44c8.24-4.26,17.15-8.55,26-12.53,7.17-1.94,55.82-14.58,83.44-7.5,29.88,7.66,186.13,54.64,187.41,54.89s34.47,7.92,42.64-11.74a17.91,17.91,0,0,0,.71-2.1,8.26,8.26,0,0,0,.39-.79A7.53,7.53,0,0,0,775.85,483.93Z"/><path d="M683.13,138.21,577.43,371.06l196,81.5c4.93,2.75,12.27,8.13,16.25,17.14,2.05,7.69,2.82,18.58-1.84,32.09-9.7,28.08-71,16.34-71,16.34L532,466l-15.32,36.77s29.26,9.16,45.39,14.53a78.37,78.37,0,0,1,29.35,22.54,85.86,85.86,0,0,1,16.49,58.59c-4.08,47.32-79.66,37.79-79.66,37.79l-54.46-9.88-57.2,153.19L792.4,896l247.15-635.23Z"/><path class="cls-1" d="M740.41,292.43q11.6-28.57,23.17-57.17c.3.34.64.65.9,1,3.09,4.33,6.15,8.68,9.28,13a2,2,0,0,1,.23,2.23q-4.65,11.36-9.24,22.75c-.17.43-.31.89-.51,1.43,10.84-3.07,11.06-3.1,18.54-1.9l10.7-26.4c3.4,4.83,6.77,9.57,10.08,14.35a1.93,1.93,0,0,1,0,1.49c-1.91,5.11-3.87,10.2-5.82,15.3-.19.49-.35,1-.51,1.44a2.89,2.89,0,0,0,.29.3,4.4,4.4,0,0,0,.45.3c9.94,6,15.86,14.88,18.54,26,2.4,10,1.84,19.93-.23,29.87-.35,1.71-.77,3.39-1.2,5.24.65-.16,1.09-.26,1.52-.38l69.15-19.61c7.34-2.08,14.7-4.12,22-6.18l-9.84,24.28c-.65.14-1.32.24-2,.43Q852.25,353.06,808.54,366a3.45,3.45,0,0,1-2.6-.15c-3.69-1.66-7.42-3.23-11.13-4.84-.36-.16-.71-.35-1.1-.55.13-.32.2-.53.29-.73,1.85-4.2,3.79-8.37,5.52-12.62a62.84,62.84,0,0,0,4.4-16.56c.93-8.24-.58-15.85-5.92-22.44a37.62,37.62,0,0,0-9.54-8.26l-22.21,54.79c-3.66-4.81-7-9.33-10.5-13.76a2.38,2.38,0,0,1-.33-2.8q8.57-20.16,17-40.35c.19-.43.36-.87.6-1.47-.81.08-1.34.11-1.88.19-6.42,1-11.33,4.44-15.44,9.25a65,65,0,0,0-10.07,16.62c-3,7.1-5.8,14.32-8.68,21.49l-.25-.1c-.23-.39-.44-.79-.69-1.17-3-4.44-6-8.89-9-13.3a2.29,2.29,0,0,1-.3-2.47q5.07-12.36,10-24.77C738,298.8,739.19,295.61,740.41,292.43Z"/></svg>