<svg width="290" height="76" viewBox="0 0 290 76" fill="none" xmlns="http://www.w3.org/2000/svg">
<g filter="url(#filter0_d)">
<rect x="6" y="6" width="278" height="64" rx="30" fill="#F7D927"/>
</g>
<path d="M94.6637 32.1308C94.369 31.7908 93.8817 31.4394 93.2017 31.0768C92.5443 30.6914 91.7737 30.3628 90.8897 30.0908C90.0057 29.8188 89.0877 29.6828 88.1357 29.6828C86.5263 29.6828 85.3363 29.9774 84.5657 30.5668C83.8177 31.1561 83.4437 31.9721 83.4437 33.0148C83.4437 33.7854 83.659 34.3974 84.0897 34.8508C84.5203 35.2814 85.1777 35.6554 86.0617 35.9728C86.9457 36.2674 88.0563 36.5734 89.3937 36.8908C91.0257 37.2761 92.431 37.7408 93.6097 38.2848C94.811 38.8061 95.729 39.5088 96.3637 40.3928C97.021 41.2768 97.3497 42.4441 97.3497 43.8948C97.3497 45.5494 96.953 46.8868 96.1597 47.9068C95.3663 48.9268 94.2897 49.6748 92.9297 50.1508C91.5923 50.6041 90.119 50.8308 88.5097 50.8308C86.6737 50.8308 84.8943 50.5474 83.1717 49.9808C81.449 49.4141 79.9077 48.6094 78.5477 47.5668L80.2817 44.3028C80.667 44.6881 81.279 45.1301 82.1177 45.6288C82.9563 46.1048 83.931 46.5241 85.0417 46.8868C86.175 47.2268 87.3537 47.3968 88.5777 47.3968C90.0737 47.3968 91.2297 47.1361 92.0457 46.6148C92.8617 46.0708 93.2697 45.3001 93.2697 44.3028C93.2697 43.4868 92.9977 42.8408 92.4537 42.3648C91.9323 41.8661 91.173 41.4581 90.1757 41.1408C89.201 40.8008 88.0223 40.4494 86.6397 40.0868C85.053 39.6788 83.727 39.2141 82.6617 38.6928C81.5963 38.1714 80.7917 37.5141 80.2477 36.7208C79.7263 35.9274 79.4657 34.8961 79.4657 33.6268C79.4657 32.0401 79.851 30.7028 80.6217 29.6148C81.3923 28.5041 82.435 27.6768 83.7497 27.1328C85.087 26.5661 86.583 26.2828 88.2377 26.2828C89.8697 26.2828 91.377 26.5434 92.7597 27.0648C94.1423 27.5861 95.355 28.2321 96.3977 29.0028L94.6637 32.1308ZM101.169 50.5928V26.4528H104.977V50.5928H101.169ZM120.293 50.7628C118.683 50.7628 117.187 50.4341 115.805 49.7768C114.445 49.1194 113.243 48.2128 112.201 47.0568C111.181 45.9008 110.376 44.5861 109.787 43.1128C109.22 41.6394 108.937 40.0754 108.937 38.4208C108.937 36.7888 109.22 35.2474 109.787 33.7968C110.353 32.3234 111.158 31.0314 112.201 29.9208C113.243 28.7874 114.456 27.9034 115.839 27.2688C117.244 26.6114 118.774 26.2828 120.429 26.2828C122.718 26.2828 124.645 26.7701 126.209 27.7448C127.773 28.6968 128.963 29.9661 129.779 31.5528L126.855 33.6608C126.197 32.3461 125.291 31.3601 124.135 30.7028C122.979 30.0454 121.709 29.7168 120.327 29.7168C118.808 29.7168 117.482 30.1361 116.349 30.9748C115.215 31.7908 114.343 32.8674 113.731 34.2048C113.119 35.5421 112.813 36.9814 112.813 38.5228C112.813 40.1548 113.153 41.6394 113.833 42.9768C114.513 44.2914 115.431 45.3454 116.587 46.1388C117.765 46.9321 119.103 47.3288 120.599 47.3288C123.092 47.3288 125.336 46.1388 127.331 43.7588V41.2088H122.265V38.3868H130.527V50.5928H127.331V47.6008C125.313 49.7088 122.967 50.7628 120.293 50.7628ZM138.678 33.5248V50.5928H134.87V26.4528H137.998L151.666 43.8948V26.4868H155.508V50.5928H152.176L138.678 33.5248ZM179.399 50.7628C177.495 50.7628 175.874 50.4341 174.537 49.7768C173.2 49.1194 172.123 48.2241 171.307 47.0908C170.491 45.9348 169.902 44.6428 169.539 43.2148C169.176 41.7641 168.995 40.2568 168.995 38.6928V26.4528H172.803V38.6928C172.803 39.8034 172.916 40.8801 173.143 41.9228C173.37 42.9428 173.732 43.8608 174.231 44.6768C174.73 45.4928 175.398 46.1388 176.237 46.6148C177.098 47.0908 178.152 47.3288 179.399 47.3288C180.668 47.3288 181.722 47.0908 182.561 46.6148C183.422 46.1161 184.102 45.4588 184.601 44.6428C185.1 43.8041 185.451 42.8748 185.655 41.8548C185.882 40.8348 185.995 39.7808 185.995 38.6928V26.4528H189.837V38.6928C189.837 40.3474 189.633 41.9001 189.225 43.3508C188.84 44.8014 188.228 46.0821 187.389 47.1928C186.573 48.3034 185.496 49.1761 184.159 49.8108C182.844 50.4454 181.258 50.7628 179.399 50.7628ZM194.901 50.5928V26.4528H205.033C206.121 26.4528 207.119 26.6794 208.025 27.1328C208.955 27.5861 209.748 28.1868 210.405 28.9348C211.085 29.6828 211.607 30.5214 211.969 31.4508C212.332 32.3801 212.513 33.3321 212.513 34.3068C212.513 35.6668 212.207 36.9474 211.595 38.1488C210.983 39.3501 210.133 40.3248 209.045 41.0728C207.957 41.8208 206.688 42.1948 205.237 42.1948H198.709V50.5928H194.901ZM198.709 38.8288H204.999C206.065 38.8288 206.937 38.3981 207.617 37.5368C208.297 36.6754 208.637 35.5988 208.637 34.3068C208.637 33.4228 208.456 32.6521 208.093 31.9948C207.731 31.3148 207.255 30.7821 206.665 30.3968C206.099 30.0114 205.475 29.8188 204.795 29.8188H198.709V38.8288Z" fill="black"/>
<defs>
<filter id="filter0_d" x="0" y="0" width="290" height="76" filterUnits="userSpaceOnUse" color-interpolation-filters="sRGB">
<feFlood flood-opacity="0" result="BackgroundImageFix"/>
<feColorMatrix in="SourceAlpha" type="matrix" values="0 0 0 0 0 0 0 0 0 0 0 0 0 0 0 0 0 0 127 0" result="hardAlpha"/>
<feMorphology radius="2" operator="dilate" in="SourceAlpha" result="effect1_dropShadow"/>
<feOffset/>
<feGaussianBlur stdDeviation="2"/>
<feColorMatrix type="matrix" values="0 0 0 0 0 0 0 0 0 0 0 0 0 0 0 0 0 0 0.18 0"/>
<feBlend mode="normal" in2="BackgroundImageFix" result="effect1_dropShadow"/>
<feBlend mode="normal" in="SourceGraphic" in2="effect1_dropShadow" result="shape"/>
</filter>
</defs>
</svg>
