<svg width="229" height="229" viewBox="0 0 229 229" fill="none" xmlns="http://www.w3.org/2000/svg">
<path d="M72.9396 196.423C72.8484 195.935 64.1655 151.394 64.1655 151.394C64.1655 151.394 62.4268 142.207 70.9507 142.207H154.05C154.05 142.207 162.32 141.545 161.003 150.981C159.686 160.417 153.726 195.182 153.726 195.182C153.726 195.182 153.064 200.977 146.941 200.977H79.8859C79.8859 200.977 73.9256 201.721 72.9396 196.423Z" fill="#F7D927"/>
<path d="M57.5386 165.3L54.2817 147.476C54.2817 147.476 51.7373 133.681 65.5388 133.46C79.3403 133.24 108.472 133.46 108.472 133.46L94.1235 109.288C94.1235 109.288 54.392 121.872 46.5572 139.308C38.7224 156.744 57.5386 165.3 57.5386 165.3Z" fill="#F7D927"/>
<path d="M169.207 165.079L172.462 147.255C172.462 147.255 175.006 133.46 161.205 133.24C147.403 133.019 118.273 133.24 118.273 133.24L132.62 109.067C132.62 109.067 172.341 121.652 180.176 139.096C188.01 156.54 169.207 165.079 169.207 165.079Z" fill="#F7D927"/>
<path d="M112.475 104.462C129.697 104.462 143.657 90.5013 143.657 73.2798C143.657 56.0584 129.697 42.0977 112.475 42.0977C95.2537 42.0977 81.293 56.0584 81.293 73.2798C81.293 90.5013 95.2537 104.462 112.475 104.462Z" fill="#F7D927"/>
<path d="M110.804 154.624H123.618C123.58 154.709 123.539 154.793 123.493 154.874C122.901 155.807 122.303 156.736 121.72 157.673C121.679 157.745 121.619 157.803 121.546 157.84C121.473 157.878 121.39 157.893 121.309 157.885C119.612 157.885 117.916 157.885 116.22 157.885C116.122 157.885 116.025 157.885 115.904 157.9C117.341 159.745 117.363 159.787 117.717 161.32H123.618C122.954 162.353 122.305 163.371 121.642 164.38C121.603 164.417 121.558 164.446 121.509 164.465C121.459 164.483 121.406 164.492 121.353 164.49C120.221 164.52 119.089 164.541 117.961 164.564C117.85 164.564 117.749 164.564 117.643 164.579C117.623 164.624 117.613 164.639 117.607 164.658C117.6 164.677 117.592 164.73 117.585 164.768C117.206 167.149 115.959 168.983 114.021 170.368C112.289 171.606 110.327 172.276 108.251 172.654C107.895 172.719 107.539 172.77 107.149 172.834C107.232 172.944 107.285 173.02 107.342 173.095C110.398 177.022 113.455 180.949 116.512 184.877C117.485 186.131 118.455 187.386 119.424 188.641H113.981C113.902 188.527 113.83 188.406 113.745 188.296C109.82 183.355 105.894 178.415 101.967 173.474C101.844 173.333 101.781 173.148 101.793 172.961C101.825 172.113 101.835 171.28 101.856 170.44C101.856 170.359 101.869 170.277 101.875 170.185H102.041C102.993 170.213 103.949 170.262 104.899 170.262C106.091 170.276 107.28 170.126 108.432 169.816C110.09 169.354 111.438 168.47 112.289 166.929C112.708 166.154 112.995 165.315 113.137 164.446H100.856C101.492 163.366 102.1 162.363 102.683 161.35C102.728 161.254 102.802 161.175 102.895 161.124C102.987 161.074 103.094 161.054 103.199 161.068C106.231 161.119 109.263 161.163 112.295 161.201H112.626C112.547 161.051 112.499 160.951 112.441 160.854C111.759 159.692 110.703 159.017 109.456 158.604C108.167 158.193 106.824 157.979 105.472 157.968C103.866 157.934 102.261 157.968 100.656 157.968V157.913C100.714 157.839 100.775 157.766 100.826 157.701C101.449 156.778 102.073 155.856 102.685 154.927C102.729 154.847 102.794 154.78 102.874 154.736C102.955 154.691 103.046 154.671 103.137 154.677C104.986 154.677 106.836 154.677 108.686 154.677C109.392 154.658 110.098 154.637 110.804 154.624Z" fill="white"/>
</svg>
