<svg id="Layer_1" data-name="Layer 1" xmlns="http://www.w3.org/2000/svg" viewBox="0 0 1080 1080"><defs><style>.cls-1{fill:#fff;}</style></defs><title>Untitled-1</title><path d="M344,926.36c-.43-2.3-41.38-212.36-41.38-212.36s-8.2-43.33,32-43.33H726.53s39-3.12,32.79,41.38S725,920.51,725,920.51s-3.12,27.33-32,27.33H376.76S348.65,951.35,344,926.36Z"/><path d="M271.36,779.58,256,695.52s-12-65.06,53.09-66.1,202.48,0,202.48,0l-67.67-114S256.52,574.77,219.57,657,271.36,779.58,271.36,779.58Z"/><path d="M798,778.54l15.35-84.06s12-65.06-53.09-66.1-202.47,0-202.47,0l67.66-114S812.78,573.73,849.73,656,798,778.54,798,778.54Z"/><path class="cls-1" d="M522.57,729.23H583a13,13,0,0,1-.59,1.18c-2.79,4.4-5.61,8.78-8.36,13.2a2,2,0,0,1-1.94,1c-8,0-16,0-24,0-.46,0-.92,0-1.49.07,6.78,8.7,6.88,8.9,8.55,16.13H583c-3.13,4.87-6.19,9.67-9.32,14.43a1.85,1.85,0,0,1-1.36.52c-5.34.14-10.68.24-16,.35-.52,0-1,0-1.5.07-.09.21-.14.28-.17.37s-.07.34-.1.52c-1.79,11.23-7.67,19.88-16.81,26.41-8.17,5.84-17.42,9-27.21,10.78-1.68.31-3.36.55-5.2.85.39.52.64.88.91,1.23q21.62,27.78,43.25,55.57,6.88,8.87,13.73,17.75H537.55c-.37-.54-.71-1.11-1.11-1.63q-27.77-34.95-55.55-69.9a3.37,3.37,0,0,1-.82-2.42c.15-4,.2-7.93.3-11.89,0-.38.06-.77.09-1.2h.78c4.49.13,9,.36,13.48.36a61.3,61.3,0,0,0,16.66-2.1c7.82-2.18,14.18-6.35,18.19-13.62a37.11,37.11,0,0,0,4-11.71H475.65c3-5.09,5.87-9.82,8.62-14.6a2.34,2.34,0,0,1,2.43-1.33q21.45.36,42.9.63h1.56c-.37-.71-.6-1.18-.87-1.64-3.22-5.48-8.2-8.66-14.08-10.61a63.51,63.51,0,0,0-18.79-3c-7.57-.16-15.14,0-22.71,0v-.26c.27-.35.56-.69.8-1,2.94-4.35,5.88-8.7,8.77-13.08a2.25,2.25,0,0,1,2.13-1.18q13.08,0,26.17,0C515.91,729.39,519.24,729.29,522.57,729.23Z"/><circle cx="530.45" cy="345.6" r="147.06"/></svg>