<svg width="280" height="280" viewBox="0 0 280 280" fill="none" xmlns="http://www.w3.org/2000/svg">
<path d="M178.94 112.259C178.55 111.868 178.332 111.338 178.332 110.785C178.332 110.233 178.55 109.703 178.94 109.311L185.561 102.69C185.953 102.3 186.483 102.082 187.035 102.082C187.588 102.082 188.118 102.3 188.509 102.69L203.984 118.165V65.7689C203.984 62.925 202.855 60.1975 200.844 58.1866C198.833 56.1756 196.105 55.0459 193.261 55.0459H56.6318C53.7877 55.0459 51.06 56.1756 49.0486 58.1864C47.0373 60.1973 45.9069 62.9247 45.9062 65.7689V142.025C45.9069 144.869 47.0373 147.596 49.0486 149.607C51.06 151.618 53.7877 152.748 56.6318 152.748H193.261C196.105 152.748 198.833 151.618 200.844 149.607C202.855 147.596 203.984 144.869 203.984 142.025V137.304L178.94 112.259Z" fill="#F7D927"/>
<path d="M149.279 203.894C149.124 203.894 149.002 203.894 148.88 203.894C148.822 203.898 148.764 203.889 148.71 203.868C148.656 203.848 148.606 203.816 148.565 203.775C148.524 203.735 148.491 203.685 148.47 203.631C148.449 203.577 148.439 203.519 148.442 203.461C148.416 202.912 148.421 202.361 148.458 201.813C148.477 201.554 148.477 201.294 148.458 201.035C148.424 200.394 148.769 199.998 149.329 199.751C149.305 199.5 149.305 199.246 149.329 198.994C149.379 198.72 149.525 198.473 149.741 198.296C149.956 198.119 150.227 198.024 150.506 198.027C152.191 198.027 153.876 198.027 155.561 198.027C155.65 198.021 155.738 198.042 155.814 198.088C155.889 198.134 155.949 198.203 155.983 198.285C156.017 198.366 156.025 198.457 156.005 198.543C155.986 198.63 155.939 198.708 155.872 198.766C155.502 199.158 155.502 199.422 155.872 199.803C155.94 199.861 155.987 199.939 156.008 200.025C156.029 200.111 156.022 200.202 155.989 200.284C155.956 200.367 155.898 200.436 155.823 200.484C155.748 200.532 155.66 200.555 155.572 200.55H155.152C154.892 200.55 154.765 200.687 154.763 200.962C154.76 201.237 154.89 201.387 155.141 201.387H156.894C156.938 200.936 156.985 200.498 157.026 200.06C157.185 198.373 157.342 196.687 157.495 195.002C157.513 194.813 157.537 194.626 157.545 194.437C157.591 193.267 158.582 192.363 159.676 192.217C160.222 192.156 160.773 192.136 161.322 192.158C161.855 192.143 162.389 192.182 162.914 192.274C163.402 192.39 163.839 192.662 164.158 193.048C164.478 193.435 164.663 193.915 164.685 194.416C164.857 196.663 165.04 198.91 165.232 201.157C165.232 201.229 165.252 201.302 165.265 201.382H168.656C168.656 201.232 168.656 201.094 168.656 200.957C168.664 200.62 168.805 200.3 169.048 200.067C169.291 199.834 169.616 199.706 169.953 199.713C170.471 199.713 170.471 199.713 170.666 199.215C171.062 198.224 171.459 197.231 171.864 196.244C171.9 196.177 171.913 196.1 171.899 196.025C171.885 195.951 171.846 195.883 171.788 195.834C171.366 195.386 170.959 194.921 170.546 194.463C170.487 194.398 170.432 194.33 170.339 194.221C170.142 194.981 169.561 195.36 169.097 195.844C169.061 195.888 169.016 195.923 168.964 195.947C168.913 195.971 168.857 195.983 168.8 195.983C168.744 195.983 168.688 195.971 168.636 195.947C168.585 195.923 168.54 195.888 168.504 195.844C167.812 195.153 167.121 194.462 166.429 193.77C166.385 193.733 166.349 193.686 166.324 193.632C166.299 193.579 166.287 193.522 166.287 193.463C166.287 193.405 166.299 193.347 166.324 193.294C166.349 193.241 166.385 193.194 166.429 193.156C166.689 192.884 166.948 192.611 167.233 192.357C167.419 192.191 167.636 192.062 167.871 191.98C168.107 191.897 168.356 191.862 168.605 191.876C168.854 191.89 169.098 191.954 169.323 192.063C169.548 192.171 169.748 192.324 169.914 192.51C170.811 193.506 171.705 194.504 172.613 195.489C172.722 195.588 172.795 195.72 172.82 195.864C172.846 196.009 172.822 196.158 172.753 196.288C172.32 197.325 171.91 198.375 171.49 199.42C171.456 199.503 171.431 199.588 171.386 199.707C171.601 199.686 171.817 199.715 172.018 199.793C172.218 199.87 172.398 199.994 172.543 200.153C172.849 200.501 172.888 200.931 172.856 201.395H173.186C173.546 201.395 173.704 201.546 173.704 201.898C173.704 202.417 173.704 202.92 173.704 203.428C173.715 203.494 173.71 203.561 173.689 203.625C173.669 203.688 173.634 203.746 173.587 203.794C173.54 203.841 173.482 203.877 173.419 203.898C173.355 203.919 173.288 203.925 173.222 203.915H172.864V215.043C172.864 215.561 172.753 215.686 172.211 215.686C171.757 215.686 171.306 215.686 170.852 215.686C170.479 215.686 170.334 215.53 170.334 215.154C170.334 214.586 170.334 214.021 170.334 213.453C170.334 213.233 170.279 213.158 170.049 213.16C168.234 213.16 166.419 213.16 164.62 213.16H161.957H161.669L161.633 213.223C161.725 213.317 161.823 213.403 161.929 213.482C162.48 213.802 163.106 213.972 163.744 213.974C164.441 214.021 165.141 214.011 165.833 214.091C166.194 214.151 166.544 214.266 166.87 214.433C167.013 214.501 167.134 214.606 167.223 214.737C167.311 214.868 167.363 215.02 167.373 215.177C167.384 215.232 167.385 215.288 167.374 215.343C167.363 215.398 167.342 215.45 167.31 215.496C167.279 215.543 167.239 215.583 167.193 215.613C167.146 215.644 167.094 215.665 167.039 215.675C166.984 215.688 166.928 215.689 166.873 215.679C166.818 215.669 166.765 215.647 166.719 215.616C166.673 215.585 166.633 215.544 166.604 215.497C166.574 215.449 166.554 215.396 166.546 215.341C166.529 215.255 166.483 215.178 166.416 215.122C166.349 215.066 166.265 215.034 166.178 215.032C165.628 214.943 165.075 214.883 164.519 214.853C163.671 214.82 162.821 214.809 162.025 214.472C161.68 214.306 161.346 214.12 161.024 213.915C160.078 214.76 158.864 214.814 157.638 214.851C157.082 214.877 156.528 214.933 155.979 215.019C155.875 215.023 155.776 215.064 155.699 215.133C155.622 215.203 155.573 215.298 155.559 215.4C155.549 215.448 155.53 215.492 155.502 215.532C155.475 215.572 155.44 215.606 155.4 215.632C155.359 215.658 155.314 215.675 155.266 215.684C155.219 215.692 155.17 215.691 155.123 215.68C155.022 215.676 154.927 215.632 154.858 215.559C154.788 215.487 154.75 215.39 154.75 215.289C154.741 215.123 154.779 214.958 154.858 214.812C154.937 214.666 155.055 214.545 155.198 214.462C155.658 214.183 156.185 214.034 156.723 214.031C157.425 213.982 158.138 213.998 158.838 213.917C159.257 213.847 159.666 213.728 160.057 213.562C160.213 213.48 160.356 213.376 160.482 213.254L160.456 213.191H151.797V214.54C151.797 214.778 151.797 215.017 151.797 215.253C151.802 215.309 151.794 215.365 151.776 215.418C151.757 215.471 151.728 215.52 151.689 215.561C151.65 215.602 151.603 215.634 151.551 215.655C151.499 215.677 151.443 215.687 151.387 215.686C150.819 215.698 150.251 215.698 149.684 215.686C149.404 215.686 149.274 215.499 149.274 215.167C149.274 213.648 149.274 212.126 149.274 210.604V203.894H149.279ZM161.086 205.167C158.628 205.167 156.16 205.167 153.713 205.167C153.461 205.161 153.211 205.206 152.977 205.299C152.743 205.393 152.531 205.532 152.353 205.71C152.175 205.888 152.035 206.101 151.942 206.335C151.848 206.568 151.803 206.819 151.81 207.07C151.81 207.737 151.81 208.403 151.81 209.069C151.797 209.333 151.839 209.597 151.935 209.844C152.03 210.09 152.176 210.314 152.364 210.5C152.551 210.686 152.776 210.831 153.023 210.925C153.27 211.019 153.534 211.06 153.798 211.045H168.397C168.653 211.055 168.908 211.013 169.147 210.92C169.386 210.828 169.603 210.687 169.785 210.507C169.967 210.326 170.11 210.11 170.205 209.873C170.3 209.635 170.345 209.38 170.336 209.124C170.336 208.45 170.336 207.776 170.336 207.101C170.347 206.845 170.305 206.59 170.212 206.351C170.119 206.112 169.978 205.895 169.797 205.713C169.616 205.532 169.399 205.39 169.161 205.296C168.922 205.203 168.666 205.16 168.41 205.17C165.968 205.162 163.528 205.167 161.086 205.167ZM172.854 202.238H149.3V203.034H172.854V202.238ZM153.928 200.54H150.112C149.964 200.54 149.816 200.54 149.668 200.54C149.565 200.547 149.468 200.592 149.397 200.667C149.325 200.742 149.284 200.841 149.282 200.944C149.28 201.048 149.317 201.149 149.386 201.227C149.454 201.305 149.549 201.355 149.653 201.367C149.702 201.371 149.751 201.371 149.801 201.367H153.811C153.852 201.364 153.893 201.359 153.933 201.351L153.928 200.54Z" fill="#F7D927"/>
<path d="M138.763 215.704H133.342C133.342 212.899 133.342 210.093 133.342 207.288C133.355 207.051 133.317 206.813 133.232 206.591C133.147 206.369 133.017 206.167 132.849 205.998C132.681 205.829 132.48 205.698 132.258 205.612C132.036 205.526 131.799 205.488 131.561 205.499H128.375C127.244 205.499 126.539 206.207 126.539 207.34V215.704H121.118C121.105 215.704 121.095 215.673 121.082 215.667C120.115 215.343 119.736 214.814 119.736 213.796V203.806H118.842C118.559 203.806 118.276 203.806 117.994 203.806C117.637 203.804 117.29 203.687 117.004 203.474C116.718 203.26 116.508 202.961 116.405 202.619C116.384 202.551 116.358 202.489 116.332 202.424V201.787C116.503 201.183 116.921 200.75 117.346 200.327C120.949 196.725 124.553 193.126 128.157 189.529C128.403 189.274 128.668 189.038 128.95 188.824C129.236 188.609 129.584 188.492 129.942 188.492C130.3 188.492 130.648 188.609 130.934 188.824C131.127 188.963 131.309 189.119 131.478 189.288C132.591 190.392 133.702 191.499 134.809 192.609C134.874 192.671 134.942 192.731 135.043 192.829C135.043 192.482 135.043 192.199 135.043 191.917C135.041 191.69 135.085 191.466 135.171 191.256C135.257 191.047 135.384 190.857 135.544 190.697C135.705 190.538 135.896 190.412 136.106 190.327C136.316 190.242 136.54 190.2 136.767 190.203C137.285 190.203 137.804 190.203 138.335 190.203C138.578 190.186 138.822 190.221 139.049 190.307C139.277 190.392 139.484 190.525 139.656 190.697C139.828 190.869 139.961 191.076 140.046 191.304C140.132 191.532 140.167 191.775 140.15 192.018C140.15 193.905 140.15 195.793 140.15 197.677C140.146 197.764 140.162 197.85 140.195 197.93C140.229 198.01 140.28 198.081 140.345 198.139C141.096 198.878 141.846 199.622 142.582 200.374C142.856 200.638 143.101 200.93 143.313 201.245C143.447 201.462 143.53 201.708 143.554 201.962C143.579 202.216 143.545 202.473 143.455 202.712C143.365 202.951 143.222 203.167 143.036 203.342C142.85 203.517 142.626 203.648 142.382 203.723C142.151 203.782 141.913 203.81 141.675 203.806C141.174 203.806 140.674 203.806 140.155 203.806V204.156C140.155 207.423 140.155 210.691 140.155 213.959C140.166 214.339 140.05 214.711 139.825 215.017C139.6 215.324 139.279 215.546 138.914 215.649C138.856 215.665 138.81 215.704 138.763 215.704Z" fill="#F7D927"/>
<path d="M253.427 118.093H215.544C213.753 118.093 212.301 119.545 212.301 121.336V190.605C212.301 192.396 213.753 193.848 215.544 193.848H253.427C255.218 193.848 256.67 192.396 256.67 190.605V121.336C256.67 119.545 255.218 118.093 253.427 118.093Z" fill="#F7D927"/>
<path d="M234.246 115.643C243.477 115.643 250.96 108.159 250.96 98.9283C250.96 89.6972 243.477 82.2139 234.246 82.2139C225.015 82.2139 217.531 89.6972 217.531 98.9283C217.531 108.159 225.015 115.643 234.246 115.643Z" fill="#F7D927"/>
<path d="M224.571 140.231L188.661 104.321C187.847 103.507 186.528 103.507 185.714 104.321L180.632 109.403C179.818 110.217 179.818 111.537 180.632 112.351L216.541 148.26C217.355 149.074 218.675 149.074 219.489 148.26L224.571 143.178C225.385 142.364 225.385 141.045 224.571 140.231Z" fill="#F7D927"/>
<path d="M83.7605 110.322L80.4731 104.691L77.1831 110.322H72.1094L77.9349 100.315L72.3894 90.8105H77.4605L80.4731 95.9672L83.4805 90.8105H88.5516L83.006 100.315L88.8316 110.322H83.7605Z" fill="white"/>
<path d="M89.705 95.3557L93.7416 91.2594C94.325 90.6734 94.6335 90.2223 94.6335 89.7816C94.6335 89.3408 94.2964 89.0297 93.7676 89.0297C93.0701 89.0297 92.6242 89.5327 92.2898 90.339L89.5312 88.7834C89.8687 87.9285 90.4626 87.1991 91.2313 86.6954C92.0001 86.1917 92.9061 85.9384 93.8246 85.9705C96.1916 85.9705 98.0609 87.3912 98.0609 89.5094C98.0609 90.9845 97.169 92.0734 96.1087 93.139L94.7994 94.4508H98.2268V97.5153H89.705V95.3557Z" fill="white"/>
<path d="M113.387 102.516H108.928V106.976H105.039V102.516H100.566V98.6145H105.026V94.1553H108.915V98.6145H113.374L113.387 102.516Z" fill="white"/>
<path d="M124.395 102.825V110.322H119.936V102.825L113.387 90.8105H118.46L122.165 98.3291L125.873 90.8105H130.946L124.395 102.825Z" fill="white"/>
<path d="M131.529 95.3557L135.571 91.2595C136.157 90.6735 136.463 90.2224 136.463 89.7817C136.463 89.3409 136.128 89.0298 135.6 89.0298C134.902 89.0298 134.456 89.5328 134.122 90.3391L131.363 88.7835C131.7 87.9284 132.293 87.1986 133.061 86.6948C133.83 86.191 134.736 85.9379 135.654 85.9706C138.024 85.9706 139.89 87.3913 139.89 89.5095C139.89 90.9846 138.998 92.0735 137.941 93.1391L136.629 94.4354H140.059V97.4998H131.529V95.3557Z" fill="white"/>
<path d="M142.121 95.6875H154.387V99.5919H142.121V95.6875ZM142.121 101.542H154.387V105.43H142.121V101.542Z" fill="white"/>
<path d="M172.219 96.3848C172.219 95.41 171.579 94.7697 170.158 94.7697C168.623 94.7697 167.706 95.8067 167.148 97.103L163.301 94.9019C164.527 92.0371 167.221 90.4219 170.332 90.4219C173.51 90.4219 176.686 92.3715 176.686 95.996C176.686 100.144 172.227 101.44 172.227 103.354H167.768C167.76 100.092 172.219 98.8374 172.219 96.3848ZM167.343 108.064C167.341 107.541 167.495 107.028 167.785 106.592C168.075 106.155 168.488 105.815 168.971 105.613C169.455 105.412 169.987 105.358 170.501 105.46C171.015 105.561 171.488 105.812 171.859 106.182C172.23 106.552 172.483 107.024 172.585 107.537C172.688 108.051 172.636 108.584 172.436 109.068C172.236 109.552 171.897 109.966 171.461 110.257C171.026 110.548 170.514 110.704 169.99 110.704C169.29 110.699 168.621 110.42 168.126 109.926C167.631 109.432 167.349 108.764 167.343 108.064Z" fill="white"/>
</svg>
