<svg id="Layer_1" data-name="Layer 1" xmlns="http://www.w3.org/2000/svg" viewBox="0 0 1080 1080"><defs><style>.cls-1{fill:#fff;}</style></defs><title>Untitled-1</title><path d="M690.19,433a8.06,8.06,0,0,1,0-11.37l25.54-25.54a8.06,8.06,0,0,1,11.37,0l59.69,59.69V253.68a41.36,41.36,0,0,0-41.36-41.36h-527a41.37,41.37,0,0,0-41.37,41.36V547.81a41.37,41.37,0,0,0,41.37,41.36h527a41.36,41.36,0,0,0,41.36-41.36V529.6Z"/><path d="M575.79,786.45c-.6,0-1.07,0-1.54,0a1.6,1.6,0,0,1-1.69-1.67,56.19,56.19,0,0,1,.06-6.36,20.26,20.26,0,0,0,0-3c-.13-2.47,1.2-4,3.36-4.95a15.77,15.77,0,0,1,0-2.92,4.56,4.56,0,0,1,4.54-3.73c6.5,0,13,0,19.5,0a1.63,1.63,0,0,1,1.2,2.85c-1.43,1.51-1.43,2.53,0,4a1.64,1.64,0,0,1-1.16,2.88h-1.62c-1,0-1.49.53-1.5,1.59s.49,1.64,1.46,1.64h6.76c.17-1.74.35-3.43.51-5.12q.92-9.76,1.81-19.51c.07-.73.16-1.45.19-2.18.18-4.51,4-8,8.22-8.56a42,42,0,0,1,6.35-.23,30.59,30.59,0,0,1,6.14.45,8.89,8.89,0,0,1,6.83,8.26q1,13,2.11,26c0,.28.08.56.13.87h13.08c0-.58,0-1.11,0-1.64a4.91,4.91,0,0,1,5-4.8c2,0,2,0,2.75-1.92,1.53-3.82,3.06-7.65,4.62-11.46a1.27,1.27,0,0,0-.29-1.58c-1.63-1.73-3.2-3.52-4.79-5.29-.23-.25-.44-.51-.8-.93-.76,2.93-3,4.39-4.79,6.26a1.49,1.49,0,0,1-2.29,0q-4-4-8-8a1.55,1.55,0,0,1,0-2.37c1-1.05,2-2.1,3.1-3.08a7.3,7.3,0,0,1,10.34.59c3.46,3.84,6.91,7.69,10.41,11.49a2.54,2.54,0,0,1,.54,3.08c-1.67,4-3.25,8.05-4.87,12.08-.13.32-.23.65-.4,1.11a5.31,5.31,0,0,1,4.46,1.72c1.18,1.34,1.33,3,1.21,4.79H668c1.39,0,2,.58,2,1.94,0,2,0,3.94,0,5.9a1.64,1.64,0,0,1-1.86,1.88h-1.38v42.92c0,2-.43,2.48-2.52,2.48-1.75,0-3.49,0-5.24,0-1.44,0-2-.6-2-2.05,0-2.19,0-4.37,0-6.56,0-.85-.21-1.14-1.1-1.13-7,0-14,0-20.94,0l-10.27,0h-1.11l-.14.24a9.62,9.62,0,0,0,1.14,1,14.07,14.07,0,0,0,7,1.9c2.69.18,5.39.14,8.06.45a13.71,13.71,0,0,1,4,1.32,3.42,3.42,0,0,1,1.94,2.87,1.62,1.62,0,0,1-1.29,1.92,1.56,1.56,0,0,1-1.9-1.29,1.49,1.49,0,0,0-1.42-1.19,59.88,59.88,0,0,0-6.4-.69c-3.27-.13-6.55-.17-9.62-1.47a37.47,37.47,0,0,1-3.86-2.15c-3.65,3.26-8.33,3.47-13.06,3.61a59.8,59.8,0,0,0-6.4.65,1.7,1.7,0,0,0-1.62,1.47,1.4,1.4,0,0,1-1.68,1.08,1.51,1.51,0,0,1-1.44-1.51,3.48,3.48,0,0,1,1.73-3.19,11.43,11.43,0,0,1,5.88-1.66c2.71-.19,5.46-.13,8.16-.44a20.85,20.85,0,0,0,4.7-1.37,7.06,7.06,0,0,0,1.64-1.19l-.1-.24h-33.4v5.2c0,.92,0,1.84,0,2.75a1.54,1.54,0,0,1-1.58,1.67q-3.29.07-6.57,0c-1.08,0-1.58-.72-1.58-2,0-5.86,0-11.73,0-17.6V786.45Zm45.54,4.91h0c-9.48,0-19,0-28.44,0a7.16,7.16,0,0,0-7.34,7.34c0,2.57,0,5.14,0,7.71a7.27,7.27,0,0,0,7.67,7.62h56.31a7.19,7.19,0,0,0,7.48-7.41c0-2.6,0-5.2,0-7.8a7.15,7.15,0,0,0-7.43-7.45C640.16,791.34,630.75,791.36,621.33,791.36Zm45.39-11.3H575.87v3.07h90.85Zm-73-6.55H579c-.57,0-1.14,0-1.71,0a1.6,1.6,0,0,0-1.49,1.56,1.61,1.61,0,0,0,1.43,1.63,3.62,3.62,0,0,0,.57,0h15.47a3.94,3.94,0,0,0,.47-.06Z"/><path d="M535.23,832H514.32q0-16.23,0-32.46a6.56,6.56,0,0,0-6.87-6.9H495.16c-4.36,0-7.08,2.73-7.08,7.1V832H467.17c-.05,0-.09-.12-.14-.14-3.73-1.25-5.19-3.29-5.19-7.22V786.11h-3.45c-1.09,0-2.18,0-3.27,0a6.45,6.45,0,0,1-6.13-4.58c-.08-.26-.18-.5-.28-.75v-2.46c.66-2.33,2.27-4,3.91-5.63q20.85-20.84,41.7-41.65a27.17,27.17,0,0,1,3.06-2.72,6.36,6.36,0,0,1,7.65,0,17.11,17.11,0,0,1,2.1,1.79q6.44,6.39,12.85,12.81c.25.24.51.47.9.85,0-1.34,0-2.43,0-3.52a6.56,6.56,0,0,1,6.65-6.61c2,0,4,0,6.05,0a6.56,6.56,0,0,1,7,7c0,7.28,0,14.56,0,21.83a2.25,2.25,0,0,0,.75,1.78c2.9,2.85,5.79,5.72,8.63,8.62a20.94,20.94,0,0,1,2.82,3.36,6.46,6.46,0,0,1-3.59,9.56,10.31,10.31,0,0,1-2.73.32c-1.93,0-3.86,0-5.86,0v1.35q0,18.9,0,37.81a6.58,6.58,0,0,1-4.79,6.52C535.59,831.85,535.41,832,535.23,832Z"/><rect x="818.88" y="455.5" width="171.14" height="292.2" rx="12.51"/><circle cx="903.52" cy="381.58" r="64.47"/><rect x="675.48" y="465.22" width="211.96" height="43.8" rx="8.04" transform="translate(573.33 -409.9) rotate(45)"/><path class="cls-1" d="M323.08,425.53,310.4,403.81l-12.69,21.72H278.14l22.47-38.6-21.39-36.66h19.56l11.62,19.89L322,350.27h19.56l-21.39,36.66,22.47,38.6Z"/><path class="cls-1" d="M346,367.8,361.57,352c2.25-2.26,3.44-4,3.44-5.7s-1.3-2.9-3.34-2.9c-2.69,0-4.41,1.94-5.7,5.05l-10.64-6a17.16,17.16,0,0,1,16.56-10.85c9.13,0,16.34,5.48,16.34,13.65,0,5.69-3.44,9.89-7.53,14l-5.05,5.06h13.22v11.82H346Z"/><path class="cls-1" d="M437.35,395.42h-17.2v17.2h-15v-17.2H387.9V380.37h17.2v-17.2h15v17.2h17.2Z"/><path class="cls-1" d="M479.81,396.61v28.92h-17.2V396.61l-25.26-46.34h19.57l14.29,29,14.3-29h19.57Z"/><path class="cls-1" d="M507.33,367.8,522.92,352c2.26-2.26,3.44-4,3.44-5.7s-1.29-2.9-3.33-2.9c-2.69,0-4.41,1.94-5.7,5.05l-10.64-6a17.13,17.13,0,0,1,16.55-10.85c9.14,0,16.34,5.48,16.34,13.65,0,5.69-3.44,9.89-7.52,14L527,364.25h13.23v11.82h-32.9Z"/><path class="cls-1" d="M548.18,369.08h47.31v15.06H548.18Zm0,22.58h47.31v15H548.18Z"/><path class="cls-1" d="M664.28,371.77c0-3.76-2.47-6.23-7.95-6.23-5.92,0-9.46,4-11.61,9l-14.84-8.49C634.61,355,645,348.77,657,348.77c12.26,0,24.51,7.52,24.51,21.5,0,16-17.2,21-17.2,28.38h-17.2C647.08,386.07,664.28,381.23,664.28,371.77Zm-18.81,45.05A10.21,10.21,0,1,1,655.68,427,10.28,10.28,0,0,1,645.47,416.82Z"/></svg>