<svg width="35" height="35" viewBox="0 0 35 35" fill="none" xmlns="http://www.w3.org/2000/svg">
<path fill-rule="evenodd" clip-rule="evenodd" d="M0 17.5C0 17.5 0 17.5 0 17.5C0 12.8587 1.84374 8.40752 5.12563 5.12563C8.40752 1.84374 12.8587 0 17.5 0C22.1413 0 26.5925 1.84374 29.8744 5.12563C33.1563 8.40752 35 12.8587 35 17.5C35 22.1413 33.1563 26.5925 29.8744 29.8744C26.5925 33.1563 22.1413 35 17.5 35C12.8587 35 8.40752 33.1563 5.12563 29.8744C1.84374 26.5925 0 22.1413 0 17.5C0 17.5 0 17.5 0 17.5ZM16.5013 24.9903C16.5013 24.9901 16.5014 24.9899 16.5015 24.9897L25.8487 13.3048C26.2507 12.8021 26.1692 12.0687 25.6666 11.6666C25.164 11.2646 24.4307 11.346 24.0286 11.8485L18.6644 18.5515C17.2923 20.2661 14.7797 20.5198 13.0925 19.114L10.976 17.3506C10.4812 16.9383 9.74572 17.0051 9.33334 17.5C8.92096 17.9949 8.98779 18.7303 9.48263 19.1427L16.4998 24.9911C16.5004 24.9916 16.5013 24.9911 16.5013 24.9903Z" fill="#F7D927"/>
</svg>
