<svg id="Layer_1" data-name="Layer 1" xmlns="http://www.w3.org/2000/svg" xmlns:xlink="http://www.w3.org/1999/xlink" viewBox="0 0 680 460"><defs><style>.cls-1{fill:#f2f7f9;}.cls-2{fill:#e6e7e8;}.cls-3{fill:url(#linear-gradient);}.cls-4{fill:url(#radial-gradient);}.cls-5{fill:#d3eff4;}.cls-6{fill:#001423;}.cls-7{fill:url(#linear-gradient-2);}.cls-8{fill:url(#linear-gradient-3);}.cls-9{fill:#feb5a2;}.cls-10{fill:#efa295;}.cls-11{fill:url(#linear-gradient-4);}.cls-12{fill:url(#linear-gradient-5);}</style><linearGradient id="linear-gradient" x1="427.47" y1="172.01" x2="680" y2="172.01" gradientUnits="userSpaceOnUse"><stop offset="0" stop-color="#064463"/><stop offset="1" stop-color="#002635"/></linearGradient><radialGradient id="radial-gradient" cx="558.51" cy="172.01" r="103.63" gradientTransform="translate(8.93) scale(0.98 1)" gradientUnits="userSpaceOnUse"><stop offset="0" stop-color="#afe4f9"/><stop offset="1" stop-color="#8cd7ed"/></radialGradient><linearGradient id="linear-gradient-2" x1="383.54" y1="408.15" x2="383.54" y2="278.97" xlink:href="#linear-gradient"/><linearGradient id="linear-gradient-3" x1="362.49" y1="234.58" x2="371.6" y2="234.58" gradientUnits="userSpaceOnUse"><stop offset="0" stop-color="#52acff"/><stop offset="1" stop-color="#1a7dba"/></linearGradient><linearGradient id="linear-gradient-4" x1="388.25" y1="288.54" x2="388.25" y2="215.72" xlink:href="#linear-gradient-3"/><linearGradient id="linear-gradient-5" x1="375.7" y1="232.43" x2="397.95" y2="232.43" xlink:href="#linear-gradient-3"/></defs><title>support</title><circle class="cls-1" cx="561.79" cy="139.08" r="181.39"/><ellipse class="cls-2" cx="388.25" cy="412.28" rx="52.13" ry="3.19"/><rect class="cls-3" x="427.47" y="94.41" width="252.53" height="155.19"/><rect class="cls-4" x="431.78" y="98.4" width="248.22" height="147.21"/><rect class="cls-5" x="449.02" y="115.37" width="87.15" height="6.13"/><rect class="cls-5" x="449.02" y="125.69" width="87.15" height="6.13"/><rect class="cls-5" x="449.02" y="136.02" width="87.15" height="6.13"/><rect class="cls-5" x="449.02" y="145.63" width="87.15" height="6.13"/><rect class="cls-5" x="449.02" y="155.25" width="87.15" height="6.13"/><rect class="cls-5" x="449.02" y="165.57" width="87.15" height="6.13"/><rect class="cls-5" x="449.02" y="175.9" width="87.15" height="6.13"/><rect class="cls-5" x="449.02" y="185.51" width="87.15" height="6.13"/><rect class="cls-5" x="449.02" y="196.54" width="87.15" height="6.13"/><rect class="cls-5" x="449.02" y="206.86" width="87.15" height="6.13"/><rect class="cls-5" x="449.02" y="217.19" width="87.15" height="6.13"/><rect class="cls-5" x="449.02" y="226.8" width="87.15" height="6.13"/><circle class="cls-5" cx="608.38" cy="168.64" r="46.6"/><rect x="428.15" y="204.95" width="29.16" height="3.34" transform="translate(181.33 -206.14) rotate(32.64)"/><path class="cls-6" d="M395.16,406.18v5.63l25.85.47s3.49-9.88-15.25-6.1Z"/><path class="cls-7" d="M355,408.15h11.89s21.53-73.74,22.37-89.5c0,0,6.61,32.65,4,88l12.88-.42S417.58,295.86,408.58,279l-39.82,1s-2.4,24.2-1.69,36.58-8.59,71.35-8.59,71.35Z"/><polygon class="cls-8" points="371.6 224.88 362.49 241.75 371.6 244.28 371.6 224.88"/><path class="cls-9" d="M378.57,217.89l14.56-1.72L391,202.54l4.7,4.07a13.79,13.79,0,0,0,1.56-8.29l1.72-1.57s.86-.94-.47-2.19-3.28-3.29-3.28-3.29a6.51,6.51,0,0,1-1-3.44c-.16-2.35-3.68-4.78-3.68-4.78l-9.71,9.08-3.52,5v9.79Z"/><path class="cls-10" d="M395.72,206.61s-1.75,2.94-3.6,3.06l-1.49-8.77Z"/><path d="M391,183.37s2.59-4.43,1-6.72-6.29,1.35-8.75,1.58-13.21.83-12.57,9.81,4.93,18.56,6.29,18.85,8.27-1.53,8.33-3.76-2.11-8.57-.76-10.63,5.28,2.82,5.28,2.82l1.18-.59s-2.37-4.73-1.76-7.86S391,183.37,391,183.37Z"/><path class="cls-9" d="M363.2,242,360,251.46s-3.09,7,2.46,7.74a94.93,94.93,0,0,0,13.21.35l-5.36-15.62Z"/><path class="cls-11" d="M370.87,234.93s-2.68,49.11-4.65,53.61l44-4.27s.42-56.8-14.92-68.06l-15.2-.49s-7.45-.14-8.51,8.79S370.93,233.81,370.87,234.93Z"/><path class="cls-12" d="M389.93,243.51l8-10L384.87,222a6.5,6.5,0,0,0-7.95,1.9c-3.38,4.22,1.33,9.08,1.33,9.08Z"/><path class="cls-9" d="M398,234.26s6,7.07,10.56,5.28,22.27-24.81,22.27-24.81l7.28,4.33-22.9,29.23s-5.49,5.7-11.82,1.8-12-8.28-12-8.28Z"/><path class="cls-6" d="M356.32,408.15v5.63l25.86.47s3.48-9.88-15.25-6.1Z"/><path class="cls-9" d="M430.78,214.73s1.65-1.83,1.65-3.51,1.76-5.14,3.94-6.55c0,0,2.18.71,2.39-.56s.28-2.67,1.48-1.55,3.45,1.55,2,6.33a67.21,67.21,0,0,1-4.22,10.17Z"/></svg>