<svg xmlns="http://www.w3.org/2000/svg" viewBox="0 0 500 500"><defs><style>.cls-1{fill:#afa368;}.cls-2{fill:#f2e8ad;}.cls-3{fill:#fffcee;}.cls-4{fill:#fafbff;opacity:0.16;}.cls-5,.cls-6{fill:none;stroke:#ffeb00;stroke-miterlimit:10;}.cls-5{stroke-width:0.85px;}.cls-6{stroke-width:0.85px;}.cls-7{fill:#e2a95e;}.cls-8{fill:#f7df33;}.cls-9{fill:#ddc11d;}.cls-10{fill:#3a3000;}.cls-11{fill:#1f242d;}.cls-12{fill:#c88942;}</style></defs><title>web2</title><g id="OBJECTS"><path class="cls-1" d="M415.32,347.28l-330.6.26A22.68,22.68,0,0,1,62,324.88h0L438,324.59h0A22.67,22.67,0,0,1,415.32,347.28Z"/><path class="cls-1" d="M415.31,339.47l-330.6.26a22.65,22.65,0,0,1-21.27-14.85H62a22.68,22.68,0,0,0,22.69,22.66l330.6-.26A22.67,22.67,0,0,0,438,324.59h-1.41A22.66,22.66,0,0,1,415.31,339.47Z"/><path class="cls-1" d="M271.36,332.31l-42.71,0a7.59,7.59,0,0,1-7.6-7.58h0l57.9-.05h0A7.6,7.6,0,0,1,271.36,332.31Z"/><path class="cls-2" d="M418.62,324.6l-337.24.27-.16-203.56a21.14,21.14,0,0,1,21.12-21.16l295-.23A21.15,21.15,0,0,1,418.47,121Z"/><rect class="cls-3" x="98.85" y="117.62" width="302.12" height="189.53"/><rect class="cls-1" x="98.92" y="289.03" width="302.12" height="18.12"/><rect class="cls-1" x="98.78" y="117.62" width="302.12" height="8.99"/><polygon class="cls-4" points="199.54 117.66 98.86 218.5 98.92 307.27 99.14 307.27 288.53 117.59 199.54 117.66"/><polygon class="cls-4" points="127.08 307.25 182.35 307.2 371.74 117.52 316.47 117.56 127.08 307.25"/><polygon class="cls-4" points="365.51 307.06 401.02 271.49 400.98 216.22 310.24 307.1 365.51 307.06"/><rect class="cls-5" x="250" y="189.84" width="123.99" height="71.63" rx="3.37"/><rect class="cls-1" x="268.38" y="199.96" width="15.6" height="53.47"/><rect class="cls-1" x="292.26" y="223.42" width="15.6" height="30"/><rect class="cls-1" x="316.14" y="205.65" width="15.6" height="47.77"/><rect class="cls-1" x="340.02" y="219.2" width="15.6" height="34.23"/><line class="cls-6" x1="250" y1="161.03" x2="345.22" y2="161.03"/><line class="cls-6" x1="250" y1="173.74" x2="303.66" y2="173.74"/><rect class="cls-5" x="126.11" y="158.08" width="105.75" height="104.39" rx="4.43"/><polygon class="cls-7" points="196.01 213.63 219.34 220.05 208.35 228.36 196.01 219.08 196.01 213.63"/><path class="cls-7" d="M217.63,217.09l15.24-9.84,3.94,4.88-21.3,16.76a5.57,5.57,0,0,1-5.69.77,11.08,11.08,0,0,1-5.83-6.28Z"/><path class="cls-7" d="M232.87,207.25l2-9.1a1.07,1.07,0,0,1,1-.87h0a1.08,1.08,0,0,1,1.1,1l.21,2.82,7.66-5.61a1.16,1.16,0,0,1,1.8.59L248,200.4a1.17,1.17,0,0,1-.17,1c-1.54,2.06-7.8,10.14-12,11.05Z"/><polygon class="cls-8" points="186.24 206.17 206.58 214.61 200.51 228.28 184.83 221.43 186.24 206.17"/><path class="cls-9" d="M206,215a2.09,2.09,0,0,1,2.77-1.68c.4.12.76.25,1.08.38a2.54,2.54,0,0,1,1.43,3.3l-4.83,12a3.67,3.67,0,0,1-5.88,1.33l-1-.92Z"/><path class="cls-9" d="M190.72,224c.28-1,0-9.12,0-9.12l4.87,11.25Z"/><path class="cls-8" d="M166.28,203.43,151,213.25l8.42,44.8h30.93l.55-45.5a7,7,0,0,0-4.65-6.38l-10.32-3.71-2.85,4.91Z"/><polygon class="cls-8" points="166.61 237.03 163.44 222.3 172.06 240.67 168.06 243.51 166.61 237.03"/><path class="cls-8" d="M151,213.25s-4.82,2.94-3.38,13.36a90.35,90.35,0,0,0,4.48,18.3L167,238.64l-4-18.83Z"/><path class="cls-9" d="M151,243.14s-2.49,5.76,4.68,7.62l-.89-2.08,13.63-7.24s1.26-4.53-3.5-4.74Z"/><path class="cls-7" d="M168.69,241l17.09-8.89,3.68,5.56-26.61,17.15s-5.93,1.86-8.2-5.91Z"/><path class="cls-7" d="M185.78,232.06l3-9.43a1.16,1.16,0,0,1,1.19-.81h0A1.14,1.14,0,0,1,191,223l-.06,3,8.66-5.17a1.24,1.24,0,0,1,1.85.8l1,4.71a1.22,1.22,0,0,1-.29,1.08c-1.83,2-9.25,9.94-13.77,10.49Z"/><polygon class="cls-10" points="190.34 258.05 191.82 305.3 186.01 361.84 173.32 361.86 177.71 305.31 177.4 258.05 190.34 258.05"/><path class="cls-10" d="M186,361.84l5.34,4.15,4.8,1a5.09,5.09,0,0,1,4.06,4.54l.09,1.05-26.65,0,.74-10.65Z"/><path class="cls-10" d="M173.54,372.68l26.86,0V371a.6.6,0,0,0-.6-.61l-26.26,0v2.31"/><polygon class="cls-10" points="177.57 285.29 178.63 274.17 184.02 273.47 177.57 285.29"/><polygon class="cls-10" points="159.41 258.05 158.75 305.82 155.96 361.86 168.64 361.85 175.64 305.54 180.16 258.05 159.41 258.05"/><path class="cls-10" d="M168.64,361.85,174,366l4.8,1a5.07,5.07,0,0,1,4.05,4.54l.09,1.05-26.65,0,.75-10.65Z"/><path class="cls-10" d="M156.18,372.68l26.86,0V371a.61.61,0,0,0-.6-.61l-26.26,0v2.31"/><path class="cls-11" d="M159,180.38s-2.3-8.91,9-10.08c9.77-1,12.93,4.38,14,7.08s-10.45,10.88-10.45,10.88Z"/><path class="cls-7" d="M166.28,203.43,164.91,190l9.64-1,1.37,13.44a4.84,4.84,0,0,1-4.33,5.3h0A4.85,4.85,0,0,1,166.28,203.43Z"/><path class="cls-12" d="M164.64,190.75s2.23,11.4,11.11,10.27l-.59-5.76Z"/><path class="cls-11" d="M176.71,173.46s9.07.63,4.2,11.43l-2.16-5.41Z"/><path class="cls-7" d="M173.86,199.22h0c5.16-.54,9-4.1,8.51-9.26l-1.09-10.29a4.11,4.11,0,0,0-4.51-3.65l-10.6,1.12a4.12,4.12,0,0,0-3.65,4.51l.94,8.84C164,195.65,169.51,199.68,173.86,199.22Z"/><path class="cls-11" d="M163.88,187.57h0s4.94-3.73,2.29-10.43l-5.27.56s-.85-1.12-1.84.53,1.9,9,1.9,9Z"/><path class="cls-7" d="M159.08,188.62a3.38,3.38,0,1,0,3-3.72A3.38,3.38,0,0,0,159.08,188.62Z"/><path class="cls-11" d="M166.25,182.92s.06,6.92,1.71,8.83,3-.36,8.43-1.52,6.23,1.39,6.23,1.39.15,7-7,7.72c-5.54.58-11.29-.39-10.73-9.35s-2.61-10.93-2.61-10.93Z"/><path class="cls-11" d="M183.2,168.27c-1.75-3.56-5.52-3.51-9.19-1.22a11.75,11.75,0,0,1-3.26,1.5c-15.62,4-8.23,13.1-8.23,13.1l3.65-4.51a15.58,15.58,0,0,0,7.87.78,23.81,23.81,0,0,0,5.21-1.35h0l.08,0,.39-.14a4.29,4.29,0,0,0,1.61-1.11C183.23,173.81,185.05,172,183.2,168.27Z"/></g></svg>