<svg id="_Layer_" data-name="&lt;Layer&gt;" xmlns="http://www.w3.org/2000/svg" viewBox="0 0 3116 1640"><defs><style>.cls-1,.cls-11,.cls-12,.cls-13{fill:#f7df32;}.cls-1{opacity:0.1;}.cls-2{fill:#ffb93e;}.cls-3{fill:#ffa412;}.cls-4{fill:#e2810e;}.cls-5{fill:#ffb27d;}.cls-6{fill:#ed975d;}.cls-7{fill:#a9453d;}.cls-8{fill:#3f3600;}.cls-9{fill:#1e1900;}.cls-10{fill:#ceb521;}.cls-12{opacity:0.2;}.cls-13{opacity:0.5;}.cls-14{fill:#a38b13;}</style></defs><title>5240</title><path class="cls-1" d="M434.12,1500s-301.3-323.49-51-673.72c222.12-310.74,481.09-289.5,671.09-163.4,80.92,53.71,314.23,6.62,512.81-309.57C1837.86-77.93,2776.57,183.6,2605.42,847c-82.83,321,252.07,332.71,81.43,653.63Z"/><path class="cls-2" d="M1858.16,1154.94l23.11,3.8a9.88,9.88,0,0,1,4.76,2.16,8.18,8.18,0,0,1,2.72,4.2,6.42,6.42,0,0,1,.23,1.51,6.54,6.54,0,0,1-.09,1.39l-53.17,322.25c-.68,4.16-5,7-9.73,6.4l-.46-.06-23.11-3.8-.46-.09c-4.65-1-7.85-5-7.16-9.17L1848,1161.27a6.91,6.91,0,0,1,.37-1.35,7.16,7.16,0,0,1,.69-1.35,8.26,8.26,0,0,1,3.94-3.11A9.88,9.88,0,0,1,1858.16,1154.94Z"/><path class="cls-3" d="M1864.07,1318.45l-28.49,172.64c-.61,3.71-4.87,6.14-9.59,5.56l-.46-.06-23.11-3.8-.46-.09c-4.65-1-7.91-4.63-7.3-8.34l25-151.44C1832.09,1332.48,1849.69,1329.59,1864.07,1318.45Z"/><rect class="cls-3" x="1861.09" y="1177.15" width="3.71" height="41.47" transform="translate(377.32 2840.57) rotate(-80.62)"/><rect class="cls-3" x="1859.04" y="1189.55" width="3.71" height="41.47" transform="matrix(0.16, -0.99, 0.99, 0.16, 364.16, 2849.65)"/><rect class="cls-3" x="1856.59" y="1204.41" width="3.71" height="41.47" transform="translate(346.98 2859.25) rotate(-80.63)"/><rect class="cls-3" x="1852.83" y="1227.2" width="3.71" height="41.47" transform="translate(321.46 2874.73) rotate(-80.63)"/><rect class="cls-3" x="1848.86" y="1251.3" width="3.71" height="41.47" transform="translate(294.31 2890.94) rotate(-80.63)"/><rect class="cls-3" x="1842.76" y="1288.24" width="3.71" height="41.47" transform="matrix(0.16, -0.99, 0.99, 0.16, 253.12, 2916.2)"/><rect class="cls-3" x="1837.05" y="1322.83" width="3.71" height="41.47" transform="translate(213.47 2938.78) rotate(-80.62)"/><rect class="cls-3" x="1831.96" y="1353.72" width="3.71" height="41.47" transform="translate(179.16 2960.05) rotate(-80.63)"/><rect class="cls-3" x="1863.04" y="1165.35" width="3.71" height="41.47" transform="matrix(0.16, -0.99, 0.99, 0.16, 391.36, 2833.3)"/><rect class="cls-3" x="1864.32" y="1157.55" width="3.71" height="41.47" transform="translate(399.76 2827.71) rotate(-80.63)"/><rect class="cls-3" x="1865.57" y="1150.02" width="3.71" height="41.47" transform="matrix(0.16, -0.99, 0.99, 0.16, 408.59, 2822.96)"/><path class="cls-3" d="M1847.59,1163.56l40.93,6.73.37-2.29a6.54,6.54,0,0,0,.09-1.39l-40.64-6.69a6.91,6.91,0,0,0-.37,1.35Z"/><path class="cls-3" d="M1849,1158.57l39.72,6.53a8.18,8.18,0,0,0-2.72-4.2l-33.06-5.44A8.26,8.26,0,0,0,1849,1158.57Z"/><path class="cls-2" d="M1900.09,1154.94l23.11,3.8a9.81,9.81,0,0,1,4.75,2.16,8.2,8.2,0,0,1,2.73,4.2,7,7,0,0,1,.22,1.51,6.53,6.53,0,0,1-.08,1.39l-53.17,322.25c-.69,4.16-5,7-9.74,6.4l-.45-.06-23.12-3.8-.45-.09c-4.65-1-7.85-5-7.17-9.17l53.17-322.26a7.69,7.69,0,0,1,.37-1.35,6.66,6.66,0,0,1,.7-1.35,8.19,8.19,0,0,1,3.93-3.11A9.93,9.93,0,0,1,1900.09,1154.94Z"/><path class="cls-3" d="M1906,1318.45l-28.49,172.64c-.61,3.71-4.88,6.14-9.6,5.56l-.45-.06-23.12-3.8-.45-.09c-4.66-1-7.92-4.63-7.3-8.34l25-151.44C1874,1332.48,1891.61,1329.59,1906,1318.45Z"/><rect class="cls-3" x="1903.02" y="1177.15" width="3.71" height="41.47" transform="translate(412.41 2881.94) rotate(-80.62)"/><rect class="cls-3" x="1900.97" y="1189.55" width="3.71" height="41.47" transform="translate(399.32 2891.06) rotate(-80.64)"/><rect class="cls-3" x="1898.52" y="1204.41" width="3.71" height="41.47" transform="translate(382.08 2900.62) rotate(-80.63)"/><rect class="cls-3" x="1894.76" y="1227.2" width="3.71" height="41.47" transform="translate(356.52 2916.05) rotate(-80.63)"/><rect class="cls-3" x="1890.78" y="1251.3" width="3.71" height="41.47" transform="translate(329.41 2932.3) rotate(-80.63)"/><rect class="cls-3" x="1884.69" y="1288.24" width="3.71" height="41.47" transform="translate(287.79 2957.15) rotate(-80.63)"/><rect class="cls-3" x="1878.98" y="1322.83" width="3.71" height="41.47" transform="translate(248.95 2980.53) rotate(-80.63)"/><rect class="cls-3" x="1873.88" y="1353.72" width="3.71" height="41.47" transform="translate(214.21 3001.37) rotate(-80.63)"/><rect class="cls-3" x="1904.96" y="1165.35" width="3.71" height="41.47" transform="translate(426.02 2874.27) rotate(-80.63)"/><rect class="cls-3" x="1906.25" y="1157.55" width="3.71" height="41.47" transform="translate(435.31 2869.47) rotate(-80.64)"/><rect class="cls-3" x="1907.49" y="1150.02" width="3.71" height="41.47" transform="translate(443.7 2864.33) rotate(-80.64)"/><path class="cls-3" d="M1889.52,1163.56l40.92,6.73.38-2.29a6.53,6.53,0,0,0,.08-1.39l-40.64-6.69a7.69,7.69,0,0,0-.37,1.35Z"/><path class="cls-3" d="M1891,1158.57l39.72,6.53a8.2,8.2,0,0,0-2.73-4.2l-33.06-5.44A8.19,8.19,0,0,0,1891,1158.57Z"/><path class="cls-2" d="M1746.76,1464.31l0,23.42a9.81,9.81,0,0,1-1.36,5,8.33,8.33,0,0,1-3.72,3.37,6.62,6.62,0,0,1-1.45.46,7,7,0,0,1-1.39.14l-326.61-.78c-4.21,0-7.67-3.83-7.87-8.58,0-.15,0-.31,0-.46l0-23.42c0-.16,0-.31,0-.47.22-4.75,3.7-8.55,7.91-8.54l326.61.78a7.12,7.12,0,0,1,1.39.14,6.56,6.56,0,0,1,1.44.47,8.24,8.24,0,0,1,3.71,3.39A9.8,9.8,0,0,1,1746.76,1464.31Z"/><path class="cls-3" d="M1586.32,1496.38l-175-.42c-3.76,0-6.85-3.83-7-8.58,0-.15,0-.31,0-.46l0-23.42c0-.16,0-.31,0-.47.2-4.75,3.3-8.55,7.06-8.54l153.49.36C1567.34,1467.07,1573,1484,1586.32,1496.38Z"/><rect class="cls-3" x="1684.41" y="1474.07" width="41.47" height="3.71" transform="matrix(0, -1, 1, 0, 225.18, 3177.56)"/><rect class="cls-3" x="1671.84" y="1474.04" width="41.47" height="3.71" transform="matrix(0, -1, 1, 0, 212.68, 3164.97)"/><rect class="cls-3" x="1656.77" y="1474" width="41.47" height="3.71" transform="translate(197.23 3149.46) rotate(-89.85)"/><rect class="cls-3" x="1633.68" y="1473.95" width="41.47" height="3.71" transform="translate(174.74 3126.75) rotate(-89.87)"/><rect class="cls-3" x="1609.25" y="1473.89" width="41.47" height="3.71" transform="matrix(0, -1, 1, 0, 150.38, 3102.23)"/><rect class="cls-3" x="1571.81" y="1473.8" width="41.47" height="3.71" transform="matrix(0, -1, 1, 0, 113.12, 3064.7)"/><rect class="cls-3" x="1536.75" y="1473.72" width="41.47" height="3.71" transform="translate(78.23 3029.56) rotate(-89.86)"/><rect class="cls-3" x="1505.45" y="1473.64" width="41.47" height="3.71" transform="translate(46.7 2997.82) rotate(-89.85)"/><rect class="cls-3" x="1696.37" y="1474.1" width="41.47" height="3.71" transform="translate(237.09 3189.55) rotate(-89.86)"/><rect class="cls-3" x="1704.27" y="1474.11" width="41.47" height="3.71" transform="translate(245.41 3197.87) rotate(-89.88)"/><rect class="cls-3" x="1711.9" y="1474.13" width="41.47" height="3.71" transform="matrix(0, -1, 1, 0, 252.54, 3205.12)"/><path class="cls-3" d="M1736.56,1455.26l-.08,41.47h2.32a7,7,0,0,0,1.39-.14l.08-41.19a7.12,7.12,0,0,0-1.39-.14Z"/><path class="cls-3" d="M1741.71,1455.88l-.07,40.26a8.33,8.33,0,0,0,3.72-3.37l.06-33.5A8.24,8.24,0,0,0,1741.71,1455.88Z"/><path class="cls-2" d="M1711.92,1422.75l0,23.42a9.91,9.91,0,0,1-1.37,5,8.19,8.19,0,0,1-3.71,3.37,6.79,6.79,0,0,1-1.45.46,7.12,7.12,0,0,1-1.39.14l-326.61-.77c-4.21,0-7.67-3.83-7.88-8.58,0-.16,0-.31,0-.47l0-23.42c0-.15,0-.31,0-.46.22-4.75,3.69-8.56,7.9-8.55l326.61.78.63,0,.26,0,.3,0,.21,0a6.71,6.71,0,0,1,1.44.46l.21.1.2.1.39.22.23.15a1.37,1.37,0,0,1,.2.13l.37.27.41.35.3.28,0,0,.2.21c.2.21.39.44.57.67l.16.21.15.22.29.46A9.86,9.86,0,0,1,1711.92,1422.75Z"/><path class="cls-3" d="M1551.48,1454.82l-175-.41c-3.76,0-6.85-3.83-7-8.58,0-.16,0-.31,0-.47l0-23.42c0-.15,0-.31,0-.46.2-4.75,3.3-8.56,7.06-8.55l153.48.37q.11.5.21,1C1532.82,1426.44,1538.54,1442.75,1551.48,1454.82Z"/><rect class="cls-3" x="1649.56" y="1432.51" width="41.47" height="3.71" transform="translate(232.02 3101.3) rotate(-89.87)"/><rect class="cls-3" x="1637" y="1432.48" width="41.47" height="3.71" transform="translate(219.51 3088.7) rotate(-89.87)"/><rect class="cls-3" x="1621.93" y="1432.44" width="41.47" height="3.71" transform="matrix(0, -1, 1, 0, 204.47, 3073.56)"/><rect class="cls-3" x="1598.83" y="1432.39" width="41.47" height="3.71" transform="matrix(0, -1, 1, 0, 181.49, 3050.41)"/><rect class="cls-3" x="1574.41" y="1432.33" width="41.47" height="3.71" transform="translate(157.61 3026.32) rotate(-89.88)"/><rect class="cls-3" x="1536.97" y="1432.24" width="41.47" height="3.71" transform="translate(119.54 2988.05) rotate(-89.85)"/><rect class="cls-3" x="1501.91" y="1432.16" width="41.47" height="3.71" transform="matrix(0, -1, 1, 0, 85.02, 2953.26)"/><rect class="cls-3" x="1470.6" y="1432.08" width="41.47" height="3.71" transform="translate(54.27 2922.27) rotate(-89.88)"/><rect class="cls-3" x="1661.52" y="1432.54" width="41.47" height="3.71" transform="translate(243.92 3113.29) rotate(-89.87)"/><rect class="cls-3" x="1669.42" y="1432.56" width="41.47" height="3.71" transform="translate(251.74 3121.17) rotate(-89.86)"/><rect class="cls-3" x="1677.05" y="1432.58" width="41.47" height="3.71" transform="matrix(0, -1, 1, 0, 259.34, 3128.82)"/><path class="cls-3" d="M1701.71,1413.7l-.07,41.48H1704a7.12,7.12,0,0,0,1.39-.14l.07-41.18a6.37,6.37,0,0,0-1.39-.15Z"/><path class="cls-3" d="M1706.87,1414.32l-.07,40.26a8.25,8.25,0,0,0,3.71-3.37l.06-33.5A8.28,8.28,0,0,0,1706.87,1414.32Z"/><path class="cls-2" d="M1728.87,1382.34l0,23.42a9.81,9.81,0,0,1-1.36,5,8.19,8.19,0,0,1-3.71,3.37,6.79,6.79,0,0,1-1.45.46,7.23,7.23,0,0,1-1.4.14l-326.6-.77a7.1,7.1,0,0,1-3.64-1,9.13,9.13,0,0,1-4.21-7.14,2.8,2.8,0,0,1,0-.4c0-.16,0-.31,0-.47l0-23.42c0-.15,0-.31,0-.46.23-4.75,3.7-8.56,7.91-8.55l326.61.78a6.37,6.37,0,0,1,1.39.15,6.62,6.62,0,0,1,1.45.46,8.33,8.33,0,0,1,3.7,3.39A10,10,0,0,1,1728.87,1382.34Z"/><path class="cls-3" d="M1568.43,1414.41l-175-.41a5.84,5.84,0,0,1-3.25-1,9.35,9.35,0,0,1-3.75-7.14,2.8,2.8,0,0,1,0-.4c0-.16,0-.31,0-.47l0-23.42c0-.15,0-.31,0-.46.2-4.75,3.31-8.56,7.07-8.55l153.48.37c2.37,11.88,7.81,28.19,20.34,40.49C1567.71,1413.73,1568.06,1414.07,1568.43,1414.41Z"/><path class="cls-2" d="M1736.76,1340.89l0,23.42a9.81,9.81,0,0,1-1.36,5,8.2,8.2,0,0,1-3.72,3.36,6.56,6.56,0,0,1-1.44.47,7.23,7.23,0,0,1-1.4.14l-326.6-.78c-4.21,0-7.68-3.83-7.88-8.58,0-.15,0-.31,0-.46l0-23.42c0-.16,0-.31,0-.47.21-4.39,3.2-8,7-8.48a7,7,0,0,1,.93-.06l326.61.77a7,7,0,0,1,1.39.15,6.82,6.82,0,0,1,1.45.47,8.27,8.27,0,0,1,3.7,3.39A9.8,9.8,0,0,1,1736.76,1340.89Z"/><path class="cls-3" d="M1576.33,1373l-175-.42c-3.76,0-6.85-3.83-7-8.58,0-.15,0-.31,0-.46l0-23.42c0-.16,0-.31,0-.47.18-4.39,2.86-8,6.23-8.48a4.57,4.57,0,0,1,.83-.06l153.49.36a.17.17,0,0,1,0,.07C1557.36,1343.7,1563.05,1360.56,1576.33,1373Z"/><path class="cls-2" d="M1712.83,1299.42l0,23.42a9.91,9.91,0,0,1-1.37,5,8.31,8.31,0,0,1-3.71,3.37,6.79,6.79,0,0,1-1.45.46l-.46.08-.26,0-.25,0h-.42l-326.61-.77c-4.21,0-7.67-3.83-7.88-8.58,0-.16,0-.31,0-.47l.05-23.42c0-.15,0-.31,0-.46s0-.26,0-.38a8.8,8.8,0,0,1,5.94-7.89l.24-.07a6.91,6.91,0,0,1,1.71-.21l326.6.78c.24,0,.48,0,.71,0l.31,0h0a2.29,2.29,0,0,1,.36.07,6.62,6.62,0,0,1,1.45.46,8.28,8.28,0,0,1,3.7,3.39A9.83,9.83,0,0,1,1712.83,1299.42Z"/><path class="cls-3" d="M1552.39,1331.49l-175-.42c-3.75,0-6.84-3.82-7-8.57,0-.16,0-.31,0-.47l.05-23.42c0-.15,0-.31,0-.46s0-.26,0-.38c.29-3.91,2.55-7.11,5.49-8l.3-.08a5.7,5.7,0,0,1,1.25-.14L1531,1290a1.59,1.59,0,0,0,.06.3c2.45,12.17,8.13,28.86,21.28,41.16Z"/><path class="cls-2" d="M1712.22,1258.24l0,23.42a9.81,9.81,0,0,1-1.36,5,8.31,8.31,0,0,1-3.71,3.37,8,8,0,0,1-1.13.39h0l-.31.07a7.12,7.12,0,0,1-1.39.14l-326.61-.77a6.79,6.79,0,0,1-1-.09,2.44,2.44,0,0,1-.39-.07c-3.55-.74-6.29-4.22-6.47-8.43,0-.15,0-.31,0-.46l0-23.42c0-.16,0-.31,0-.46.23-4.76,3.7-8.56,7.91-8.55l326.61.78.63,0,.26,0,.3,0,.2,0a6.62,6.62,0,0,1,1.45.46l.21.1.2.1.39.22.43.28a3.18,3.18,0,0,1,.37.27,4.47,4.47,0,0,1,.41.35,3.84,3.84,0,0,1,.3.28l0,0,.2.2c.2.22.39.45.57.68l.16.21.15.22c.1.15.2.3.29.46A9.83,9.83,0,0,1,1712.22,1258.24Z"/><path class="cls-3" d="M1551.78,1290.31l-175-.42h-.41a3.25,3.25,0,0,1-.45-.06c-3.37-.54-6-4.12-6.17-8.51,0-.15,0-.31,0-.46l0-23.42c0-.16,0-.31,0-.46.21-4.76,3.31-8.56,7.07-8.55l153.48.36.21,1c2.52,12,8.18,28.16,20.89,40.2Z"/><path class="cls-2" d="M1729.17,1217.83l-.05,23.42a9.81,9.81,0,0,1-1.36,5,8.28,8.28,0,0,1-3.72,3.37,6.53,6.53,0,0,1-1.44.46,7.23,7.23,0,0,1-1.4.14l-326.6-.78a7,7,0,0,1-3.64-1,9.17,9.17,0,0,1-4.22-7.14c0-.14,0-.27,0-.41s0-.31,0-.46l0-23.42c0-.16,0-.31,0-.47.23-4.75,3.7-8.55,7.91-8.54l326.61.78a7,7,0,0,1,1.39.14,7.23,7.23,0,0,1,1.45.47,8.27,8.27,0,0,1,3.7,3.39A9.93,9.93,0,0,1,1729.17,1217.83Z"/><path class="cls-3" d="M1568.72,1249.9l-175-.42a5.75,5.75,0,0,1-3.25-1,9.41,9.41,0,0,1-3.76-7.14c0-.14,0-.27,0-.41s0-.31,0-.46l0-23.42c0-.16,0-.31,0-.47.2-4.75,3.31-8.55,7.06-8.54l153.49.36c2.37,11.88,7.81,28.2,20.34,40.5Z"/><path class="cls-2" d="M1755.93,1176.42l0,23.42a10,10,0,0,1-1.36,5,8.33,8.33,0,0,1-3.72,3.37,6.62,6.62,0,0,1-1.45.46,7,7,0,0,1-1.39.14l-326.61-.78c-4.21,0-7.67-3.83-7.88-8.58V1199l0-23.42c0-.16,0-.31,0-.47.2-4.39,3.19-8,7-8.48a7.3,7.3,0,0,1,.94-.06l326.6.78a7.23,7.23,0,0,1,1.4.14,7.14,7.14,0,0,1,1.44.47,8.24,8.24,0,0,1,3.71,3.39A9.92,9.92,0,0,1,1755.93,1176.42Z"/><path class="cls-3" d="M1595.49,1208.49l-175-.42c-3.75,0-6.84-3.83-7-8.58V1199l0-23.42c0-.16,0-.31,0-.47.18-4.39,2.85-8,6.23-8.48a5.69,5.69,0,0,1,.83-.06l153.49.36s0,0,0,.07C1576.53,1179.24,1582.21,1196.1,1595.49,1208.49Z"/><path class="cls-2" d="M1713.13,1134.91l-.05,23.42a9.81,9.81,0,0,1-1.36,5,8.31,8.31,0,0,1-3.71,3.37,6.79,6.79,0,0,1-1.45.46l-.46.08-.37,0h-.56l-326.61-.78c-4.21,0-7.67-3.83-7.88-8.58,0-.15,0-.31,0-.46l0-23.42c0-.16,0-.31,0-.47.23-4.75,3.7-8.55,7.91-8.54l326.61.78h.42a7.55,7.55,0,0,1,1,.13,6.64,6.64,0,0,1,1.45.47,6.19,6.19,0,0,1,.68.35c.14.08.28.16.41.25l0,0c.14.09.27.19.4.29a.18.18,0,0,1,.07,0l.35.29a6.47,6.47,0,0,1,.78.79,2.85,2.85,0,0,1,.23.26l0,0,.13.17,0,0c.08.1.15.21.23.33s.21.32.31.49A9.8,9.8,0,0,1,1713.13,1134.91Z"/><path class="cls-3" d="M1552.69,1167l-175-.42c-3.75,0-6.85-3.83-7-8.58,0-.15,0-.31,0-.46l0-23.42c0-.16,0-.31,0-.47.21-4.75,3.31-8.55,7.07-8.54l153.48.36c.07.32.13.64.2,1,2.53,12.11,8.24,28.42,21.15,40.5Z"/><path class="cls-2" d="M1737.21,1094.45l0,23.42a9.81,9.81,0,0,1-1.36,5,8.28,8.28,0,0,1-3.72,3.37,6.71,6.71,0,0,1-1.44.46,7.23,7.23,0,0,1-1.4.14l-326.6-.77a7.16,7.16,0,0,1-3.53-1,9.14,9.14,0,0,1-4.33-7.25c0-.12,0-.24,0-.37s0-.3,0-.46l0-23.42c0-.16,0-.31,0-.46.21-4.4,3.2-8,7-8.48a5.65,5.65,0,0,1,.93-.07l326.61.78a7.12,7.12,0,0,1,1.39.14,7.44,7.44,0,0,1,1.45.47,8.33,8.33,0,0,1,3.7,3.39A9.82,9.82,0,0,1,1737.21,1094.45Z"/><path class="cls-3" d="M1576.77,1126.52l-175-.42a5.8,5.8,0,0,1-3.15-1,9.35,9.35,0,0,1-3.86-7.25c0-.12,0-.24,0-.37s0-.3,0-.46l0-23.42c0-.16,0-.31,0-.46.18-4.39,2.85-8,6.23-8.49a5.69,5.69,0,0,1,.83-.06l153.49.36a.17.17,0,0,1,0,.07c2.38,11.9,7.84,28.21,20.4,40.5Z"/><path class="cls-2" d="M1713.28,1053l0,23.42a9.8,9.8,0,0,1-1.36,5,8.19,8.19,0,0,1-3.71,3.37,6.27,6.27,0,0,1-1.45.46l-.46.08-.26,0-.26,0-.42,0-326.6-.78c-4.21,0-7.67-3.83-7.88-8.58,0-.16,0-.31,0-.47l0-23.42c0-.15,0-.31,0-.46.23-4.75,3.7-8.55,7.91-8.54l326.61.77a6.37,6.37,0,0,1,1.39.15,6.64,6.64,0,0,1,1.45.47,8.25,8.25,0,0,1,3.7,3.38A9.87,9.87,0,0,1,1713.28,1053Z"/><path class="cls-3" d="M1552.84,1085.05l-175-.41c-3.76,0-6.85-3.83-7-8.58,0-.16,0-.31,0-.47l0-23.42c0-.15,0-.31,0-.46.21-4.75,3.31-8.55,7.07-8.55l153.48.37c2.43,12.19,8.09,29,21.35,41.46Z"/><rect class="cls-3" x="1666.51" y="1392.1" width="41.47" height="3.71" transform="translate(289.29 3077.89) rotate(-89.86)"/><rect class="cls-3" x="1653.95" y="1392.07" width="41.47" height="3.71" transform="translate(277.24 3065.67) rotate(-89.88)"/><rect class="cls-3" x="1638.88" y="1392.03" width="41.47" height="3.71" transform="translate(262.19 3050.53) rotate(-89.88)"/><rect class="cls-3" x="1615.78" y="1391.98" width="41.47" height="3.71" transform="translate(238.81 3027.04) rotate(-89.86)"/><rect class="cls-3" x="1591.36" y="1391.92" width="41.47" height="3.71" transform="translate(214.5 3002.56) rotate(-89.86)"/><rect class="cls-3" x="1553.91" y="1391.83" width="41.47" height="3.71" transform="translate(177.23 2965.03) rotate(-89.86)"/><rect class="cls-3" x="1518.86" y="1391.75" width="41.47" height="3.71" transform="translate(142.76 2930.27) rotate(-89.88)"/><rect class="cls-3" x="1487.55" y="1391.68" width="41.47" height="3.71" transform="translate(111.19 2898.51) rotate(-89.86)"/><rect class="cls-3" x="1678.47" y="1392.13" width="41.47" height="3.71" transform="matrix(0, -1, 1, 0, 301.2, 3089.88)"/><rect class="cls-3" x="1686.37" y="1392.15" width="41.47" height="3.71" transform="translate(309.52 3098.18) rotate(-89.88)"/><rect class="cls-3" x="1694" y="1392.16" width="41.47" height="3.71" transform="matrix(0, -1, 1, 0, 316.66, 3105.45)"/><path class="cls-3" d="M1718.66,1373.29l-.07,41.48h2.32a7.2,7.2,0,0,0,1.39-.14l.07-41.18a6.37,6.37,0,0,0-1.39-.15Z"/><path class="cls-3" d="M1723.82,1373.91l-.07,40.26a8.31,8.31,0,0,0,3.71-3.37l.06-33.5A8.27,8.27,0,0,0,1723.82,1373.91Z"/><rect class="cls-3" x="1561.81" y="1350.38" width="41.47" height="3.71" transform="matrix(0, -1, 1, 0, 226.57, 2931.57)"/><rect class="cls-3" x="1526.76" y="1350.29" width="41.47" height="3.71" transform="translate(191.72 2896.47) rotate(-89.87)"/><rect class="cls-3" x="1495.45" y="1350.22" width="41.47" height="3.71" transform="translate(160.52 2865.06) rotate(-89.86)"/><path class="cls-3" d="M1708.92,1373.27l.08-41.47h-3.26l.52-.08.08-41.19c-.23,0-.46-.08-.69-.1l.07-40.19h1.45l-.07,39.84a8.31,8.31,0,0,0,3.71-3.37l.06-33.5a8.45,8.45,0,0,0-2.94-3h1.3l.07-41.47h-3.71l-.07,40.56a6.67,6.67,0,0,0-1.19-.11H1702l-.07,41.48h.68l-.07,41.17h2.32l.42,0-.08,41.43Z"/><rect class="cls-3" x="1694.27" y="1350.69" width="41.47" height="3.71" transform="translate(358.4 3064.34) rotate(-89.86)"/><rect class="cls-3" x="1701.9" y="1350.71" width="41.47" height="3.71" transform="matrix(0, -1, 1, 0, 365.58, 3071.66)"/><path class="cls-3" d="M1726.56,1331.84l-.08,41.47h2.32a6.53,6.53,0,0,0,1.4-.15l.07-41.18a6.37,6.37,0,0,0-1.39-.15Z"/><path class="cls-3" d="M1731.72,1332.46l-.08,40.25a8.17,8.17,0,0,0,3.72-3.37l.06-33.5A8.31,8.31,0,0,0,1731.72,1332.46Z"/><polygon class="cls-3" points="1673.03 1331.78 1673.1 1290.3 1672.42 1290.3 1672.49 1249.12 1668.78 1249.11 1668.7 1290.59 1669.39 1290.59 1669.32 1331.7 1665.69 1331.69 1665.62 1373.17 1669.33 1373.17 1669.4 1331.77 1673.03 1331.78"/><polygon class="cls-3" points="1645.47 1290.24 1644.78 1290.23 1644.86 1249.06 1641.15 1249.05 1641.07 1290.52 1641.76 1290.52 1641.68 1331.7 1642.6 1331.7 1642.52 1373.11 1646.23 1373.12 1646.31 1331.65 1645.39 1331.64 1645.47 1290.24"/><path class="cls-3" d="M1707.78,1291l-.07,40.26a8.31,8.31,0,0,0,3.71-3.37l.06-33.5A8.22,8.22,0,0,0,1707.78,1291Z"/><polygon class="cls-3" points="1621.76 1249 1618.05 1248.99 1617.97 1290.47 1618.66 1290.47 1618.59 1331.58 1618.17 1331.58 1618.1 1373.05 1621.81 1373.06 1621.89 1331.65 1622.3 1331.65 1622.37 1290.18 1621.69 1290.18 1621.76 1249"/><polygon class="cls-3" points="1597.34 1248.94 1593.63 1248.93 1593.55 1290.41 1594.24 1290.41 1594.16 1331.59 1597.87 1331.6 1597.95 1290.12 1597.26 1290.12 1597.34 1248.94"/><polygon class="cls-3" points="1559.9 1248.86 1556.18 1248.85 1556.11 1290.32 1556.79 1290.32 1556.72 1331.5 1560.43 1331.51 1560.51 1290.03 1559.82 1290.03 1559.9 1248.86"/><polygon class="cls-3" points="1524.84 1248.77 1521.13 1248.76 1521.05 1290.24 1521.74 1290.24 1521.66 1331.42 1525.38 1331.42 1525.45 1289.95 1524.76 1289.95 1524.84 1248.77"/><polygon class="cls-3" points="1493.53 1248.7 1489.82 1248.69 1489.75 1290.16 1490.43 1290.16 1490.36 1331.34 1494.07 1331.35 1494.15 1289.88 1493.46 1289.88 1493.53 1248.7"/><polygon class="cls-3" points="1684.45 1249.15 1680.74 1249.14 1680.66 1290.62 1681.35 1290.62 1681.28 1331.73 1680.76 1331.73 1680.68 1373.2 1684.4 1373.21 1684.47 1331.8 1684.99 1331.8 1685.06 1290.33 1684.38 1290.33 1684.45 1249.15"/><polygon class="cls-3" points="1692.35 1249.17 1689.37 1249.16 1689.44 1208.71 1685.73 1208.7 1685.65 1250.18 1688.64 1250.18 1688.57 1290.63 1689.25 1290.64 1689.18 1331.81 1692.89 1331.82 1692.96 1290.35 1692.28 1290.35 1692.35 1249.17"/><rect class="cls-3" x="1654.24" y="1227.56" width="41.47" height="3.71" transform="translate(441.6 2901.48) rotate(-89.86)"/><polygon class="cls-3" points="1658.02 1249.09 1656.21 1249.09 1656.14 1290.56 1656.82 1290.56 1656.75 1331.74 1660.46 1331.75 1660.54 1290.27 1659.85 1290.27 1659.92 1250.12 1661.73 1250.12 1661.81 1208.65 1658.1 1208.64 1658.02 1249.09"/><rect class="cls-3" x="1616.08" y="1227.47" width="41.47" height="3.71" transform="translate(403.17 2862.89) rotate(-89.85)"/><rect class="cls-3" x="1591.66" y="1227.41" width="41.47" height="3.71" transform="translate(379.31 2838.74) rotate(-89.86)"/><rect class="cls-3" x="1554.21" y="1227.32" width="41.47" height="3.71" transform="translate(342.08 2801.24) rotate(-89.87)"/><rect class="cls-3" x="1519.16" y="1227.24" width="41.47" height="3.71" transform="translate(307.52 2766.37) rotate(-89.88)"/><rect class="cls-3" x="1487.85" y="1227.16" width="41.47" height="3.71" transform="translate(276 2734.69) rotate(-89.86)"/><polygon class="cls-3" points="1697.61 1249.18 1696.27 1249.18 1696.19 1290.65 1696.88 1290.65 1696.81 1331.77 1693.33 1331.76 1693.25 1373.23 1696.96 1373.24 1697.04 1331.83 1700.52 1331.84 1700.6 1290.37 1699.91 1290.37 1699.98 1250.21 1701.32 1250.21 1701.4 1208.74 1697.69 1208.73 1697.61 1249.18"/><rect class="cls-3" x="1694.3" y="1227.65" width="41.47" height="3.71" transform="matrix(0, -1, 1, 0, 481.47, 2941.63)"/><path class="cls-3" d="M1722.6,1250.12l.07-41.18a6.37,6.37,0,0,0-1.39-.15H1719l-.08,41.47h2.33A7.2,7.2,0,0,0,1722.6,1250.12Z"/><path class="cls-3" d="M1727.76,1246.29l.06-33.5a8.33,8.33,0,0,0-3.7-3.39l-.08,40.26A8.28,8.28,0,0,0,1727.76,1246.29Z"/><rect class="cls-3" x="1693.58" y="1186.18" width="41.47" height="3.71" transform="translate(522.22 2899.53) rotate(-89.86)"/><rect class="cls-3" x="1642.85" y="1186.06" width="41.47" height="3.71" transform="matrix(0, -1, 1, 0, 471.73, 2848.68)"/><rect class="cls-3" x="1618.42" y="1186" width="41.47" height="3.71" transform="translate(447.42 2824.2) rotate(-89.86)"/><rect class="cls-3" x="1580.98" y="1185.91" width="41.47" height="3.71" transform="translate(410.16 2786.66) rotate(-89.86)"/><rect class="cls-3" x="1545.92" y="1185.83" width="41.47" height="3.71" transform="translate(375.27 2751.52) rotate(-89.86)"/><rect class="cls-3" x="1514.62" y="1185.75" width="41.47" height="3.71" transform="translate(344.52 2720.47) rotate(-89.88)"/><rect class="cls-3" x="1705.54" y="1186.21" width="41.47" height="3.71" transform="translate(534.12 2911.52) rotate(-89.86)"/><rect class="cls-3" x="1713.44" y="1186.23" width="41.47" height="3.71" transform="matrix(0, -1, 1, 0, 541.99, 2919.44)"/><rect class="cls-3" x="1721.07" y="1186.24" width="41.47" height="3.71" transform="translate(549.63 2927.11) rotate(-89.87)"/><path class="cls-3" d="M1745.73,1167.37l-.08,41.47H1748a7.23,7.23,0,0,0,1.4-.14l.07-41.19a7.12,7.12,0,0,0-1.39-.14Z"/><path class="cls-3" d="M1750.88,1168l-.07,40.26a8.28,8.28,0,0,0,3.72-3.37l.06-33.5A8.24,8.24,0,0,0,1750.88,1168Z"/><polygon class="cls-3" points="1669.61 1167.26 1673.33 1167.27 1673.4 1125.79 1669.78 1125.78 1669.85 1085.33 1673.47 1085.34 1673.55 1043.87 1669.84 1043.86 1669.76 1085.27 1666.14 1085.26 1666.07 1126.73 1669.69 1126.74 1669.61 1167.26"/><rect class="cls-3" x="1638.21" y="1144.64" width="41.47" height="3.71" transform="translate(508.07 2802.4) rotate(-89.85)"/><rect class="cls-3" x="1575.62" y="1144.49" width="41.47" height="3.71" transform="translate(446.23 2739.98) rotate(-89.86)"/><rect class="cls-3" x="1538.18" y="1144.4" width="41.47" height="3.71" transform="translate(409 2702.48) rotate(-89.87)"/><rect class="cls-3" x="1503.12" y="1144.32" width="41.47" height="3.71" transform="matrix(0, -1, 1, 0, 374.07, 2667.31)"/><rect class="cls-3" x="1471.81" y="1144.24" width="41.47" height="3.71" transform="translate(342.96 2635.96) rotate(-89.87)"/><polygon class="cls-3" points="1681.58 1167.28 1684.86 1167.29 1684.79 1208.7 1688.5 1208.71 1688.57 1167.24 1685.29 1167.23 1685.36 1125.82 1684.85 1125.82 1684.92 1085.37 1685.43 1085.37 1685.51 1043.9 1681.8 1043.89 1681.72 1085.3 1681.21 1085.29 1681.13 1126.77 1681.65 1126.77 1681.58 1167.28"/><rect class="cls-3" x="1670.63" y="1144.72" width="41.47" height="3.71" transform="translate(541.7 2835.83) rotate(-89.89)"/><path class="cls-3" d="M1708.72,1126.83h.65l.08-41.47h-3.26a4.34,4.34,0,0,0,.52-.08l.07-41.18a6.37,6.37,0,0,0-1.39-.15h-2.32l-.07,41.47h2.31a3,3,0,0,0,.43,0l-.08,40.5-.42,0h-2.32l-.07,41.41h-2l.07-41.41h-3.48l.08-40.45H1701l.07-41.48h-3.71l-.07,41.41h-3.48l-.08,41.48h3.48l-.07,40.52h2.82l-.08,41.41h3.72l.07-41.41h1.53a7.12,7.12,0,0,0,1.39-.14l.07-40.37h1.45l-.07,39.91a8.31,8.31,0,0,0,3.71-3.37l.06-33.5A8.33,8.33,0,0,0,1708.72,1126.83Z"/><rect class="cls-3" x="1562.26" y="1103.94" width="41.47" height="3.71" transform="translate(473.88 2686.47) rotate(-89.88)"/><rect class="cls-3" x="1527.2" y="1103.86" width="41.47" height="3.71" transform="matrix(0, -1, 1, 0, 438.56, 2651.03)"/><rect class="cls-3" x="1495.9" y="1103.78" width="41.47" height="3.71" transform="translate(407.41 2619.65) rotate(-89.86)"/><rect class="cls-3" x="1694.72" y="1104.26" width="41.47" height="3.71" transform="translate(605.33 2818.97) rotate(-89.87)"/><rect class="cls-3" x="1702.35" y="1104.27" width="41.47" height="3.71" transform="matrix(0, -1, 1, 0, 612.87, 2826.59)"/><path class="cls-3" d="M1727,1085.4l-.08,41.48h2.32a7.23,7.23,0,0,0,1.4-.14l.07-41.19a7.12,7.12,0,0,0-1.39-.14Z"/><path class="cls-3" d="M1735.81,1122.91l.06-33.5a8.27,8.27,0,0,0-3.7-3.39l-.08,40.26A8.28,8.28,0,0,0,1735.81,1122.91Z"/><rect class="cls-3" x="1638.35" y="1062.71" width="41.47" height="3.71" transform="translate(590.59 2721.13) rotate(-89.86)"/><polygon class="cls-3" points="1645.92 1043.8 1642.2 1043.79 1642.13 1085.27 1643.05 1085.27 1642.97 1125.72 1642.06 1125.72 1641.98 1167.19 1645.69 1167.2 1645.77 1126.68 1646.68 1126.68 1646.76 1085.21 1645.84 1085.21 1645.92 1043.8"/><polygon class="cls-3" points="1619.03 1085.15 1618.62 1085.14 1618.55 1126.62 1618.96 1126.62 1618.88 1167.14 1622.6 1167.14 1622.67 1125.67 1622.26 1125.67 1622.34 1085.22 1622.75 1085.22 1622.82 1043.75 1619.11 1043.74 1619.03 1085.15"/><rect class="cls-3" x="1575.77" y="1062.56" width="41.47" height="3.71" transform="matrix(0, -1, 1, 0, 528.3, 2658.4)"/><rect class="cls-3" x="1538.33" y="1062.48" width="41.47" height="3.71" transform="matrix(0, -1, 1, 0, 491.04, 2620.87)"/><rect class="cls-3" x="1503.27" y="1062.39" width="41.47" height="3.71" transform="translate(455.78 2585.47) rotate(-89.85)"/><rect class="cls-3" x="1471.96" y="1062.32" width="41.47" height="3.71" transform="translate(425.39 2554.64) rotate(-89.88)"/><rect class="cls-3" x="1670.78" y="1062.79" width="41.47" height="3.71" transform="translate(622.41 2753.35) rotate(-89.85)"/><path class="cls-3" d="M1708.23,1044.56l-.07,40.25a8.19,8.19,0,0,0,3.71-3.37l.06-33.5A8.2,8.2,0,0,0,1708.23,1044.56Z"/><path class="cls-2" d="M1817.05,1155.13l23.06,4.09a9.78,9.78,0,0,1,4.72,2.22,8.19,8.19,0,0,1,2.68,4.24,6.37,6.37,0,0,1,.2,1.5,6,6,0,0,1-.1,1.4l-57.29,321.55c-.74,4.14-5.1,6.89-9.81,6.27l-.46-.07-23.06-4.1-.46-.09c-4.64-1-7.78-5.12-7-9.27l57.29-321.54a4.15,4.15,0,0,1,.14-.61,2.5,2.5,0,0,1,.07-.26c0-.09.06-.19.1-.28s.05-.13.07-.2a6.92,6.92,0,0,1,.72-1.34l.12-.19.14-.18.28-.35.19-.2a1.29,1.29,0,0,1,.16-.17l.33-.32.41-.34.34-.25h0l.24-.17a7.15,7.15,0,0,1,.76-.44l.24-.12.24-.11a4.4,4.4,0,0,1,.5-.21A9.83,9.83,0,0,1,1817.05,1155.13Z"/><path class="cls-3" d="M1820.87,1318.7,1790.17,1491c-.66,3.7-5,6.08-9.66,5.44l-.46-.07-23.06-4.1-.46-.09c-4.64-1-7.85-4.73-7.19-8.43l26.92-151.11,1,0C1789.68,1332.17,1806.74,1329.35,1820.87,1318.7Z"/><rect class="cls-3" x="1819.43" y="1177.39" width="3.71" height="41.47" transform="translate(321.75 2780.53) rotate(-79.88)"/><rect class="cls-3" x="1817.22" y="1189.76" width="3.71" height="41.47" transform="translate(308.55 2789.32) rotate(-79.91)"/><rect class="cls-3" x="1814.58" y="1204.6" width="3.71" height="41.47" transform="translate(291.43 2798.62) rotate(-79.9)"/><rect class="cls-3" x="1810.53" y="1227.34" width="3.71" height="41.47" transform="translate(265.7 2813.38) rotate(-79.9)"/><rect class="cls-3" x="1806.25" y="1251.38" width="3.71" height="41.47" transform="translate(238.84 2829.33) rotate(-79.91)"/><rect class="cls-3" x="1799.68" y="1288.24" width="3.71" height="41.47" transform="translate(196.76 2852.89) rotate(-79.89)"/><rect class="cls-3" x="1793.53" y="1322.76" width="3.71" height="41.47" transform="translate(158.08 2875.68) rotate(-79.91)"/><rect class="cls-3" x="1788.04" y="1353.58" width="3.71" height="41.47" transform="translate(122.5 2894.92) rotate(-79.88)"/><rect class="cls-3" x="1821.53" y="1165.62" width="3.71" height="41.47" transform="translate(335.53 2773.32) rotate(-79.9)"/><rect class="cls-3" x="1822.91" y="1157.84" width="3.71" height="41.47" transform="translate(344.3 2768.24) rotate(-79.89)"/><rect class="cls-3" x="1824.25" y="1150.33" width="3.71" height="41.47" transform="translate(352.83 2763.39) rotate(-79.9)"/><path class="cls-3" d="M1806.37,1163.61l40.83,7.26.41-2.29a6.6,6.6,0,0,0,.1-1.4l-40.55-7.2a6.74,6.74,0,0,0-.38,1.35Z"/><path class="cls-3" d="M1807.87,1158.64l39.64,7a8.19,8.19,0,0,0-2.68-4.24l-33-5.86A8.26,8.26,0,0,0,1807.87,1158.64Z"/><circle class="cls-4" cx="1653.66" cy="759.51" r="143.76" transform="translate(-52.71 1391.77) rotate(-45)"/><circle class="cls-2" cx="1642.68" cy="765.56" r="143.76" transform="translate(484.95 2159.89) rotate(-75.28)"/><path class="cls-3" d="M1643.72,898a131,131,0,1,1,114.49-194.19c34.86,63.25,11.77,143.07-51.48,177.94A130.19,130.19,0,0,1,1643.72,898Zm-.4-254.18a123.54,123.54,0,1,0,34.41,4.91A122.49,122.49,0,0,0,1643.32,643.83Z"/><path class="cls-3" d="M1677.64,791.64a21.41,21.41,0,0,0-3.94-6.51,15.67,15.67,0,0,0-5.86-4,29.87,29.87,0,0,0-8.38-1.87,79.09,79.09,0,0,0-11.42-.07q-11.34.54-21,0a65.44,65.44,0,0,1-17.46-3.17,38.39,38.39,0,0,1-13.71-8,43.3,43.3,0,0,1-12.74-30.35,36.41,36.41,0,0,1,3.45-14.78,45.31,45.31,0,0,1,9.38-13.07,60.76,60.76,0,0,1,14.88-10.6l-8.17-20.14,16.21-6.58,8.29,20.42a54.47,54.47,0,0,1,17.68-1.8,41.1,41.1,0,0,1,28.71,14.16,54.86,54.86,0,0,1,9.59,15.9l-29.29,11.89q-4.59-11.3-11.87-14.86t-15.71-.15a23.56,23.56,0,0,0-7.33,4.46,16,16,0,0,0-4,5.69,14.82,14.82,0,0,0-1,6.5,21.89,21.89,0,0,0,1.62,6.9,20.15,20.15,0,0,0,3.58,5.9,14.78,14.78,0,0,0,5.62,3.8,29.44,29.44,0,0,0,8.42,1.84,99.1,99.1,0,0,0,12,.25q11.31-.31,20.94.27a65.91,65.91,0,0,1,17.44,3.27,37,37,0,0,1,23.34,22.6,39.48,39.48,0,0,1,3.15,16,36,36,0,0,1-3.53,14.71,44,44,0,0,1-9.58,12.88,65.48,65.48,0,0,1-15,10.49l7.6,18.73L1673.34,859l-7.57-18.63a73.27,73.27,0,0,1-17.75,2.93,46.6,46.6,0,0,1-17.24-2.49,41.46,41.46,0,0,1-15.17-9.46q-6.93-6.62-11.52-17.91l29.28-11.89a31,31,0,0,0,6.41,10.39,20,20,0,0,0,7.92,5.12,19.59,19.59,0,0,0,8.67.87,34.08,34.08,0,0,0,8.59-2.23,28,28,0,0,0,7.87-4.62,18.76,18.76,0,0,0,4.65-5.84,14.7,14.7,0,0,0,1.56-6.61A18,18,0,0,0,1677.64,791.64Z"/><path class="cls-5" d="M1785.74,682.14c-6-4.25-19.66-13.59-20.36-11.51-.51,1.5.21,4,1.85,6.69-8.25-3.08-16.63-5.1-36.44-1.3a14.88,14.88,0,0,0-9.74,6.42c-2,3.14-2.77,7.07,2.28,10.22,10.11,6.28,7.18,2.52,21.23,11.67s31.24,11.49,41.52,5.06l13.79-2.3,1.71-22.68S1793.72,683.47,1785.74,682.14Z"/><path class="cls-5" d="M2147.11,491.89s-32.51,38.57-73.91,22.43c0,0-8.91-21.54-9-37.42,0-1.95,0-3.85-.07-5.65-.22-17.88-.83-27.91-.83-27.91h0c1.89-.79,63.3-26,63.24-23.9C2125.5,467.79,2147.11,491.89,2147.11,491.89Z"/><path class="cls-6" d="M2120.39,431c-5.92,11-26.24,32.45-56.29,40.29-.22-17.88-.83-27.91-.83-27.91h0C2065,442.87,2122.15,427.72,2120.39,431Z"/><path class="cls-5" d="M2050.41,441.48s69.06,16.23,78.51-26.93,24.72-70.13-19-82.32-55.89,2.4-62.55,16S2032.69,436.14,2050.41,441.48Z"/><path class="cls-7" d="M2126.56,426.31c.94.61,15.8,5.17,43.94-50.89,4.42-8.8,7.43-27.84-2.87-44.66s-46.81-30-77.15-35.8-37.61,11.31-44.76,28.47c-7.5,18-29.16,32.83-29.16,32.83,26.16,14.62,57.67-6.28,68.59-2.85s14.77,20.64,15.59,26.16,2.07,10.09,15.8,5.17,6.21,19.45,4,24.11C2120.55,408.85,2118.68,421.27,2126.56,426.31Z"/><path d="M2304.46,1502.67h41.81c8.77,0,18.51-8.77,20.94-24.84s20.46-24.85,24.36-38-16.08-31.67-16.08-31.67l-3.34-4.3-3.47-4.47-33.13,7.79s-.81,7.89-1.32,17.93a229,229,0,0,0-.14,23c1,17.54-4.91,36.43-20.49,39.84S2304.46,1502.67,2304.46,1502.67Z"/><path d="M2013.35,1502.67h110.84a9.55,9.55,0,0,0,2.36-.68c7.4-3.7,5.08-32,4.19-40.79-.17-1.62-.29-2.57-.29-2.57s-39-31.18-44.34-7.31c-.17.75-.37,1.48-.57,2.2h0c-6.77,22.34-37,32.48-54.49,35.31C2017.7,1491,2014.24,1498.79,2013.35,1502.67Z"/><path class="cls-8" d="M2035.69,863.48s5.92,73.85,12.88,162.63c9.45,120.59,20.82,268.72,21.95,296.78,1.94,48.73,9.75,126.68,9.75,126.68s18.5,18.51,55.54,10.71c0,0,33-111.27,42.43-229q.21-2.9.44-5.82c8.77-119.84,22.4-372.21,22.4-372.21Z"/><path class="cls-9" d="M2035.69,863.48s5.92,73.85,12.88,162.63l129.67,205.17q.21-2.9.44-5.82c8.77-119.84,22.4-372.21,22.4-372.21Z"/><path class="cls-8" d="M2062.72,872.25s106.7,267.46,176.85,393.16,92.08,160.77,92.08,160.77,40.19-16.08,43.85-27c0,0-26.83-242.66-73.81-301.81-26.55-33.43-57.73-133.73-59.19-168.81S2233,824,2233,824Z"/><path class="cls-10" d="M2306,823.65l1.13,17.2s-11.34,30.56,20.44,46.24c0,0,13.61,5.49,14.16-5.11s-1.19-6.6-.08-21.52-4.76-29-14.63-33.76l-8.09-9.34Z"/><path class="cls-10" d="M2318.46,836.18c-11.81,3.79-13.7,2.93-13.7,2.93s-57.48-104.65-63.3-114.23-122-117.35-122-117.35l29.86-111.37s132.18,171.17,146.46,195.73c23.59,40.59,37.41,134.85,37.41,134.85A34.6,34.6,0,0,1,2318.46,836.18Z"/><path class="cls-11" d="M2013.17,651.26c.41,22.87,1.74,48.58,3.53,74.69l.33,4.65c1.15,16.18,2.39,32.39,3.82,48.2.57,6.34,1.18,12.61,1.81,18.77l.1.82c0,2.31.33,4.81.59,7.09,5.82,59.22,11.93,106,13.07,106.73a6.55,6.55,0,0,0,4.54,1.16c15.54-2,61.87,1.57,99.81-6.68,32-6.75,59.58-19.56,88.79-36.82,3.88-2.29,12.72-8.36,12-12.9-.71-5-2-12.19-3.67-21.25-5.76-31.5-15.69-85.69-19.08-149.11q-1-17.72-2.86-35c-3.26-29.88-8.48-58.26-15.48-83.47-13-46.84-32.12-82.71-56.1-96.74-3.13-1.76-20,9-35.48,18.91-14.3,9.16-29.35,11.7-44,10.42L2052,515c-15.61,18.14-32.22,42.29-36.76,76.62-.34,2.54-.63,5.23-.88,8.1C2013.12,613.73,2012.81,631.43,2013.17,651.26Z"/><path class="cls-10" d="M2013.17,651.26c.41,22.87,1.74,48.58,3.53,74.69l.33,4.65c88.72-55.53,102.39-157.15,102.39-157.15-43.65,1.92-78.32,11.95-105.05,26.3C2013.12,613.73,2012.81,631.43,2013.17,651.26Z"/><path class="cls-11" d="M1789,695c-.91-13.16,5.9-15.35,5.9-15.35s133.76-24.24,145.13-27.82,108.61-104.72,108.61-104.72,37.27-42,67.78-32.75c26.52,8.07,36.89,28.75,40.41,48.46a58,58,0,0,1-27,59.58c-45.65,28-137,83.17-158.56,89.48-47.9,14-176.6,1.12-176.6,1.12A41.54,41.54,0,0,1,1789,695Z"/><path class="cls-12" d="M1946.4,951.92v497.2a52.9,52.9,0,0,1-52.73,52.74H1382.6a53.22,53.22,0,0,1-12.89-1.58,54.33,54.33,0,0,1-35-27.56c-.16-.3-.31-.6-.47-.92a53.06,53.06,0,0,1-5.46-20.14c-.1-1.22-.14-2.46-.14-3.71V955.11a81.6,81.6,0,0,1,37.92-68.69l.06,0A70.69,70.69,0,0,0,1396,805.67h483.14A70.64,70.64,0,0,0,1906,884.78h0c1.22.84,2.47,1.66,3.73,2.42h0A75.82,75.82,0,0,1,1946.4,951.92Z"/><path class="cls-12" d="M1946.4,951.92v497.2a52.91,52.91,0,0,1-49,52.6c-1.22.09-2.47.14-3.72.14h-225a54.07,54.07,0,0,1-53.9-53.91V955.11a81.58,81.58,0,0,1,37.92-68.69A70.63,70.63,0,0,0,1682,805.67h197.1a70.65,70.65,0,0,0,30.66,81.55A75.82,75.82,0,0,1,1946.4,951.92Z"/><path class="cls-13" d="M1906,884.78c-15.78-9.45-84.15-42.95-258-41.53-199.13,1.63-278.9,41.88-281.35,43.13A70.69,70.69,0,0,0,1396,805.67h483.14A70.64,70.64,0,0,0,1906,884.78Z"/><path class="cls-10" d="M1890.06,802.19v22.55a4,4,0,0,1-4,4h-497a4,4,0,0,1-4-4V802.19a4.05,4.05,0,0,1,4-4h497A4,4,0,0,1,1890.06,802.19Z"/><path class="cls-14" d="M1890.06,802.19v22.55a4,4,0,0,1-4,4H1697.92a4.05,4.05,0,0,1-4-4V802.19a4.06,4.06,0,0,1,4-4H1886A4,4,0,0,1,1890.06,802.19Z"/><rect class="cls-10" x="273.79" y="1496.36" width="2589.27" height="6.87" rx="2.93"/></svg>