<svg xmlns="http://www.w3.org/2000/svg" viewBox="0 0 435.06 435.06"><defs><style>.cls-1{fill:#fff;}.cls-2{fill:none;stroke:#fff;stroke-miterlimit:10;stroke-width:2px;}.cls-3{fill:#f8dc2c;}.cls-4,.cls-5{font-size:23.02px;}.cls-4{font-family:MyriadPro-Regular, Myriad Pro;}.cls-10,.cls-5,.cls-7,.cls-8{font-family:NirmalaUI, Nirmala UI;}.cls-6{font-size:33.18px;}.cls-6,.cls-9{font-family:AdobeDevanagari-Regular, Adobe Devanagari;}.cls-7{font-size:25.96px;}.cls-8{font-size:21.64px;}.cls-9{font-size:26.4px;}.cls-10{font-size:19.66px;}</style></defs><title>web4</title><g id="OBJECTS"><path class="cls-1" d="M265.28,395.79,159.67,396a7.62,7.62,0,0,1-7.62-7.62V323L172.41,337l92.86-.21a7.62,7.62,0,0,1,7.62,7.62v43.73A7.62,7.62,0,0,1,265.28,395.79Z"/><path class="cls-1" d="M153.36,321l19.78,13.65,92.13-.2h.08a10,10,0,0,1,9.88,10v43.72a10,10,0,0,1-10,10h0l-105.61.2a10.09,10.09,0,0,1-7-2.91,9.94,9.94,0,0,1-2.92-7V323a2.33,2.33,0,0,1,1.25-2.07,2.42,2.42,0,0,1,1.11-.27A2.31,2.31,0,0,1,153.36,321Zm6.3,72.62,105.62-.21a5.28,5.28,0,0,0,5.28-5.27V344.45a5.3,5.3,0,0,0-5.24-5.28h0l-92.86.21a2.49,2.49,0,0,1-1.33-.42l-16.71-11.53,0,60.95a5.28,5.28,0,0,0,5.23,5.28Z"/><circle class="cls-2" cx="338.33" cy="397.27" r="17.02" transform="translate(-181.82 355.59) rotate(-45)"/><circle class="cls-1" cx="92.23" cy="37.19" r="12.65" transform="translate(-7.21 37.92) rotate(-22.38)"/><circle class="cls-2" cx="39.57" cy="151.24" r="11.25"/><path class="cls-1" d="M381.26,45.11a7.93,7.93,0,1,1-7.93-7.92A7.93,7.93,0,0,1,381.26,45.11Z"/><path class="cls-1" d="M351.63,124.35A6.65,6.65,0,1,1,345,117.7,6.65,6.65,0,0,1,351.63,124.35Z"/><circle class="cls-1" cx="387.64" cy="244.47" r="6.38"/><circle class="cls-3" cx="284.88" cy="39.35" r="12.76"/><path class="cls-3" d="M406.74,124.06a6.36,6.36,0,1,1-6.36-6.36A6.35,6.35,0,0,1,406.74,124.06Z"/><path class="cls-1" d="M345.18,166.63l-54.78-.11a4,4,0,0,0-3.95,3.95V204.4L297,197.1l48.16.11a4,4,0,0,0,3.95-4V170.58A4,4,0,0,0,345.18,166.63Z"/><path class="cls-1" d="M286.45,205.61a1.18,1.18,0,0,1-.58-.14,1.21,1.21,0,0,1-.65-1.07V170.47a5.17,5.17,0,0,1,5.17-5.16l54.78.1h0a5.17,5.17,0,0,1,5.16,5.17v22.68a5.18,5.18,0,0,1-5.13,5.16h0l-47.78-.1-10.26,7.08A1.21,1.21,0,0,1,286.45,205.61Zm3.93-37.88a2.75,2.75,0,0,0-2.72,2.74v31.61l8.67-6a1.2,1.2,0,0,1,.69-.21l48.16.1h0a2.74,2.74,0,0,0,2.72-2.73V170.58a2.74,2.74,0,0,0-2.73-2.74l-54.78-.11Z"/><path class="cls-3" d="M165.29,91.69l-75.38-.2a7.6,7.6,0,0,0-7.62,7.61v65.42l20.37-14.07,62.62.2a7.62,7.62,0,0,0,7.62-7.61V99.31A7.62,7.62,0,0,0,165.29,91.69Z"/><path class="cls-3" d="M82.29,166.86a2.35,2.35,0,0,1-2.36-2.35L80,99.1a9.89,9.89,0,0,1,2.92-7,10,10,0,0,1,7-2.91l75.38.2h0a10,10,0,0,1,10,10V143a10,10,0,0,1-9.88,10h-.08l-61.89-.2L83.6,166.44A2.4,2.4,0,0,1,82.29,166.86Zm7.58-73a5.28,5.28,0,0,0-5.24,5.27v61l16.7-11.53a2.42,2.42,0,0,1,1.33-.41l62.62.2h0a5.28,5.28,0,0,0,5.24-5.27V99.31A5.28,5.28,0,0,0,165.29,94l-75.38-.2Z"/><path class="cls-1" d="M287.44,124.34l-63.25.12a4.56,4.56,0,0,1-4.56-4.56V80.73l12.2,8.42L287.43,89A4.56,4.56,0,0,1,292,93.59v26.18A4.57,4.57,0,0,1,287.44,124.34Z"/><path class="cls-1" d="M220.42,79.58l11.84,8.17,55.17-.12h0a6,6,0,0,1,5.92,6v26.18a6,6,0,0,1-6,6h0l-63.25.12a6,6,0,0,1-4.21-1.75,5.89,5.89,0,0,1-1.75-4.21V80.73a1.4,1.4,0,0,1,.75-1.24,1.43,1.43,0,0,1,.66-.16A1.35,1.35,0,0,1,220.42,79.58Zm3.77,43.48,63.25-.13a3.15,3.15,0,0,0,3.15-3.16V93.59a3.17,3.17,0,0,0-3.14-3.16h0l-55.61.12a1.33,1.33,0,0,1-.79-.25l-10-6.9v36.5a3.12,3.12,0,0,0,.93,2.23,3.15,3.15,0,0,0,2.21.93Z"/><path class="cls-3" d="M312.79,315.6l-75.38.2a7.61,7.61,0,0,1-7.61-7.61V242.77l20.38,14.07,62.62-.2a7.62,7.62,0,0,1,7.62,7.61V308A7.62,7.62,0,0,1,312.79,315.6Z"/><path class="cls-3" d="M231.11,240.85l19.78,13.65,61.89-.2h.07a10,10,0,0,1,9.89,9.95V308a10,10,0,0,1-10,10h0l-75.38.2a10.06,10.06,0,0,1-7-2.91,9.89,9.89,0,0,1-2.92-7V242.77a2.34,2.34,0,0,1,1.25-2.07,2.42,2.42,0,0,1,1.11-.27A2.4,2.4,0,0,1,231.11,240.85Zm6.3,72.61,75.38-.2a5.29,5.29,0,0,0,5.28-5.28l0-43.73a5.28,5.28,0,0,0-5.23-5.27h0l-62.62.2a2.4,2.4,0,0,1-1.33-.41l-16.71-11.54,0,61a5.26,5.26,0,0,0,5.23,5.27Z"/><path class="cls-1" d="M140.28,165.26l105.61-.2a7.62,7.62,0,0,1,7.62,7.61v65.42L233.15,224l-92.86.2a7.6,7.6,0,0,1-7.62-7.61V172.88A7.62,7.62,0,0,1,140.28,165.26Z"/><path class="cls-1" d="M252.2,240l-19.78-13.65-92.13.21h-.08a10,10,0,0,1-9.88-10V172.88a10,10,0,0,1,10-10h0l105.61-.2a10.09,10.09,0,0,1,7.05,2.91,9.89,9.89,0,0,1,2.91,7l0,65.42a2.33,2.33,0,0,1-1.25,2.07,2.42,2.42,0,0,1-1.11.27A2.32,2.32,0,0,1,252.2,240Zm-6.31-72.61-105.61.2a5.29,5.29,0,0,0-5.28,5.28v43.73a5.28,5.28,0,0,0,5.24,5.27h0l92.86-.2a2.41,2.41,0,0,1,1.33.42l16.71,11.53,0-61a5.26,5.26,0,0,0-5.23-5.27Z"/><path class="cls-1" d="M187.82,245.17,82.2,245a7.63,7.63,0,0,0-7.62,7.62V318L95,303.93l92.86.2a7.63,7.63,0,0,0,7.62-7.61V252.79A7.62,7.62,0,0,0,187.82,245.17Z"/><path class="cls-1" d="M74.59,320.34a2.42,2.42,0,0,1-1.11-.27A2.36,2.36,0,0,1,72.23,318V252.58a9.89,9.89,0,0,1,2.92-7,10.12,10.12,0,0,1,7-2.92l105.62.21h0a10,10,0,0,1,10,10v43.73a10,10,0,0,1-9.89,10h-.07l-92.13-.2L75.9,319.92A2.42,2.42,0,0,1,74.59,320.34Zm7.57-73a5.26,5.26,0,0,0-5.23,5.27l0,60.95L93.62,302a2.4,2.4,0,0,1,1.33-.41l92.86.2h0a5.28,5.28,0,0,0,5.23-5.27l0-43.73a5.29,5.29,0,0,0-5.28-5.28l-105.62-.2Z"/><text class="cls-4" transform="translate(92.23 130.41)">English</text><text class="cls-5"><tspan x="96.83" y="283.57">தமிழ்</tspan></text><text class="cls-6" transform="translate(255.81 298.85)">हिंदी</text><text class="cls-7" transform="translate(146.12 204.4)">తెలుగు</text><text class="cls-8" transform="translate(157.35 372.31)">മലയാളം</text><text class="cls-9" transform="translate(234.12 114.21)">मराठी</text><text class="cls-10" transform="translate(293.4 190.59)">ਪੰਜਾਬੀ</text></g></svg>