<svg id="Layer_1" data-name="Layer 1" xmlns="http://www.w3.org/2000/svg" viewBox="0 0 362 304"><defs><style>.cls-1{fill:#968014;}.cls-2{fill:#af9a20;}.cls-3{fill:#f4eed0;}.cls-4,.cls-6{fill:#fff;}.cls-5{fill:#4c4004;}.cls-13,.cls-6,.cls-7{stroke:#000;stroke-miterlimit:10;stroke-width:0.25px;}.cls-7{fill:#f4f4f4;}.cls-8{fill:#f7df32;}.cls-9{fill:#352b00;}.cls-10{fill:#02313f;}.cls-11{fill:#d8be21;}.cls-12{fill:#102735;}.cls-13{fill:none;}</style></defs><title>web5</title><polygon class="cls-1" points="261.91 259.28 261.91 265.1 285.85 248.93 285.85 244.4 275.5 250.22 275.5 108.53 271.62 110.47 271.62 252.81 261.91 259.28"/><polygon class="cls-2" points="271.62 110.47 267.74 108.53 267.74 251.52 256.74 257.34 256.74 263.16 261.91 265.1 261.91 259.28 271.62 252.81 271.62 110.47"/><polygon class="cls-1" points="285.85 244.4 281.32 244.4 275.5 247.52 275.5 250.22 285.85 244.4"/><polygon class="cls-2" points="267.74 108.53 271.62 106.58 275.5 108.53 271.62 110.47 267.74 108.53"/><polygon class="cls-1" points="144.16 191.34 144.16 196.52 168.09 180.99 168.09 176.46 157.74 182.93 157.74 39.29 151.92 43.18 151.92 186.17 144.16 191.34"/><polygon class="cls-3" points="153.21 49.65 267.74 114.87 267.74 208.21 153.86 142.17 153.21 50.29 153.21 49.65"/><polygon class="cls-2" points="144.16 196.52 139.63 193.93 139.63 188.75 148.68 183.58 148.68 41.23 151.92 43.18 151.92 186.17 144.16 191.34 144.16 196.52"/><polygon class="cls-2" points="168.09 176.46 162.92 176.46 157.74 179.85 157.74 182.93 168.09 176.46"/><polygon class="cls-2" points="148.68 41.23 153.86 38 157.74 39.29 151.92 43.18 148.68 41.23"/><polygon class="cls-4" points="153.21 49.65 157.1 47.06 267.74 110.47 267.74 115 153.21 49.65"/><polygon class="cls-4" points="199.76 152.12 199.76 96.23 252.85 124.17 252.85 180.99 199.76 152.12"/><polygon class="cls-4" points="159.68 71 191.39 87.82 191.39 91.7 159.68 74.88 159.68 71"/><polygon class="cls-4" points="159.68 78.11 191.39 94.94 191.39 98.82 159.68 82 159.68 78.11"/><polygon class="cls-4" points="159.68 85.23 191.39 102.06 191.39 105.94 159.68 89.11 159.68 85.23"/><polygon class="cls-4" points="159.68 93 191.39 109.82 191.39 113.7 159.68 96.88 159.68 93"/><polygon class="cls-4" points="159.68 101.41 191.39 118.23 191.39 122.11 159.68 105.29 159.68 101.41"/><polygon class="cls-4" points="159.68 110.47 191.39 127.29 191.39 131.17 159.68 114.35 159.68 110.47"/><polygon class="cls-4" points="159.68 118.88 191.39 135.7 191.39 139.58 159.68 122.76 159.68 118.88"/><polygon class="cls-4" points="159.68 126.64 191.39 143.46 191.39 147.35 159.68 130.52 159.68 126.64"/><polygon class="cls-5" points="121.51 160.29 120.86 241.16 131.86 241.16 133.95 164.43 121.51 160.29"/><path class="cls-6" d="M177.8,115l1.94-3.24a.9.9,0,0,1,1.3,0c.64.65-.65,2.59-.65,2.59l3.88-1.3s3.24-1.94,3.24-1.29-1.95,1.94-1.95,1.94l-1.29.65s3.24,1.29,2.59,2.59-4.61,2.9-4.61,2.9l-6.39-1,.65-2.59Z"/><polygon class="cls-6" points="119.57 151.27 122.07 152.59 121.67 159.37 117.3 157.38 119.57 151.27"/><path class="cls-7" d="M126,93.64l.65,9.06,3.88,5.18,5.17,2.59V104l.65-4.53s3.88-2.59,4.53-9.06.65-9.71.65-9.71l-9.71-4.53L123.45,82Z"/><path class="cls-8" d="M115,120.82s3.23,16.82,6.47,19.41,0,20.06,0,20.06,3.88,6.47,23.29,3.23c0,0,5.18-24.59,4.53-35.58,0,0,7.77,8.41,20.71,1.29l13.58-9.06s-9.7-1.94-5.82-5.17L161,122.76s-2.81,1.27-7.23-3.25-9.59-11-9.59-11a33.69,33.69,0,0,0-8.42-4.52l-1.29,4.52-7.76-5.82s-14.24,3.24-18.77,11.65a118.89,118.89,0,0,1-8.41,13.59s-1.94,4.52,1.3,12.94,13.58,16.82,13.58,16.82l2.59.65a7,7,0,0,0,2.59-5.18v-2.59l-5.82-5.18s-7.12-8.41-5.18-12.94A109.3,109.3,0,0,1,115,120.82Z"/><path class="cls-9" d="M131.91,239.3l4.48-.08s.65-61.46,8.41-75.7l-10.85.91Z"/><path class="cls-2" d="M115,120.82s3.88,12.94,6.47,14.88,5.18,9.06,3.88,12.94-1.81,13.42-1.81,13.42l-2.07-1.13s1.29-11,0-16.17S115.69,131.17,115,120.82Z"/><path class="cls-2" d="M115,120.82l-7.12,11s-3.23,2.59-5.17,0c0,0,2.58,3.88,4.53,3.23,0,0,3.87,12,10.67,14.09,0,0-8.73-7-10-14.73Z"/><path class="cls-2" d="M149.33,127.94s4.53,2.58,6.47,2.58,12.94-3.23,12.94-3.23l12.3-7.81,2.58.69L170,129.23s-6.42,3.93-12.91,2.61C157.13,131.84,151.92,131.17,149.33,127.94Z"/><path class="cls-10" d="M134.45,108.52s3.23,36.88,1.29,39.47l2.59,5.83,3.24-5.83S137.68,114.35,134.45,108.52Z"/><polygon class="cls-11" points="123.92 103.48 132.51 111.11 134.45 108.53 136.39 109.82 138.01 105.11 137.04 110.47 134.52 108.83 132.51 111.76 123.92 103.48"/><path d="M127.33,241.81V247l19.41,1.29s2.59-2.59-9.7-5.18Z"/><path class="cls-12" d="M121.51,242.46v5.17l19.41,1.3s2.59-2.59-9.71-5.18Z"/><path d="M126.69,87.17s0-3.88-2-3.88,1.3,6.47,1.3,6.47v3.88a16.22,16.22,0,0,1-3.88-11c0-7.11.64-5.17,1.94-7.11s0-3.89,3.23-5.18,5.18,0,9.06,1.29,7.12-2.58,8.41,2-2.59,7.11-3.23,7.11-.65-.64-3.24-1.29-5.17-1.94-7.12-.65-3.23,1.94-3.88,5.18Z"/><line class="cls-13" x1="133.8" y1="85.23" x2="129.92" y2="85.23"/><line class="cls-13" x1="136.39" y1="85.23" x2="140.27" y2="85.88"/><ellipse cx="132.83" cy="87.17" rx="0.32" ry="0.65"/><ellipse cx="137.36" cy="87.17" rx="0.32" ry="0.65"/><polyline class="cls-13" points="135.74 89.76 137.04 93 135.1 93"/><path d="M132.51,93a2.94,2.94,0,0,0,1.32,2.16,3.24,3.24,0,0,0,1.22.39,7.48,7.48,0,0,0,1.34,0l-.67.14c-.22,0-.45,0-.68,0a3.22,3.22,0,0,1-1.34-.38A2.59,2.59,0,0,1,132.51,93Z"/><path d="M136.39,99.47a16.23,16.23,0,0,1-4-.33,8.53,8.53,0,0,1-3.71-1.61,9.42,9.42,0,0,0,1.82.85,15.83,15.83,0,0,0,1.94.52c.65.15,1.32.25,2,.34S135.72,99.41,136.39,99.47Z"/></svg>