<svg width="65" height="63" viewBox="0 0 65 63" fill="none" xmlns="http://www.w3.org/2000/svg">
<path d="M0 6.63158C0 4.87277 0.684819 3.18601 1.90381 1.94234C3.12279 0.698682 4.77609 0 6.5 0H58.5C60.2239 0 61.8772 0.698682 63.0962 1.94234C64.3152 3.18601 65 4.87277 65 6.63158V43.1053C65 44.8641 64.3152 46.5508 63.0962 47.7945C61.8772 49.0382 60.2239 49.7368 58.5 49.7368H35.75V56.3684H45.5C46.362 56.3684 47.1886 56.7178 47.7981 57.3396C48.4076 57.9614 48.75 58.8048 48.75 59.6842C48.75 60.5636 48.4076 61.407 47.7981 62.0288C47.1886 62.6507 46.362 63 45.5 63H19.5C18.638 63 17.8114 62.6507 17.2019 62.0288C16.5924 61.407 16.25 60.5636 16.25 59.6842C16.25 58.8048 16.5924 57.9614 17.2019 57.3396C17.8114 56.7178 18.638 56.3684 19.5 56.3684H29.25V49.7368H6.5C4.77609 49.7368 3.12279 49.0382 1.90381 47.7945C0.684819 46.5508 0 44.8641 0 43.1053V6.63158ZM60 44.7764V24.6522V5.03106H31H4.5V26.1615V44.7764H32.5H60Z" fill="#52ACFF"/>
</svg>
