<svg id="Layer_1" data-name="Layer 1" xmlns="http://www.w3.org/2000/svg" viewBox="0 0 1080 1080"><defs><style>.cls-1,.cls-3{fill:#f7df32;}.cls-2,.cls-5,.cls-6,.cls-7{fill:#fff;}.cls-3{font-size:90.49px;font-family:Gilroy-ExtraBold, Gilroy;font-weight:800;}.cls-4{letter-spacing:-0.01em;}.cls-5{letter-spacing:0em;}.cls-6{letter-spacing:0em;}.cls-7{font-size:35.9px;font-family:Gilroy-Light, Gilroy;font-weight:300;}.cls-8{letter-spacing:-0.03em;}.cls-9{letter-spacing:-0.01em;}.cls-10{letter-spacing:-0.01em;}.cls-11{letter-spacing:-0.02em;}</style></defs><title>logocolor</title><path class="cls-1" d="M248.13,608c-4,0-8,0-12.08,0-2,0-2.88-.83-2.87-2.85,0-9.39-3-17.85-7.85-25.73a55,55,0,0,0-7.77-9.59,49,49,0,0,1-13.44-25.95,28.2,28.2,0,0,1-.48-5.26c0-4.73-.3-9.46.55-14.15A50.18,50.18,0,0,1,215,501.33a75.28,75.28,0,0,1,5.4-5.61c.62-.62,1-.57,1.63,0,3.08,3.13,6.23,6.2,9.29,9.36a1.22,1.22,0,0,0,1.78.22,43.36,43.36,0,0,1,9.25-4.2,36,36,0,0,1,12.77-1,41.76,41.76,0,0,1,13.17,3.08c6.39,2.72,11.85,6.61,15.47,12.71a31.39,31.39,0,0,1,4.17,14.75c.37,7.73-1.72,15-4.75,22a54.89,54.89,0,0,1-11.59,17c-3.29,3.32-5.32,7.46-6.9,11.82a54.67,54.67,0,0,0-3,16.43c-.13,2.77.12,5.52,0,8.28-.05,1.77,0,1.77-1.74,1.77Z"/><path class="cls-2" d="M270.37,608c-1.93,0-3.86,0-5.79,0-.7,0-1-.23-1-1,0-6-.12-11.92,1-17.81,1.21-6.28,3.37-12.14,7.52-17.09,1.87-2.25,4-4.3,5.76-6.64a59.12,59.12,0,0,0,11.69-28A34.63,34.63,0,0,0,286.45,517a29.83,29.83,0,0,0-12.51-13.08,45.18,45.18,0,0,0-23.06-5.86,34,34,0,0,0-13.32,2.64,36.55,36.55,0,0,0-4.05,2.16,1.19,1.19,0,0,1-1.76-.26c-2.62-2.75-5.31-5.43-8-8.09-.71-.7-.58-1.06.14-1.6a47.49,47.49,0,0,1,21.49-9.36,71.48,71.48,0,0,1,15.34-.36,41.92,41.92,0,0,1,17.72,5.09c14.5,7.94,23.79,19.83,27,36.2.92,4.7.6,9.49.47,14.25a38.39,38.39,0,0,1-1.83,11c-2.4,7.25-5.79,14-11.34,19.28-7,6.66-10.49,14.92-12.52,24a100.76,100.76,0,0,0-1.56,12.37c-.18,1.85-1,2.49-2.82,2.52s-3.6,0-5.4,0Z"/><path class="cls-1" d="M248.69,610.75c3.92,0,7.85,0,11.78,0,.91,0,1.3.22,1.29,1.22q0,8.79,0,17.57a1.53,1.53,0,0,1-1.44,1.77c-6.13,1.09-11.95.4-17-3.5a20.35,20.35,0,0,1-8.29-15.31c-.08-1.27.36-1.71,1.74-1.72,4,0,7.92,0,11.88,0Z"/><path class="cls-2" d="M263.57,620.34c0-2.82,0-5.65,0-8.48,0-.92.15-1.23,1.21-1.18,2.78.13,5.58.06,8.37.07h1.2c1.47,0,1.92.51,1.78,2a20.56,20.56,0,0,1-11.49,16.94c-1,.46-1.05.42-1.05-.67C263.57,626.13,263.57,623.23,263.57,620.34Z"/><text class="cls-3" transform="translate(331.76 569)">Dou<tspan class="cls-4" x="170.4" y="0">b</tspan><tspan x="225.87" y="0">t</tspan><tspan class="cls-5" x="260.98" y="0">C</tspan><tspan class="cls-2" x="325.59" y="0">onn</tspan><tspan class="cls-6" x="484.49" y="0">ec</tspan><tspan class="cls-2" x="584.13" y="0">t</tspan></text><text class="cls-7" transform="translate(549 610.72)"><tspan class="cls-8">R</tspan><tspan x="21.11" y="0">ed</tspan><tspan class="cls-9" x="65.41" y="0">e</tspan><tspan x="86.01" y="0">fined dou</tspan><tspan class="cls-10" x="243.78" y="0">b</tspan><tspan x="266.58" y="0">t </tspan><tspan class="cls-11" x="289.66" y="0">s</tspan><tspan x="305.56" y="0">olving</tspan></text></svg>